<svg width="27" height="26" viewBox="0 0 27 26" fill="none" xmlns="http://www.w3.org/2000/svg">
<path d="M0.258789 14.2221V11.6807C0.333188 11.3061 0.409914 10.9314 0.479663 10.5556C1.65958 4.17593 7.78933 -0.999712 15.2862 0.164865C22.218 1.24245 26.9109 7.32284 26.1856 14.2883C25.6217 19.675 22.6167 23.3242 17.5611 25.2427C16.5149 25.6394 15.3652 25.7554 14.2632 26.0002H12.18C11.9184 25.9596 11.6557 25.9236 11.3953 25.876C5.92238 24.8646 2.3621 21.7072 0.714479 16.404C0.495933 15.6964 0.407586 14.9494 0.258789 14.2221ZM21.4752 21.343C26.1809 16.6592 26.1309 9.07203 21.4171 4.58887C16.573 -0.0195631 9.05759 0.229823 4.56112 5.16884C0.13208 10.0406 0.802833 17.3134 5.08657 21.3395C6.28741 20.2132 7.80212 19.6379 9.29241 19.0196C9.59445 18.892 9.88398 18.7367 10.1573 18.5557C10.9652 18.0267 11.3395 16.6627 10.842 15.8356C10.2828 14.9077 9.66441 14.0041 9.02504 13.1249C8.57865 12.5124 8.45892 11.6262 8.95064 11.24C9.44237 10.8537 9.44354 10.428 9.34356 9.91182C9.27265 9.5534 9.22731 9.19034 9.13664 8.83772C8.86346 7.76594 9.1843 6.90411 10.0387 6.22902C10.2608 6.04744 10.5016 5.88996 10.7571 5.75925C12.7601 4.77678 14.6317 5.06329 16.2661 6.57121C16.3332 6.63769 16.412 6.69118 16.4986 6.72895C17.4507 7.09434 17.5355 7.19293 17.4472 8.18468C17.3937 8.77624 17.238 9.35969 17.2042 9.95126C17.1856 10.2992 17.1961 10.7632 17.3972 11.0022C18.0156 11.7434 18.0494 12.5101 17.3972 13.2478C17.1466 13.5597 16.92 13.89 16.7195 14.2361C16.487 14.6061 16.294 15.0132 16.022 15.3589C15.0618 16.6 15.3617 18.0627 16.7532 18.7888C16.9915 18.9129 17.2368 19.0208 17.4856 19.1287C18.9038 19.7087 20.3034 20.2991 21.4752 21.343Z" fill="#808080"/>
</svg>
