<svg width="10" height="10" viewBox="0 0 10 10" fill="none" xmlns="http://www.w3.org/2000/svg">
<g clip-path="url(#clip0_596_1920)">
<path d="M3.07086 7.39365V7.23441C3.07086 5.56455 3.07086 3.89468 3.07086 2.22482C3.07086 1.92185 2.91242 1.70766 2.64166 1.6379C2.3445 1.56145 2.0308 1.74993 1.96496 2.04938C1.94806 2.12583 1.94489 2.20615 1.94489 2.28471C1.94383 3.92815 1.94418 5.57159 1.94418 7.21503V7.4102C1.77941 7.21856 1.64104 7.05721 1.50232 6.89621C1.42204 6.80285 1.34282 6.70879 1.26184 6.61614C1.0432 6.36636 0.703435 6.33184 0.462257 6.53335C0.216149 6.73909 0.187983 7.08574 0.406275 7.34433C0.78864 7.79773 1.17699 8.24584 1.56288 8.69642C1.72871 8.88983 1.89207 9.08535 2.06108 9.27629C2.3269 9.5768 2.70152 9.57363 2.96136 9.27101C3.50498 8.63759 4.04789 8.00346 4.59046 7.36934C4.82178 7.09878 4.81297 6.76164 4.57039 6.54603C4.32252 6.3262 3.98029 6.35967 3.74299 6.63093C3.52892 6.87543 3.31837 7.12309 3.10606 7.36934C3.10325 7.37251 3.09867 7.37498 3.07086 7.39365Z" fill="#808080"/>
<path d="M7.603 2.61693C7.82587 2.87657 8.04522 3.13902 8.27232 3.39443C8.43287 3.57516 8.63954 3.63505 8.8698 3.55966C9.09408 3.48638 9.2233 3.32186 9.25393 3.08653C9.27435 2.93047 9.22999 2.78814 9.12894 2.66977C8.56701 2.01134 8.00684 1.35149 7.43823 0.699402C7.20162 0.427785 6.80553 0.435888 6.56822 0.709971C6.00735 1.35748 5.45 2.00817 4.89582 2.66167C4.68739 2.90721 4.71907 3.2514 4.95497 3.45327C5.19157 3.65583 5.53133 3.63329 5.74611 3.39303C5.94785 3.16685 6.14185 2.93364 6.33972 2.70394C6.36718 2.67224 6.39641 2.64194 6.4464 2.58733C6.4464 2.66272 6.4464 2.70887 6.4464 2.75502C6.4464 4.42489 6.4464 6.09475 6.4464 7.76497C6.4464 8.10176 6.65765 8.3473 6.96326 8.37126C7.28648 8.39663 7.55406 8.15425 7.57167 7.81675C7.5773 7.71142 7.57343 7.60573 7.57343 7.5004C7.57343 5.92283 7.57343 4.34492 7.57343 2.76735V2.62573L7.603 2.61728V2.61693Z" fill="#808080"/>
</g>
<defs>
<clipPath id="clip0_596_1920">
<rect width="9" height="9" fill="white" transform="matrix(-1 0 0 1 9.25879 0.5)"/>
</clipPath>
</defs>
</svg>
