<svg width="124" height="37" viewBox="0 0 124 37" fill="none" xmlns="http://www.w3.org/2000/svg">
<g clip-path="url(#clip0_254_1033)">
<path d="M108.855 17.0017C106.946 13.2827 102.319 8.26062 90.3448 9.18692C89.1127 9.26421 87.8918 8.90904 86.8876 8.18113C77.8081 1.81803 71.6131 0.404391 64.5111 0.0898653C62.9734 0.0207387 61.3948 0.00345633 59.7378 0H58.0603C42.2641 0 34.9439 4.25128 32.9835 5.63382C32.5827 5.91441 32.1068 6.06397 31.6197 6.0624H17.5862C17.4878 6.0624 17.3905 6.04271 17.2997 6.00445C17.2088 5.9662 17.1264 5.91013 17.057 5.83948C16.9876 5.76882 16.9327 5.68497 16.8954 5.59274C16.858 5.5005 16.8391 5.4017 16.8395 5.30201C16.8386 5.10094 16.7592 4.90842 16.6186 4.76656C16.478 4.62471 16.2878 4.54507 16.0894 4.54507H14.429C14.2306 4.54507 14.0404 4.62471 13.8998 4.76656C13.7592 4.90842 13.6798 5.10094 13.6789 5.30201V6.82279C13.6798 7.02418 13.7591 7.21706 13.8996 7.35947C14.0401 7.50187 14.2303 7.58228 14.429 7.58318H22.0083C22.0987 7.58318 22.1855 7.6196 22.2494 7.68442C22.3133 7.74924 22.3493 7.83715 22.3493 7.92882C22.3493 8.02048 22.3133 8.1084 22.2494 8.17322C22.1855 8.23804 22.0987 8.27445 22.0083 8.27445C14.0335 8.35395 13.1266 15.5327 13.1436 18.875C13.1438 19.3358 12.9762 19.7804 12.6729 20.1235C12.3696 20.4667 11.952 20.6843 11.5002 20.7345L0 21.9615H11.8582C12.3002 21.9626 12.738 21.8739 13.1456 21.7007C13.5533 21.5275 13.9226 21.2733 14.2318 20.9531C14.541 20.6329 14.7838 20.2531 14.9459 19.8363C15.108 19.4194 15.1861 18.9739 15.1757 18.5259C15.0768 14.724 16.5395 13.0373 17.4839 13.096C20.6991 13.096 22.8641 21.0076 22.8641 21.0076C23.263 14.7067 20.6479 12.9336 19.1136 11.8483C18.9394 11.7257 18.8033 11.5553 18.7213 11.3571C18.6392 11.1588 18.6146 10.941 18.6504 10.729C18.6862 10.5171 18.7809 10.32 18.9233 10.1607C19.0658 10.0014 19.2501 9.88664 19.4546 9.8298C22.2401 9.08323 28.3193 9.76413 28.3193 9.76413C33.7745 13.1721 40.648 12.7953 40.648 12.7953C37.4363 12.3391 29.8877 8.627 29.8877 8.627C43.8666 13.2481 56.867 12.0833 56.867 12.0833C53.3348 15.0385 54.1769 19.4695 54.1769 19.4695C54.1769 16.0616 58.4354 13.3345 60.1503 13.3345C66.0692 13.3345 67.9069 20.7172 67.9069 20.7172C68.7457 13.9567 62.3495 12.0177 62.3495 12.0177C68.9605 12.0177 77.5933 13.9878 77.5933 13.9878C71.0914 10.3897 60.1503 10.483 60.1503 10.483C60.1503 10.483 52.3085 2.70631 52.8643 2.10145C54.9713 1.583 57.883 1.51041 60.8629 1.57608C62.6495 1.6141 64.46 1.70397 66.1374 1.78001C67.6206 1.84568 69.0014 1.90098 70.164 1.90098C74.4225 1.90098 85.026 8.33321 86.8501 9.46343C86.87 9.47468 86.8858 9.49215 86.8951 9.51324C86.9044 9.53432 86.9067 9.55789 86.9017 9.58043C86.8968 9.60297 86.8847 9.62327 86.8674 9.63831C86.8502 9.65335 86.8285 9.66233 86.8058 9.66389L73.5258 10.5591C101.33 12.1455 102.524 9.97151 107.365 18.087C107.419 18.1772 107.449 18.28 107.453 18.3854C107.456 18.4908 107.433 18.5954 107.386 18.6893C107.338 18.7831 107.268 18.8631 107.181 18.9216C107.095 18.9801 106.995 19.0153 106.891 19.0236L82.636 20.9937H106.434C106.896 20.9897 107.35 20.8667 107.752 20.6364C108.154 20.406 108.492 20.0758 108.734 19.6768C108.976 19.2778 109.114 18.823 109.135 18.355C109.157 17.8871 109.06 17.4214 108.855 17.0017ZM57.5387 10.9842C56.6999 11.3713 53.6177 11.6755 53.3348 10.6904C53.0518 9.70537 55.0395 8.41962 54.5826 7.79402C54.1258 7.16843 50.0685 6.56357 48.2512 8.65119C48.1965 8.71309 48.1564 8.78675 48.1339 8.86663C48.1114 8.9465 48.107 9.03052 48.1211 9.11236C48.1352 9.1942 48.1674 9.27173 48.2154 9.33912C48.2633 9.40652 48.3257 9.46201 48.3978 9.50145C49.2522 9.90358 50.1834 10.1101 51.1254 10.1063C51.2068 10.1029 51.2876 10.1217 51.3595 10.1607C51.4313 10.1996 51.4916 10.2574 51.534 10.3279C51.5764 10.3984 51.5995 10.4791 51.6008 10.5617C51.6021 10.6443 51.5816 10.7257 51.5414 10.7976C51.4421 10.9813 51.2931 11.1323 51.1118 11.2328C50.9305 11.3332 50.7246 11.3789 50.5185 11.3644C49.6218 11.3644 37.2624 10.7941 33.3006 7.60046C33.3006 7.60046 37.8931 3.32499 46.3589 2.41597C47.7693 2.26083 49.1933 2.53392 50.4503 3.20056C52.5403 4.27548 55.1486 6.57394 57.5387 10.9842Z" fill="#242E69"/>
<path d="M55.2373 10.586C54.8408 10.608 54.4438 10.5528 54.0678 10.4236C54.2236 10.1089 54.4159 9.81417 54.6406 9.54566C54.8569 9.28436 55.0486 9.00318 55.2134 8.70577L55.2339 8.67121C55.6225 9.22422 56.0146 9.82908 56.4033 10.4962C56.0175 10.5566 55.6276 10.5867 55.2373 10.586ZM48.8547 10.5065C47.4704 10.4132 45.394 10.2369 43.1813 9.91203C39.2569 9.33828 36.318 8.5295 34.5859 7.52717C35.3765 6.94708 36.2084 6.42721 37.0749 5.97182C39.9992 4.43816 43.1823 3.47667 46.4578 3.13763C46.6843 3.11314 46.9119 3.10045 47.1397 3.09961C48.1751 3.09953 49.1951 3.35329 50.1128 3.83926C51.4049 4.55808 52.5679 5.49291 53.553 6.60433C53.0688 6.51839 52.5784 6.47445 52.0869 6.47299C50.9924 6.47299 48.9638 6.69074 47.6852 8.16313C47.5542 8.3095 47.4578 8.48415 47.4032 8.67388C47.3486 8.86361 47.3373 9.06344 47.3702 9.25824C47.403 9.45305 47.4792 9.63772 47.5928 9.7983C47.7065 9.95887 47.8547 10.0911 48.0262 10.1851C48.2923 10.317 48.5696 10.4246 48.8547 10.5065Z" fill="#EB4643"/>
<path d="M78.8344 12.2487C80.0277 12.2072 81.221 12.1657 82.4178 12.1346C83.0144 12.1346 83.6111 12.1001 84.2078 12.0897L86.0011 12.0586C86.6012 12.0586 87.1979 12.0586 87.798 12.0586C88.398 12.0586 88.9913 12.0586 89.5913 12.0586C90.1914 12.0586 90.7881 12.0586 91.3882 12.0932C91.9882 12.1277 92.5849 12.1346 93.185 12.1657C93.785 12.1968 94.3817 12.2383 94.9818 12.2867C95.5818 12.3351 96.1819 12.3939 96.7786 12.463C97.3752 12.5321 97.9753 12.6254 98.572 12.7291C99.1686 12.8328 99.7619 12.9642 100.352 13.1197C100.648 13.1992 100.942 13.2821 101.235 13.3789L101.453 13.4515L101.671 13.5275C101.818 13.5794 101.961 13.6416 102.104 13.6969C102.391 13.8179 102.674 13.9423 102.953 14.0909C103.093 14.16 103.229 14.2465 103.366 14.3259L103.567 14.4538C103.632 14.4953 103.696 14.5437 103.761 14.5921C103.894 14.6819 104.02 14.7856 104.146 14.8859L104.327 15.0518L104.416 15.1382L104.501 15.228C104.731 15.4702 104.931 15.7394 105.098 16.0299L105.214 16.2546L105.309 16.4931C105.369 16.6517 105.417 16.8146 105.452 16.9804C105.521 17.3097 105.547 17.6466 105.531 17.9827C105.529 18.0508 105.508 18.1169 105.47 18.1729C105.432 18.2288 105.378 18.2721 105.316 18.2973L105.224 18.3318H105.152H105.088H105.023H104.903L104.787 18.3491L104.337 18.3906L103.448 18.4424C102.854 18.4701 102.268 18.4908 101.678 18.5046C100.498 18.5358 99.322 18.553 98.1458 18.5634C96.9695 18.5738 95.7898 18.5841 94.6135 18.5876C93.4373 18.5911 92.261 18.5876 91.0847 18.5876C92.261 18.5323 93.4338 18.4701 94.6101 18.4079C95.7864 18.3457 96.9593 18.2765 98.1321 18.2039C99.305 18.1314 100.478 18.0519 101.651 17.962C102.234 17.9171 102.82 17.8687 103.4 17.8099C103.693 17.7823 103.983 17.7512 104.269 17.7132C104.412 17.6959 104.556 17.6751 104.692 17.6509L104.794 17.6337L104.893 17.6129H104.937H104.982H105.016L104.801 17.9344C104.815 17.3965 104.682 16.8652 104.416 16.3997C104.277 16.1704 104.112 15.9582 103.925 15.7672L103.853 15.6947L103.778 15.6221L103.625 15.4873C103.516 15.3972 103.402 15.313 103.284 15.235C103.229 15.1926 103.172 15.1534 103.113 15.1174L102.933 15.0034C102.81 14.9343 102.691 14.8617 102.561 14.7995C102.308 14.6712 102.048 14.5558 101.784 14.4538C101.647 14.402 101.514 14.3467 101.378 14.2983L101.173 14.2257L100.969 14.1566C100.693 14.0633 100.413 13.9803 100.13 13.9008C99.5675 13.7453 98.9913 13.6209 98.4254 13.5068C97.8594 13.3927 97.2661 13.296 96.6797 13.213C95.5068 13.0436 94.3237 12.9227 93.1372 12.8259C92.5474 12.781 91.9507 12.7395 91.3575 12.7015C90.7642 12.6635 90.1676 12.6358 89.5743 12.6082L87.7843 12.539C87.1877 12.5183 86.591 12.4975 85.9943 12.4837L84.2043 12.4388L82.4144 12.4008L80.621 12.3628L78.831 12.3178C78.8219 12.3178 78.8133 12.3142 78.8069 12.3077C78.8005 12.3012 78.7969 12.2924 78.7969 12.2833C78.7977 12.2738 78.8021 12.265 78.809 12.2586C78.8159 12.2522 78.825 12.2487 78.8344 12.2487Z" fill="#EB4643"/>
<path d="M38.2615 17.1632H37.6273H36.9932H35.7453H35.1111H34.477H33.8462H33.212L31.9505 17.1287L30.6856 17.0872L29.4241 17.0354L28.1592 16.9766L28.6569 16.268C28.7831 16.5446 28.9058 16.8245 29.032 17.1045L29.4036 17.9409L30.1367 19.6241L29.6696 19.2785L30.7504 19.3615L31.8278 19.4444L32.9052 19.5377L33.9826 19.6311L35.06 19.7278L36.1374 19.835L36.6761 19.8868L37.2148 19.9456L38.2888 20.0596L39.3662 20.1772L40.4402 20.305L41.5142 20.4364L42.5643 20.5781L43.6383 20.7233C43.9963 20.7716 44.3543 20.8269 44.7123 20.8788C45.0703 20.9306 45.4283 20.9859 45.7828 21.0447C46.1374 21.1035 46.4988 21.1588 46.8534 21.2244C46.492 21.2244 46.1306 21.2244 45.7692 21.2244H44.685H43.6008L42.5165 21.1968L41.4357 21.1622C41.0743 21.1622 40.7129 21.138 40.3549 21.1207L39.2741 21.0758L38.1933 21.0205L37.1091 20.9237L36.567 20.8926L36.0283 20.8615L34.9475 20.7924L33.8701 20.7163C33.5087 20.6921 33.1507 20.668 32.7893 20.6368L31.7119 20.5539C31.3504 20.5297 30.9924 20.4986 30.6344 20.4675L29.5571 20.3776C29.4569 20.3683 29.3612 20.3311 29.2805 20.2701C29.1999 20.2091 29.1375 20.1267 29.1002 20.032L28.4183 18.3349L28.0773 17.4847C27.9614 17.2013 27.8455 16.9213 27.7364 16.6344V16.6102C27.7126 16.5489 27.701 16.4835 27.7022 16.4177C27.7034 16.3519 27.7174 16.287 27.7434 16.2266C27.7693 16.1663 27.8068 16.1117 27.8535 16.066C27.9003 16.0204 27.9555 15.9845 28.016 15.9604C28.0883 15.9305 28.1666 15.9187 28.2444 15.9259L29.5025 16.0468L30.7606 16.1747L32.0187 16.3095L33.2734 16.4547L33.9007 16.5307L34.5281 16.6102L35.1589 16.6897L35.7453 16.7761L36.3726 16.8625L37 16.9524L37.6239 17.0492C37.8455 17.0907 38.0535 17.1218 38.2615 17.1632Z" fill="#EB4643"/>
<path d="M79.2061 6.21844L78.8651 6.10438L77.948 5.75875C77.5559 5.61358 77.0751 5.43731 76.5296 5.22993C75.9841 5.02255 75.367 4.79097 74.6953 4.53866L72.5678 3.69877C72.1807 3.56312 71.7869 3.44775 71.3881 3.35314L71.0812 3.28401L70.7676 3.21834L70.4505 3.16304L70.1266 3.11811C69.6899 3.06307 69.2505 3.03422 68.8105 3.0317H67.4126H67.3069C66.3966 3.0317 65.476 3.0317 64.5555 3.0317C63.6349 3.0317 62.7689 3.0317 61.8858 3.0317H61.7017H60.3004H58.9366C58.0399 3.0317 57.1739 3.0006 56.3488 2.97986H56.1545H56.1033C56.0341 2.98934 55.9677 3.01412 55.909 3.05244C55.8498 3.08847 55.7969 3.134 55.7521 3.18724C55.6876 3.26919 55.6431 3.36548 55.6224 3.46821C55.6016 3.57095 55.6052 3.6772 55.6328 3.77827C55.6533 3.84344 55.6831 3.90517 55.7214 3.96145C55.7324 3.97137 55.7416 3.98305 55.7487 3.99602L55.7965 4.04786C55.8271 4.07551 55.8544 4.10662 55.8851 4.13773C56.3931 4.65272 56.8568 5.12624 57.266 5.54791C57.6751 5.96958 58.0297 6.34287 58.3195 6.64702C58.6093 6.95118 58.8377 7.19312 59.0014 7.35903L59.2366 7.61134L58.9707 7.39013L58.2274 6.75763C57.9069 6.48112 57.5183 6.14931 57.075 5.7622L55.5953 4.45571L55.5476 4.41078L55.5203 4.39004L55.4691 4.34511L55.4078 4.27252C55.3324 4.18055 55.2725 4.07662 55.2305 3.96491C55.152 3.72951 55.152 3.47449 55.2305 3.23908C55.2679 3.11505 55.3255 2.99823 55.401 2.89345C55.4777 2.78751 55.5723 2.69623 55.6805 2.62386C55.7897 2.54762 55.9124 2.49362 56.0419 2.46486L56.1408 2.44413H56.192H56.4033C57.2284 2.42339 58.1081 2.40611 58.9912 2.39228L60.355 2.375C60.6959 2.375 61.0641 2.375 61.4221 2.375H61.7631C62.7041 2.375 63.6622 2.375 64.6168 2.375H66.6625H67.4706H68.8173C69.2879 2.38694 69.7572 2.43081 70.222 2.50634C70.6701 2.57567 71.1132 2.67497 71.5483 2.80358C71.9646 2.92367 72.3734 3.0691 72.7723 3.23908C72.8712 3.28056 72.9667 3.32203 73.0587 3.36696L73.3349 3.49139L73.8736 3.73679L74.8965 4.20685C75.5477 4.51101 76.1477 4.79097 76.6762 5.04329C77.2047 5.2956 77.6616 5.52026 78.04 5.70344C78.4185 5.88663 78.7219 6.04908 78.9163 6.13203L79.2061 6.21844Z" fill="#EB4643"/>
<path d="M109.138 18.6426L124 21.0205H106.434" fill="#242E69"/>
<path d="M91.6676 35.0293H33.1368L6.6416 35.7862L31.9537 36.9994H90.7573L117.358 35.7862L91.6676 35.0293Z" fill="#EB4643"/>
<path d="M8.2681 32.6045L5.74848 30.185H3.44707V32.6045H1.99121V25.2148H7.9476C9.49551 25.2148 10.0376 25.8266 10.0376 27.5029V27.9523C10.0376 29.7599 9.35572 30.1678 7.56574 30.1678L10.2695 32.5872L8.2681 32.6045ZM8.6295 27.7656C8.6295 27.0467 8.54426 26.7011 7.92033 26.7011H3.44707V28.9926H7.92033C8.42834 28.9926 8.6295 28.7645 8.6295 28.1216V27.7656Z" fill="#242E69"/>
<path d="M18.4864 32.6045L17.576 30.8763H13.1778L12.2674 32.6045H10.6343L14.6302 25.2148H16.1236L20.1195 32.6045H18.4864ZM15.3837 26.663L13.7301 29.7254H17.0373L15.3837 26.663Z" fill="#242E69"/>
<path d="M22.305 30.2092V32.6045H20.873V25.2148H26.3282C28.0023 25.2148 28.5342 25.7506 28.5342 27.458V28.1251C28.5342 29.6389 28.0023 30.1989 26.3282 30.1989L22.305 30.2092ZM27.1261 27.4442C27.1261 26.8635 26.9147 26.6596 26.3419 26.6596H22.305V28.8751H26.3419C26.9147 28.8751 27.1261 28.6504 27.1261 28.1216V27.4442Z" fill="#242E69"/>
<path d="M29.6082 32.6045V25.2148H31.0367V32.6045H29.6082Z" fill="#242E69"/>
<path d="M32.3357 32.6045V25.2148H38.4728C40.2423 25.2148 40.7606 25.8059 40.7606 27.6101V30.2092C40.7606 32.0273 40.2423 32.6045 38.4728 32.6045H32.3357ZM39.332 27.6204C39.332 26.8912 39.1001 26.6734 38.4762 26.6734H33.7609V31.1666H38.4728C39.1172 31.1666 39.3286 30.9627 39.3286 30.23L39.332 27.6204Z" fill="#242E69"/>
<path d="M51.5276 32.6045L49.0046 30.185H46.7032V32.6045H45.261V25.2148H51.2208C52.7687 25.2148 53.3074 25.8266 53.3074 27.5029V27.9523C53.3074 29.7599 52.6255 30.1678 50.8389 30.1678L53.5392 32.5872L51.5276 32.6045ZM51.889 27.7656C51.889 27.0467 51.8038 26.7011 51.1765 26.7011H46.7032V28.9926H51.1765C51.6845 28.9926 51.889 28.7645 51.889 28.1216V27.7656Z" fill="#242E69"/>
<path d="M54.4087 32.6045V25.2148H61.4152V26.6734H55.8407V28.3083H61.2584V29.5007H55.8407V31.1563H61.4152V32.6045H54.4087Z" fill="#242E69"/>
<path d="M69.039 32.6045L63.8975 27.1469V32.5941H62.5337V25.2148H64.0714L69.0731 30.5652V25.2148H70.4369V32.6045H69.039Z" fill="#242E69"/>
<path d="M73.9316 32.6045V26.6734H71.2722V25.2148H78.023V26.6734H75.3636V32.6045H73.9316Z" fill="#242E69"/>
<path d="M89.5266 32.6045L88.6163 30.8763H84.2181L83.3043 32.6045H81.6746L85.6705 25.2148H87.1639L91.1598 32.6045H89.5266ZM86.4206 26.663L84.767 29.7254H88.0742L86.4206 26.663Z" fill="#242E69"/>
<path d="M97.457 32.6035C95.7182 32.6035 95.1863 32.047 95.1863 30.2083V27.6091C95.1863 25.76 95.7182 25.2139 97.457 25.2139H101.548C101.914 25.1928 102.278 25.2854 102.59 25.4794C102.903 25.6733 103.15 25.9593 103.297 26.2992L102.384 27.2427C102.308 27.0598 102.178 26.9059 102.01 26.8033C101.843 26.7008 101.648 26.655 101.453 26.6724H97.457C96.8194 26.6724 96.5978 26.9109 96.5978 27.6091V30.2186C96.5978 30.8442 96.724 31.1553 97.457 31.1553H101.494C101.688 31.1718 101.882 31.1255 102.048 31.0229C102.214 30.9204 102.343 30.7671 102.418 30.585L103.328 31.5182C103.181 31.859 102.935 32.1458 102.622 32.3399C102.309 32.5341 101.945 32.6261 101.579 32.6035H97.457Z" fill="#242E69"/>
<path d="M111.341 32.6045L110.43 30.8763H106.032L105.118 32.6045H103.489L107.484 25.2148H108.978L112.974 32.6045H111.341ZM108.235 26.663L106.581 29.7254H109.888L108.235 26.663Z" fill="#242E69"/>
<path d="M119.98 32.6045L117.457 30.185H115.159V32.6045H113.717V25.2148H119.673C121.221 25.2148 121.76 25.8266 121.76 27.5029V27.9523C121.76 29.7599 121.095 30.1678 119.292 30.1678L121.995 32.5872L119.98 32.6045ZM120.342 27.7656C120.342 27.0467 120.256 26.7011 119.633 26.7011H115.159V28.9926H119.619C120.127 28.9926 120.328 28.7645 120.328 28.1216L120.342 27.7656Z" fill="#242E69"/>
</g>
<defs>
<clipPath id="clip0_254_1033">
<rect width="124" height="37" fill="white"/>
</clipPath>
</defs>
</svg>
