<svg width="20" height="20" viewBox="0 0 20 20" fill="none" xmlns="http://www.w3.org/2000/svg">
<g clip-path="url(#clip0_631_2857)">
<path d="M10.0279 -0.000119629C15.6011 0.0282569 20.0382 4.53249 20.0001 10.1227C19.9619 15.548 15.4177 20.0326 9.98968 19.9999C4.42413 19.966 -0.0174093 15.4967 5.13043e-05 9.94695C0.0175119 4.43317 4.5147 -0.0274048 10.0279 -0.000119629ZM18.0008 10.0124C18.0379 5.62826 14.4869 2.03863 10.0661 1.9906C5.61908 1.94258 2.03421 5.48965 1.99165 9.9786C1.95018 14.3606 5.49359 17.9426 9.9253 18.0015C14.3526 18.0605 17.9615 14.4883 17.9997 10.0113L18.0008 10.0124Z" fill="#242E69"/>
<path d="M14.9952 9.96883C15.0334 12.6668 12.8028 14.9456 10.0746 14.9969C7.31801 15.0482 5.02958 12.8065 4.99357 10.019C4.95865 7.3189 7.18705 5.04332 9.91636 4.99093C12.6751 4.93745 14.9559 7.17156 14.9952 9.96883Z" fill="#242E69"/>
</g>
<defs>
<clipPath id="clip0_631_2857">
<rect width="20" height="20" fill="white"/>
</clipPath>
</defs>
</svg>
