<svg width="44" height="37" viewBox="0 0 44 37" fill="none" xmlns="http://www.w3.org/2000/svg">
<g clip-path="url(#clip0_264_2821)">
<path d="M39.3542 22.185C38.6152 21.8393 37.8471 21.825 37.0569 21.9673C36.9625 21.9841 36.8669 22.002 36.7713 22.0212C36.7235 21.9446 36.6979 21.9147 36.6839 21.88C36.1431 20.4746 35.6034 19.0679 35.0638 17.6625C34.4064 15.9508 33.4355 15.2654 31.644 15.2642C29.4154 15.263 27.1869 15.2642 24.9595 15.2642C22.7321 15.2642 20.5024 15.263 18.2738 15.2642C16.4835 15.2654 15.5126 15.9508 14.8541 17.6625C14.3144 19.0679 13.7747 20.4746 13.2339 21.88C13.2211 21.9147 13.1943 21.9446 13.1465 22.0212C13.0509 22.002 12.9565 21.9841 12.8621 21.9673C12.0707 21.825 11.3038 21.8393 10.5636 22.185C10.0321 22.4326 9.55425 22.7819 9.54492 23.4458C9.54492 23.4493 9.54609 23.4529 9.54609 23.4565V23.4769C9.55192 24.1527 10.0449 24.4924 10.5823 24.7531C10.7221 24.8213 10.869 24.8727 11.0368 24.9314C11.1406 24.9744 11.2466 25.0199 11.3527 25.0677C10.8888 25.5031 10.6464 25.9983 10.5193 26.5246C10.4611 26.7399 10.4261 26.9636 10.4133 27.1968C10.383 27.5485 10.3818 27.9073 10.3841 28.2662C10.3876 28.8654 10.3771 29.4635 10.4016 30.0616C10.482 32.0519 11.9273 33.5028 13.8587 33.516H13.9041C13.9228 33.516 13.9403 33.516 13.9577 33.516H14.4053C16.3017 33.5256 18.1981 33.5184 20.0944 33.5172C20.2261 33.5172 20.359 33.5017 20.5851 33.4873C20.5851 33.0292 20.6119 32.5842 20.591 32.1464C20.6189 31.1441 20.8136 31.1429 22.1517 31.1429H22.436C23.2776 31.1453 24.118 31.1465 24.9595 31.1453C25.7999 31.1453 26.6414 31.1453 27.4818 31.1429H27.7662C29.1054 31.1429 29.2989 31.1441 29.328 32.1464C29.3059 32.5842 29.3327 33.0292 29.3327 33.4873C29.5588 33.5017 29.6917 33.5172 29.8234 33.5172C31.7198 33.5184 33.6173 33.5256 35.5125 33.516H35.9601C35.9787 33.516 35.9962 33.516 36.0137 33.516H36.0603C37.9905 33.5028 39.4358 32.0519 39.5174 30.0616C39.5407 29.4635 39.5302 28.8654 39.5337 28.2662C39.536 27.9073 39.5349 27.5485 39.5045 27.1968C39.4929 26.9636 39.4568 26.7399 39.3985 26.5246C39.2726 25.9983 39.029 25.5031 38.5663 25.0677C38.6723 25.0199 38.7772 24.9744 38.8821 24.9314C39.05 24.8727 39.1968 24.8213 39.3355 24.7531C39.8729 24.4924 40.3659 24.1527 40.3717 23.4769C40.3717 23.4697 40.3729 23.4625 40.3729 23.4565V23.4458C40.3636 22.7819 39.8857 22.4326 39.3542 22.185ZM16.8262 29.137C16.6502 29.625 16.3087 30.0257 15.8704 30.2721C15.7574 30.314 15.6455 30.3582 15.5336 30.4013C14.4892 30.8032 13.2584 30.186 12.8947 29.0879C12.826 28.875 12.7875 28.6465 12.7887 28.4073C12.7898 27.4875 13.3575 26.7004 14.1489 26.3954C14.1897 26.3811 14.2293 26.3667 14.2713 26.3548C14.8401 26.1993 15.4077 26.2806 15.8669 26.5425C16.0196 26.6323 16.1607 26.7423 16.2877 26.8667C16.5488 27.131 16.7388 27.4719 16.8157 27.875C16.8938 28.2817 16.8355 28.7147 16.8262 29.137ZM30.1404 29.4384H19.7774C19.6375 29.4384 19.5105 29.3798 19.4196 29.2865C19.3287 29.1932 19.2715 29.0628 19.2715 28.9193C19.2715 28.6322 19.4977 28.4001 19.7774 28.4001H30.1404C30.2803 28.4001 30.4062 28.4588 30.4982 28.5521C30.5903 28.6454 30.6463 28.7757 30.6463 28.9193C30.6463 29.2063 30.4202 29.4384 30.1404 29.4384ZM24.9595 22.8286C21.7682 22.8058 18.5757 23.0283 15.3681 23.5426C15.4182 23.3549 15.4427 23.2101 15.4951 23.0762C16.0966 21.5044 16.7178 19.9399 17.2982 18.3598C17.5523 17.6708 17.9894 17.3479 18.6585 17.3084C18.6934 17.3072 18.7296 17.306 18.7669 17.306C20.8311 17.3084 22.8953 17.3108 24.9595 17.3108C27.0237 17.3108 29.0868 17.3084 31.151 17.306C31.1883 17.306 31.2244 17.3072 31.2605 17.3084C31.9284 17.3479 32.3655 17.6708 32.6196 18.3598C33.2012 19.9399 33.8224 21.5044 34.4239 23.0762C34.4751 23.2101 34.4996 23.3549 34.5509 23.5426C31.3421 23.0283 28.1496 22.8058 24.9595 22.8286ZM37.0231 29.0879C36.6606 30.186 35.4297 30.8032 34.3842 30.4013C34.2723 30.3582 34.1604 30.314 34.0474 30.2721C33.6091 30.0257 33.2676 29.625 33.0916 29.137C33.0823 28.7147 33.024 28.2817 33.1021 27.875C33.1802 27.4719 33.369 27.131 33.6301 26.8667C33.7583 26.7423 33.8994 26.6323 34.052 26.5425C34.5101 26.2806 35.0777 26.1993 35.6465 26.3548C35.6885 26.3667 35.7281 26.3811 35.7689 26.3954C36.5603 26.7004 37.128 27.4875 37.1291 28.4073C37.1303 28.6465 37.0918 28.875 37.0231 29.0879Z" fill="#242E69"/>
<path d="M13.1763 19.6918C13.0504 20.0423 12.9549 20.2959 12.8698 20.5542C12.7462 20.925 12.5119 21.01 12.1261 21.0542C11.407 21.1356 10.6552 21.2528 10.0025 21.5518C8.94298 22.0374 8.58516 22.9405 8.81128 24.1905C7.50818 24.1905 6.21673 24.2001 4.92646 24.1857C4.46373 24.1797 3.99167 24.1642 3.54293 24.0649C2.05567 23.736 0.978694 22.4681 0.895939 20.9083C0.841158 19.8748 0.792204 18.8246 0.911092 17.8031C0.997343 17.0687 1.36566 16.3702 1.61626 15.6333C1.39597 15.5305 1.00783 15.4025 0.676814 15.1848C-0.236988 14.5855 -0.219504 13.6346 0.693131 13.0222C1.39597 12.5497 2.29928 12.4349 3.64084 12.6693C3.92757 11.9385 4.22246 11.1921 4.51268 10.4433C4.8134 9.66703 5.10828 8.88835 5.40317 8.10966C5.94982 6.66473 6.99766 5.92433 8.48725 5.91715C13.111 5.89801 17.7348 5.89682 22.3574 5.91715C23.847 5.92433 24.8879 6.6755 25.4369 8.11804C26.0138 9.63354 26.5989 11.1443 27.1759 12.6442C29.6107 12.3894 30.8975 12.9935 30.774 14.3941C30.5572 14.3941 30.3311 14.3941 30.1049 14.3941C26.2388 14.3941 22.3738 14.3941 18.5076 14.3941C16.166 14.3941 14.878 15.296 14.0202 17.5328C13.7886 18.1357 13.355 18.4371 12.7194 18.4371C11.8837 18.4371 11.0492 18.4443 10.2134 18.4347C9.79385 18.4299 9.45001 18.5531 9.43019 19.0304C9.40804 19.5543 9.77636 19.6894 10.2123 19.6906C11.1634 19.693 12.1145 19.6906 13.1763 19.6906V19.6918ZM25.0114 14.2279C24.9998 14.1178 25.0056 14.058 24.987 14.0066C24.3319 12.2866 23.6769 10.5653 23.0172 8.84648C22.7724 8.21014 22.2898 7.95775 21.643 7.95895C17.4901 7.96254 13.3372 7.96254 9.18309 7.95895C8.47676 7.95895 8.02103 8.28071 7.76926 8.9649C7.34034 10.1359 6.8811 11.295 6.43703 12.4588C6.22956 13.003 6.02675 13.5497 5.78314 14.1956C12.2543 13.1585 18.6253 13.3116 25.0114 14.2255V14.2279ZM5.32042 21.193C6.465 21.1882 7.39628 20.2385 7.40211 19.0686C7.40794 17.9144 6.465 16.9347 5.33324 16.9204C4.18166 16.9048 3.21658 17.8976 3.2294 19.0842C3.24222 20.2552 4.177 21.199 5.31925 21.1942L5.32042 21.193Z" fill="#242E69"/>
<path d="M31.6973 14.1547V13.8078C31.8884 13.797 32.0586 13.7815 32.2287 13.7803C32.6169 13.7755 33.0062 13.7767 33.3943 13.7791C33.8127 13.7815 34.082 13.5793 34.0797 13.1463C34.0762 12.7432 33.8092 12.5447 33.4246 12.5399C32.7253 12.5315 32.0259 12.5495 31.3266 12.5255C31.1086 12.5184 30.8674 12.4526 30.682 12.3365C29.9303 11.8629 29.119 11.6775 28.2437 11.6667C28.0234 11.6643 27.6807 11.516 27.6061 11.3414C27.0979 10.1428 26.6457 8.91799 26.1305 7.5855C30.2112 7.44316 34.1741 7.79004 38.2151 8.32112C38.1137 8.02688 38.0472 7.81157 37.9668 7.60105C37.3875 6.08316 36.7989 4.56885 36.2266 3.04737C35.9807 2.39309 35.5413 2.05458 34.8583 2.05458C30.682 2.05458 26.5047 2.05458 22.3285 2.05458C21.6454 2.05458 21.1932 2.38232 20.9531 3.0378C20.748 3.5964 20.5475 4.15738 20.3027 4.69803C20.2328 4.85114 20.0218 5.02936 19.8691 5.03654C19.115 5.07123 18.3585 5.05209 17.4844 5.05209C18.0951 3.67773 18.3247 2.21606 19.2444 1.07614C19.8178 0.363247 20.6151 0.0163677 21.5079 0.0139755C26.2284 0.000817999 30.949 -0.0123395 35.6695 0.0211523C37.0355 0.0307213 38.0239 0.769932 38.5508 2.07013C39.1161 3.46482 39.6557 4.87267 40.1627 6.29009C40.3131 6.71113 40.5101 6.78888 40.8924 6.69199C41.6826 6.49224 42.4344 6.6573 43.1477 7.02452C43.621 7.26853 43.9986 7.62976 44.0009 8.21108C44.0021 8.7924 43.6221 9.15244 43.1501 9.39884C42.861 9.54955 42.5486 9.65123 42.2025 9.79237C43.1128 10.6835 43.192 11.8425 43.1489 13.0435C43.1291 13.5817 43.1571 14.12 43.1419 14.6582C43.0848 16.7945 41.6278 18.2706 39.538 18.3017C38.5857 18.316 37.6335 18.2825 36.6824 18.3148C36.2954 18.328 36.1264 18.1677 36.0168 17.8232C35.6811 16.7634 35.2347 15.7348 34.2417 15.1845C33.4771 14.7611 32.618 14.5195 31.6984 14.1571L31.6973 14.1547ZM40.7781 13.1619C40.7781 11.9897 39.8562 11.034 38.7139 11.0232C37.5484 11.0124 36.5856 11.9992 36.6054 13.1846C36.6252 14.3449 37.5833 15.3101 38.7069 15.3006C39.841 15.2922 40.777 14.3245 40.777 13.1619H40.7781Z" fill="#242E69"/>
<path d="M12.0224 33.5469C13.9875 34.444 15.9701 33.8172 17.9096 34.1031C17.9096 34.755 17.9376 35.3913 17.9015 36.0241C17.8712 36.5671 17.4166 36.9702 16.814 36.9822C15.5913 37.0061 14.3675 37.0085 13.1448 36.9822C12.4455 36.9678 12.0422 36.5181 12.0259 35.798C12.0095 35.0684 12.0224 34.3375 12.0224 33.5469Z" fill="#242E69"/>
<path d="M2.48124 24.2109C4.42307 25.0781 6.3952 24.4609 8.35452 24.7372C8.35452 25.3951 8.40347 26.0685 8.33936 26.73C8.28458 27.2982 7.85332 27.6068 7.32532 27.6211C6.06652 27.6558 4.80654 27.651 3.54773 27.6259C2.96146 27.6139 2.52087 27.2061 2.49057 26.6355C2.44861 25.8472 2.48008 25.0554 2.48008 24.2121L2.48124 24.2109Z" fill="#242E69"/>
<path d="M37.8738 33.5735C37.8738 34.4359 37.9076 35.2672 37.8609 36.0925C37.8318 36.6104 37.3702 36.9717 36.7875 36.9812C35.5671 37.0016 34.3444 37.0076 33.1241 36.9789C32.4294 36.9633 32.0308 36.5004 32.0191 35.7899C32.011 35.2923 32.0191 34.7947 32.0226 34.2971C32.0226 34.2385 32.0424 34.1811 32.0588 34.095C33.9726 33.8151 35.9669 34.4407 37.8749 33.5723L37.8738 33.5735Z" fill="#242E69"/>
<path d="M28.6828 33.4951H21.25V31.8672H28.6828V33.4951Z" fill="#242E69"/>
<path d="M41.5166 18.2676C41.5166 19.1778 41.5737 19.99 41.5003 20.7902C41.4292 21.5701 40.6855 21.8416 39.971 21.5665C39.2799 21.301 38.5351 21.1431 37.7996 21.0534C37.415 21.0067 37.1912 20.9182 37.0606 20.5498C36.8648 19.9948 36.6504 19.4482 36.4277 18.8573C38.1236 18.6109 39.8487 19.1802 41.5166 18.2676Z" fill="#242E69"/>
</g>
<defs>
<clipPath id="clip0_264_2821">
<rect width="44" height="37" fill="white"/>
</clipPath>
</defs>
</svg>
