<svg width="43" height="30" viewBox="0 0 43 30" fill="none" xmlns="http://www.w3.org/2000/svg">
<g clip-path="url(#clip0_264_2817)">
<path d="M32.9324 28.497C25.3064 26.9605 17.7103 26.9618 10.0783 28.517C10.0495 28.626 10.0184 28.755 9.98256 28.8827C9.79714 29.5414 9.29113 29.9834 8.64038 29.9897C6.93933 30.0035 5.23827 30.0072 3.53722 29.9884C2.78479 29.9797 2.32065 29.4612 2.11848 28.482C1.34811 28.3229 1.01675 27.7419 0.836115 26.9906C0.19852 24.337 -0.140016 21.6472 0.054971 18.9161C0.181772 17.1454 0.41145 15.381 0.639932 13.6203C0.79305 12.4432 1.43184 11.5905 2.43668 11.037C2.66038 10.9143 2.8757 10.7727 3.09701 10.645C3.40205 10.4672 3.44272 10.2506 3.21783 9.9638C2.83025 9.47042 2.75369 8.92193 3.02762 8.34715C3.30874 7.7586 3.78963 7.49437 4.41048 7.49437C4.81361 7.49437 5.21913 7.46682 5.61868 7.50314C5.94764 7.53319 6.08641 7.38668 6.2168 7.09491C6.7874 5.82012 7.42978 4.59167 8.32936 3.52601C9.48851 2.15481 11.0041 1.46107 12.6466 1.03405C16.2233 0.102381 19.8611 -0.121771 23.53 0.0560477C25.798 0.166245 28.0386 0.458018 30.2576 0.991474C33.0592 1.66518 35.0414 3.34694 36.2867 6.02925C36.3847 6.23963 36.5295 6.43623 36.5833 6.65662C36.7663 7.40546 37.2329 7.60332 37.91 7.50064C38.1875 7.45806 38.477 7.47684 38.7593 7.50064C39.3215 7.54947 39.7462 7.83624 39.9902 8.37721C40.2283 8.90315 40.1673 9.4078 39.855 9.88366C39.538 10.3658 39.5536 10.4346 40.056 10.7289C40.251 10.8429 40.4412 10.9681 40.6374 11.0795C41.5896 11.6218 42.1602 12.4508 42.3647 13.564C43.2069 18.1297 43.2966 22.6791 42.1076 27.2047C41.9496 27.8045 41.6482 28.2403 41.0632 28.4407C40.9687 28.4732 40.8706 28.611 40.8407 28.7199C40.6039 29.5965 40.1266 29.9947 39.2569 29.9959C37.7353 29.9997 36.2125 29.9972 34.6909 29.9959C33.6334 29.9959 33.1693 29.6077 32.9324 28.4983V28.497ZM21.4497 9.61693V9.69832C22.2859 9.69832 23.122 9.67704 23.957 9.70208C27.1629 9.7985 30.3689 9.91246 33.5748 10.0126C34.399 10.0389 34.7184 9.5205 34.3655 8.73785C34.1239 8.20189 33.8535 7.68096 33.6047 7.14876C32.7817 5.3881 31.4419 4.36001 29.6212 3.91546C27.6079 3.42458 25.5743 3.16036 23.5156 3.05392C20.208 2.88236 16.9255 3.07145 13.6909 3.85035C12.3571 4.17092 11.0388 4.59668 10.2146 5.8627C9.68828 6.67165 9.2684 7.55448 8.7911 8.39849C8.16906 9.49922 8.53631 10.084 9.7768 10.0277C13.667 9.85235 17.5595 9.74967 21.4521 9.61818L21.4497 9.61693ZM21.5478 23.905C24.1568 23.905 26.767 23.9401 29.376 23.8762C29.9143 23.8624 30.5064 23.5719 30.9658 23.2438C31.784 22.6603 31.7254 21.7236 30.8677 21.1952C30.3988 20.9072 29.8748 20.6817 29.3485 20.5365C24.286 19.1402 19.202 19.1941 14.1203 20.4012C13.3811 20.5766 12.6526 20.9322 12.003 21.3479C11.2888 21.805 11.2936 22.51 11.9025 23.1086C12.3978 23.5957 12.9971 23.8925 13.6742 23.8975C16.2987 23.9163 18.9232 23.905 21.5478 23.905ZM6.24072 16.5168C7.45371 16.4078 8.52434 16.3227 9.59139 16.2025C9.7457 16.1849 9.9682 16.0184 10.0041 15.8769C10.04 15.7354 9.91318 15.5112 9.80193 15.3747C9.69068 15.2382 9.51124 15.1606 9.35693 15.0667C8.10327 14.3053 6.71563 13.9209 5.32201 13.5966C4.73825 13.4601 4.11142 13.4889 3.50732 13.5139C3.31951 13.5214 3.02284 13.7305 2.97619 13.9059C2.71062 14.8976 2.83024 16.1925 4.24181 16.3928C4.94759 16.493 5.66653 16.483 6.24192 16.5155L6.24072 16.5168ZM36.3501 16.4792C37.1743 16.4792 37.7556 16.4855 38.337 16.4755C38.4997 16.473 38.6624 16.4304 38.8227 16.3941C39.6876 16.2 40.0716 15.7341 40.1218 14.81C40.1338 14.5921 40.129 14.3729 40.117 14.1551C40.0943 13.7431 39.9196 13.5102 39.4878 13.4651C38.5129 13.3624 37.5918 13.6153 36.6695 13.8695C35.4565 14.2051 34.2519 14.5746 33.2219 15.3622C33.0771 15.4724 32.9838 15.7479 32.9886 15.9433C32.991 16.0409 33.2638 16.1962 33.4253 16.2137C34.4779 16.3264 35.5342 16.4091 36.3501 16.4817V16.4792Z" fill="#242E69"/>
</g>
<defs>
<clipPath id="clip0_264_2817">
<rect width="43" height="30" fill="white"/>
</clipPath>
</defs>
</svg>
