<svg width="42" height="41" viewBox="0 0 42 41" fill="none" xmlns="http://www.w3.org/2000/svg">
<g clip-path="url(#clip0_264_2810)">
<path d="M41.9623 33.9113H39.1041V37.4382H41.8862C42.5107 39.665 40.5187 41.3063 37.6424 40.9509C37.5748 39.867 37.158 38.9353 36.275 38.2387C35.5804 37.6908 34.7782 37.4358 33.8855 37.4582C31.9986 37.5078 30.6481 38.8456 30.3654 40.9674H10.1542C10.0854 39.8693 9.66981 38.9365 8.78676 38.2399C8.07887 37.6814 7.26105 37.4264 6.35262 37.4594C4.48625 37.5279 3.14536 38.8716 2.87719 40.9733C2.32875 40.9733 1.77065 41.0182 1.22342 40.9615C0.543316 40.8918 0.0238728 40.2967 0.0178328 39.6166C0.00333671 38.0108 -0.0111594 36.405 0.0226648 34.7992C0.050449 33.4827 1.09779 32.3598 2.45197 32.1638C4.83416 31.8178 7.22239 31.505 9.60458 31.1602C9.92229 31.1141 10.2509 31.0102 10.5287 30.8544C12.5123 29.7397 14.4886 28.611 16.4588 27.4763C18.0135 26.5801 19.683 26.129 21.4902 26.1349C24.3386 26.1444 27.1859 26.129 30.0344 26.1373C31.4152 26.1409 32.6811 26.5222 33.7756 27.3617C34.9727 28.2804 36.1481 29.2238 37.3477 30.1388C37.5204 30.2699 37.7669 30.349 37.9879 30.3703C38.3914 30.408 38.8009 30.3703 39.2068 30.3856C40.6769 30.4435 41.885 31.6136 41.9599 33.0505C41.9731 33.315 41.9623 33.5807 41.9623 33.9089V33.9113ZM12.3564 37.4535C15.7388 37.4535 19.0947 37.4606 22.4505 37.4488C23.2937 37.4453 23.8772 36.8124 23.8796 35.9457C23.8844 33.7236 23.882 31.5014 23.8796 29.2793C23.8796 29.1824 23.8567 29.0844 23.8434 28.9675C23.0521 28.9675 22.2838 29.0053 21.5204 28.9581C20.5226 28.8955 19.6757 29.2072 18.9558 29.8425C17.6608 30.9866 16.1737 31.8426 14.6734 32.6869C12.8892 33.6917 12.0593 35.3967 12.3564 37.4535ZM26.7752 28.9734C26.7752 30.0774 26.7752 31.1354 26.7752 32.1933C26.7752 33.5925 26.7728 34.9917 26.7752 36.392C26.7752 36.9493 27.0035 37.287 27.4505 37.4169C27.8636 37.5362 28.2212 37.3732 28.5582 36.9316C28.7648 36.6612 28.975 36.3885 29.213 36.1441C30.1927 35.1334 31.3765 34.5796 32.8285 34.6221C33.5666 34.6434 34.3047 34.6268 35.0428 34.6245C35.1721 34.6245 35.3025 34.6079 35.4547 34.5985C35.4547 33.9928 35.4414 33.4201 35.4608 32.8475C35.4692 32.5924 35.3641 32.4708 35.1576 32.3244C34.318 31.7317 33.4748 31.1366 32.6872 30.4801C32.1158 30.0031 31.5154 29.6134 30.8051 29.3796C29.5125 28.9546 28.1837 28.8955 26.7752 28.9734Z" fill="#242E69"/>
<path d="M41.9957 0C41.9619 0.676564 41.9957 1.33187 41.8822 1.96121C41.6418 3.27183 40.493 4.1751 39.1328 4.2117C38.9975 4.21524 38.8622 4.21406 38.7257 4.21406C26.8993 4.21406 15.0729 4.21406 3.24527 4.21406C1.16146 4.21406 0.00902051 3.08291 0.0078125 1.03905C0.0078125 0.70254 0.0078125 0.364849 0.0078125 0L41.9957 0Z" fill="#242E69"/>
<path d="M7.96606 8.45651C7.68701 8.45651 7.44903 8.46478 7.21347 8.45533C6.42464 8.42227 5.82547 7.8378 5.8001 7.06678C5.78561 6.61102 5.79769 6.15525 5.79769 5.66406H13.0047C13.0047 6.20602 13.0578 6.76569 12.9914 7.31001C12.9116 7.9606 12.3125 8.42109 11.6324 8.45415C11.3944 8.46596 11.1552 8.45651 10.8629 8.45651C10.8629 9.15905 10.8532 9.83207 10.8725 10.5027C10.8749 10.609 10.9873 10.7342 11.0827 10.8109C12.3246 11.8145 13.5664 12.8182 14.8263 13.8017C14.9568 13.9033 15.2093 13.9292 15.382 13.8903C16.2747 13.6848 17.1844 14.0355 17.6434 14.7947C18.1025 15.5528 18.0372 16.5824 17.3535 17.1515C16.0851 18.2059 14.7514 19.1847 13.4009 20.2285C13.0228 19.056 12.2956 18.2555 11.1528 17.7903C11.6553 17.2696 12.1361 16.7713 12.6531 16.2364C11.9307 15.8066 11.253 15.404 10.5754 15.0014C9.82881 14.5586 9.07984 14.1205 8.33692 13.673C7.09992 12.9292 6.88852 11.6481 7.81144 10.5547C7.88271 10.4709 7.95881 10.3575 7.96123 10.256C7.97573 9.67149 7.96848 9.08585 7.96848 8.45651H7.96606Z" fill="#242E69"/>
<path d="M12.0392 21.131C12.0271 22.2905 11.0607 23.2232 9.87206 23.2209C8.67613 23.2173 7.68798 22.2385 7.70731 21.0755C7.72664 19.9243 8.70754 18.9808 9.88535 18.9844C11.0885 18.9879 12.0513 19.9479 12.0392 21.131Z" fill="#242E69"/>
<path d="M6.6156 22.7824C6.99854 23.2169 7.28967 23.5475 7.5808 23.8782L7.48778 23.8935C7.52764 24.1167 7.52281 24.3599 7.61583 24.5594C7.90817 25.1876 8.24278 25.7969 8.55203 26.4179C8.78639 26.889 8.68129 27.2775 8.28144 27.4723C7.88159 27.6672 7.50469 27.5148 7.25947 27.0414C6.83183 26.216 6.41024 25.386 5.98864 24.5571C5.69026 23.9714 5.73013 23.7967 6.20488 23.3126C6.3595 23.1555 6.47668 22.9643 6.6156 22.7812V22.7824Z" fill="#242E69"/>
<path d="M12.9936 22.9102C13.1748 23.1132 13.3016 23.2785 13.4526 23.4214C13.7776 23.7296 13.8235 24.0602 13.6157 24.4557C13.1639 25.3165 12.7327 26.1879 12.2857 27.0498C12.0441 27.5162 11.6587 27.6674 11.2625 27.4702C10.8639 27.2718 10.7624 26.8892 10.9992 26.4158C11.3277 25.7569 11.788 25.1335 11.9668 24.4392C12.1323 23.7981 12.6481 23.4958 12.9948 22.9102H12.9936Z" fill="#242E69"/>
</g>
<defs>
<clipPath id="clip0_264_2810">
<rect width="42" height="41" fill="white"/>
</clipPath>
</defs>
</svg>
