<svg width="37" height="37" viewBox="0 0 37 37" fill="none" xmlns="http://www.w3.org/2000/svg">
<g clip-path="url(#clip0_264_2843)">
<path d="M0.0562576 36.7806C0.0562576 33.5508 -0.0702196 30.3643 0.12311 27.1976C0.193576 26.0621 1.00845 24.9591 1.55411 23.8759C1.63361 23.7173 2.13771 23.6542 2.3997 23.7227C7.56539 25.0673 12.8268 25.6494 18.1335 25.2403C21.5357 24.9789 24.9072 24.2959 28.2824 23.7407C28.8985 23.6398 29.2309 23.6759 29.6049 24.231C30.4397 25.471 30.8661 26.7813 30.8462 28.2826C30.8065 31.0997 30.8354 33.9185 30.8354 36.8815C29.8669 36.8815 28.9491 36.8941 28.033 36.8689C27.8885 36.8653 27.7331 36.7085 27.6138 36.5932C27.5325 36.5157 27.4783 36.3895 27.4512 36.2759C26.9218 34.0393 25.4222 33.7076 23.319 33.7599C17.3963 33.9077 11.4663 33.823 5.53814 33.7959C4.87323 33.7923 4.44321 33.9473 4.24807 34.5962C4.22278 34.6809 4.16857 34.7566 4.12702 34.8377C2.96704 37.1537 2.79178 37.2402 0.0562576 36.7824V36.7806ZM19.9981 28.5079H10.8664V30.6851H19.9981V28.5079ZM7.65031 28.4899H3.91923V30.6509H7.65212V28.4899H7.65031ZM26.9182 30.6905V28.5151H23.2305V30.6905H26.9182Z" fill="#242E69"/>
<path d="M27.8721 0.000770925C33.0052 0.0674571 37.0507 4.19299 37.0001 9.30439C36.9477 14.4464 32.7812 18.4999 27.6047 18.444C22.5076 18.3899 18.4297 14.149 18.511 8.99079C18.5905 3.97491 22.7967 -0.0641129 27.8721 0.000770925ZM23.1942 10.3732H26.6254V13.7435H28.9634V10.3335H32.3403V8.03555H28.8893V4.63816H26.62V8.07881H23.196V10.375L23.1942 10.3732Z" fill="#242E69"/>
<path d="M0.0162182 18.4397C1.19788 18.4397 2.27835 18.382 3.3498 18.4595C4.09963 18.5136 4.40317 18.227 4.6218 17.5511C4.99942 16.3832 5.4457 15.2352 5.93716 14.1105C6.0799 13.7843 6.44668 13.3752 6.75565 13.3319C9.57789 12.9498 12.4092 12.6272 15.2423 12.3316C15.4699 12.3082 15.8801 12.5587 15.9523 12.7678C17.8079 18.0937 21.6185 20.9125 27.1871 21.7127C25.561 22.0047 23.9439 22.3471 22.3087 22.5814C14.9893 23.6268 7.79818 22.9131 0.702809 20.9467C0.171605 20.7989 -0.0434067 20.5701 0.00718415 20.0221C0.0505478 19.5481 0.0162182 19.0651 0.0162182 18.4379V18.4397Z" fill="#242E69"/>
</g>
<defs>
<clipPath id="clip0_264_2843">
<rect width="37" height="37" fill="white"/>
</clipPath>
</defs>
</svg>
