<svg width="41" height="41" viewBox="0 0 41 41" fill="none" xmlns="http://www.w3.org/2000/svg">
<g clip-path="url(#clip0_264_2830)">
<path d="M0 15.1353H4.47127V13.5628H13.0646C13.0646 13.0966 13.0823 12.673 13.0502 12.2534C13.0437 12.1643 12.8695 12.0528 12.7523 12.0127C11.2729 11.5152 10.2317 10.5484 9.64092 9.10823C9.33829 8.37008 9.2532 7.59342 9.30216 6.77344H19.2337C19.3236 8.00582 19.0587 9.12507 18.3499 10.136C17.6386 11.1502 16.6601 11.776 15.4857 12.1114V13.5379H22.7103V23.807C22.2777 23.807 21.8434 23.8286 21.4115 23.7997C21.1113 23.7797 20.9973 23.9032 20.9082 24.1704C20.3888 25.7245 19.8454 27.2706 19.3276 28.8247C19.2425 29.0807 19.1341 29.1738 18.8548 29.1714C17.1995 29.1569 15.5435 29.1698 13.8882 29.1585C13.6321 29.1569 13.5222 29.2363 13.4387 29.4827C12.9233 30.9959 12.3871 32.5018 11.8573 34.0102C11.8003 34.1731 11.7393 34.3344 11.6719 34.5205H9.3126C9.25079 35.4817 9.46271 36.3378 10.0246 37.0896C10.8201 38.1527 11.9135 38.6004 13.2219 38.6004C21.2461 38.5972 29.2703 38.5988 37.2945 38.5988C38.5203 38.5988 39.7461 38.5988 40.9952 38.5988V41.0009H40.589C31.4434 41.0009 22.2969 41.0034 13.1513 40.9993C10.0824 40.9985 7.63166 39.0465 7.01997 36.1091C6.91481 35.6053 6.90036 35.0829 6.84096 34.5349H3.13711C4.3926 30.9461 5.62802 27.4142 6.8835 23.827H4.50177V22.2625H0V15.1353ZM18.4968 23.8078C17.9108 23.8078 17.4082 23.8038 16.9057 23.8086C16.4281 23.8134 15.8236 23.6529 15.5074 23.884C15.1758 24.1255 15.114 24.7433 14.9462 25.2014C14.7624 25.7045 14.5938 26.2132 14.4036 26.7611C15.4134 26.7611 16.3583 26.7652 17.3015 26.7539C17.3818 26.7531 17.5086 26.6721 17.5343 26.5999C17.8538 25.7013 18.158 24.797 18.496 23.8078H18.4968Z" fill="#242E69"/>
<path d="M19.2277 0V4.31093H9.29297V0H19.2277Z" fill="#242E69"/>
<path d="M33.2358 17.4912V19.8982H30.0433V23.7863H25.1738V13.5742H30.0272V17.4904H33.235L33.2358 17.4912Z" fill="#242E69"/>
<path d="M41.0002 17.498V19.8569H37.5332V17.498H41.0002Z" fill="#242E69"/>
<path d="M40.704 22.8124C40.4551 23.5874 40.2215 24.3176 39.9703 25.099C38.8545 24.742 37.7627 24.393 36.6309 24.0311C36.8789 23.2569 37.1165 22.5179 37.3638 21.7461C38.4828 22.1031 39.5681 22.4497 40.704 22.8116V22.8124Z" fill="#242E69"/>
<path d="M40.6993 14.5491C39.581 14.9077 38.4933 15.2567 37.3631 15.6186C37.1198 14.8628 36.8806 14.1222 36.627 13.3351C37.7468 12.9765 38.8401 12.6259 39.9647 12.2656C40.2104 13.0286 40.4456 13.7604 40.6993 14.5491Z" fill="#242E69"/>
<path d="M33.6855 14.2757C34.4032 14.0462 35.0711 13.8328 35.7654 13.6113C36.0095 14.3719 36.2447 15.1037 36.4983 15.8924C35.7992 16.1178 35.1249 16.3344 34.4193 16.5615C34.1728 15.7929 33.9376 15.0611 33.6855 14.2757Z" fill="#242E69"/>
<path d="M36.4966 21.4671C36.2502 22.2373 36.0174 22.9674 35.7677 23.7497C35.079 23.5307 34.4135 23.3197 33.6895 23.0902C33.9303 22.3296 34.1647 21.5898 34.4143 20.8027C35.1111 21.0258 35.7862 21.2408 36.4958 21.4679L36.4966 21.4671Z" fill="#242E69"/>
<path d="M36.5982 17.502V19.8416H34.4629V17.502H36.5982Z" fill="#242E69"/>
</g>
<defs>
<clipPath id="clip0_264_2830">
<rect width="41" height="41" fill="white"/>
</clipPath>
</defs>
</svg>
