<svg width="19" height="20" viewBox="0 0 19 20" fill="none" xmlns="http://www.w3.org/2000/svg">
<path d="M5.65343 0.904297H13.5127C13.5127 2.2305 13.5127 3.55687 13.5127 4.88339C13.5127 5.32293 13.7123 5.52324 14.1517 5.52324H18.1358V5.72403C18.1358 9.61373 18.1358 13.5037 18.1358 17.3941C18.1358 18.4203 17.4597 19.0953 16.4326 19.0958H8.18039C9.63273 18.0092 10.4489 16.5986 10.6508 14.8323H11.3578C12.5904 14.8323 13.8231 14.8323 15.0558 14.8323C15.3048 14.8323 15.4967 14.7402 15.6012 14.5105C15.767 14.146 15.4953 13.7667 15.0691 13.7662C13.6641 13.7643 12.2595 13.7643 10.8551 13.7662H10.6437C10.5762 13.0068 10.362 12.3133 10.0337 11.6345H15.0772C15.3204 11.6345 15.5048 11.5325 15.6026 11.3108C15.7665 10.9453 15.4934 10.5694 15.0653 10.5694C13.234 10.5694 11.4027 10.5703 9.57144 10.5722C9.49411 10.5763 9.41692 10.562 9.34617 10.5306C9.27541 10.4991 9.21309 10.4515 9.1643 10.3914C8.13764 9.26264 6.86584 8.60618 5.34035 8.4709C4.99069 8.43957 4.63532 8.46615 4.28043 8.46615C4.27473 8.41868 4.26951 8.394 4.26951 8.37122C4.26951 6.39947 4.26475 4.42772 4.2733 2.45597C4.2733 1.96089 4.48377 1.53655 4.89091 1.25412C5.11515 1.09654 5.39641 1.01822 5.65343 0.904297ZM11.2195 7.3711C9.91683 7.3711 8.61399 7.3711 7.31099 7.3711C7.17608 7.3665 7.04436 7.41276 6.942 7.50069C6.83965 7.58862 6.77413 7.7118 6.75847 7.84577C6.74499 7.97658 6.78029 8.10776 6.85761 8.21418C6.93493 8.3206 7.04883 8.39477 7.17749 8.42248C7.25323 8.43556 7.33018 8.44033 7.40696 8.43672H15.0819C15.3195 8.43672 15.4953 8.33657 15.5955 8.12297C15.7656 7.7589 15.5005 7.37253 15.0729 7.37158C13.7892 7.36905 12.5048 7.36889 11.2195 7.3711Z" fill="#242E69"/>
<path d="M0 14.2941C0.00276902 13.0211 0.511096 11.8012 1.41334 10.9023C2.31558 10.0035 3.53799 9.49912 4.81213 9.5C6.08314 9.50489 7.30049 10.0124 8.19798 10.9116C9.09548 11.8108 9.60008 13.0285 9.60145 14.2984C9.59868 15.5713 9.09043 16.7911 8.18829 17.6899C7.28615 18.5888 6.06386 19.0932 4.7898 19.0925C3.51895 19.0869 2.30191 18.5792 1.40448 17.6802C0.507043 16.7811 0.0021216 15.5638 0 14.2941ZM5.34613 16.5834C5.83689 16.4362 6.14617 16.1239 6.20888 15.6213C6.24095 15.3328 6.24095 15.0416 6.20888 14.7531C6.18709 14.5178 6.08815 14.2963 5.92741 14.123C5.76667 13.9497 5.55314 13.8343 5.32 13.7947C5.09749 13.7621 4.87214 13.7532 4.64775 13.7682C4.48195 13.7748 4.43681 13.7207 4.43966 13.5588C4.44822 13.0519 4.43966 13.0548 4.95085 13.051C5.07913 13.051 5.14707 13.0633 5.17225 13.2199C5.19544 13.3497 5.2674 13.4656 5.37339 13.5441C5.47938 13.6225 5.61137 13.6575 5.74235 13.6419C5.8761 13.6267 5.99923 13.5618 6.08726 13.46C6.17528 13.3583 6.22175 13.2271 6.21743 13.0927C6.2141 12.8222 6.13429 12.5677 5.93951 12.3807C5.76848 12.2189 5.55564 12.1016 5.3352 11.9455C5.2991 11.4983 5.13994 11.2809 4.80785 11.2748C4.47577 11.2686 4.31662 11.4718 4.24821 12.0053C3.61445 12.2369 3.37358 12.5825 3.37358 13.2617C3.37358 13.4155 3.37358 13.5693 3.37358 13.7231C3.37892 14.0135 3.49656 14.2905 3.70186 14.4962C3.90716 14.7018 4.18417 14.8201 4.47482 14.8262C4.65868 14.8309 4.84254 14.83 5.02592 14.8262C5.11761 14.8262 5.15372 14.8604 5.15134 14.952C5.14691 15.1058 5.14691 15.2596 5.15134 15.4133C5.15134 15.5054 5.11619 15.541 5.02497 15.5387C4.87722 15.5344 4.72852 15.5344 4.58077 15.5387C4.4886 15.5415 4.44584 15.5168 4.43207 15.4138C4.42252 15.3126 4.38284 15.2166 4.31814 15.1382C4.25344 15.0598 4.1667 15.0025 4.0691 14.9738C3.66813 14.8414 3.30896 15.1836 3.3826 15.6303C3.46622 16.1301 3.76932 16.4372 4.24726 16.5796C4.30997 17.1107 4.47245 17.3215 4.80928 17.312C5.14612 17.3025 5.30004 17.097 5.34613 16.5843V16.5834Z" fill="#242E69"/>
<path d="M14.5881 4.44428V1.29395L17.7412 4.44428H14.5881Z" fill="#242E69"/>
</svg>
