<svg width="19" height="20" viewBox="0 0 19 20" fill="none" xmlns="http://www.w3.org/2000/svg">
<path d="M5.13523 0.904297H13.3499C13.3693 0.916737 13.39 0.927081 13.4117 0.935151C14.0293 1.09986 14.3927 1.5413 14.3946 2.18209C14.4013 4.27868 14.3946 6.37479 14.3994 8.4709C14.3994 8.63134 14.3405 8.68972 14.1784 8.68687C13.7034 8.67927 13.2283 8.69494 12.756 8.6807C12.3674 8.6693 12.0434 8.80743 11.7337 9.02483C11.6488 9.08378 11.5486 9.11677 11.4453 9.11976C10.5562 9.12356 9.66737 9.12119 8.77864 9.11265C8.24417 9.10837 8.30356 9.18479 8.30356 8.6432C8.30356 8.4296 8.2836 8.40872 8.07077 8.40872C7.47216 8.40872 6.87356 8.40872 6.27495 8.40872C5.9994 8.40872 5.99418 8.41394 5.99418 8.68545C5.99418 10.6097 5.99418 12.5342 5.99418 14.4588C5.99418 14.5005 5.99418 14.5418 5.99418 14.5831C5.99418 14.6842 6.04168 14.7402 6.14288 14.7402C6.81275 14.7402 7.48246 14.7402 8.15201 14.7402C8.26413 14.7402 8.30831 14.6804 8.30451 14.5698C8.29595 14.4221 8.29738 14.274 8.30878 14.1265C8.31444 14.0952 8.32741 14.0657 8.34665 14.0404C8.36588 14.0151 8.39084 13.9946 8.41948 13.9808C8.62234 13.9243 8.71878 13.9732 8.82472 14.155C9.18009 14.763 9.53118 15.3734 9.89224 15.9782C10.212 16.5136 10.7094 16.6835 11.289 16.4694C11.4085 16.4181 11.531 16.3739 11.6558 16.337C11.7381 16.3152 11.8252 16.3185 11.9056 16.3465C12.0077 16.3945 12.1194 16.4186 12.2322 16.4169C12.345 16.4153 12.4559 16.3879 12.5565 16.337C12.7532 16.2421 12.9494 16.1433 13.1504 16.056C13.2122 16.0266 13.2821 16.0187 13.349 16.0337C13.6288 16.1286 13.8839 16.0736 14.1352 15.9388C14.3428 15.8282 14.3951 15.8619 14.3956 16.1011C14.3956 16.646 14.3956 17.1908 14.3956 17.7354C14.3956 18.5774 13.873 19.0962 13.0302 19.0962H2.1308C1.27944 19.0962 0.753052 18.5741 0.753052 17.7282C0.753052 13.6186 0.753052 9.50898 0.753052 5.39935C0.753052 5.33717 0.758274 5.27499 0.7616 5.20284H0.974437C1.80441 5.20284 2.63438 5.18718 3.46388 5.20712C4.36369 5.22848 5.11052 4.53214 5.07916 3.58946C5.05446 2.77921 5.07204 1.96707 5.07916 1.15587C5.07726 1.07186 5.1148 0.987838 5.13523 0.904297ZM8.92069 6.36292C9.77299 6.36292 10.6255 6.36292 11.4781 6.36292C11.549 6.36513 11.6199 6.35939 11.6895 6.34583C11.8187 6.3164 11.8923 6.21578 11.86 6.09759C11.8368 6.01215 11.7522 5.93003 11.6743 5.87687C11.6268 5.84222 11.5365 5.85883 11.4657 5.85883C9.78424 5.85883 8.10292 5.85883 6.42175 5.85883C6.35089 5.85714 6.28001 5.86143 6.20987 5.87164C6.07067 5.89633 6.0108 5.99031 6.01555 6.12606C6.02125 6.2865 6.12482 6.3634 6.34526 6.3634C7.2039 6.36498 8.06237 6.36529 8.92069 6.36435V6.36292ZM10.2742 4.00907C10.7122 4.00907 11.1503 4.01192 11.5878 4.00907C11.7731 4.00907 11.8691 3.91414 11.8686 3.76082C11.8681 3.6075 11.7702 3.51827 11.5869 3.51115C11.4629 3.5064 11.3384 3.51115 11.2139 3.51115C10.4742 3.51115 9.73499 3.51115 8.99528 3.51115C8.79337 3.51115 8.69455 3.59421 8.6898 3.7537C8.68505 3.91319 8.78482 4.00859 8.97866 4.01002C9.41051 4.01287 9.84235 4.01049 10.2742 4.01049V4.00907Z" fill="#242E69"/>
<path d="M8.30034 11.5318C8.30034 10.9695 8.30034 10.407 8.30034 9.84436C8.30034 9.62791 8.31839 9.61083 8.5336 9.61035C9.29849 9.61035 10.0629 9.61035 10.8273 9.61367C10.9005 9.61367 10.9736 9.66114 11.0468 9.68582C11.0211 9.75844 11.0121 9.84388 10.9675 9.90226C10.6016 10.3831 10.2339 10.8625 9.85719 11.3343C9.74174 11.4767 9.74269 11.6039 9.83106 11.7544C10.1251 12.2533 10.6971 12.549 11.1884 12.4113C11.3792 12.3521 11.5538 12.2498 11.6986 12.1123C12.0497 11.7862 12.3732 11.4302 12.7167 11.0956C12.7756 11.0381 12.8768 11.012 12.9623 11.0006C13.0479 10.9892 13.1291 11.0258 13.2094 11.0158C13.5529 10.9712 13.6982 11.1701 13.8379 11.4478C14.3382 12.4408 14.8622 13.4214 15.3777 14.4068C15.3938 14.4381 15.4123 14.469 15.4252 14.5017C15.4637 14.5877 15.5568 14.7092 15.5283 14.7547C15.4206 14.92 15.293 15.0713 15.1482 15.2052C15.1211 15.2313 15.0004 15.1924 14.9472 15.1516C14.8817 15.0918 14.8266 15.0216 14.7843 14.9437C14.4218 14.3741 14.0631 13.8045 13.6982 13.2349C13.6507 13.1642 13.5795 13.0716 13.5115 13.0649C13.4103 13.0611 13.3113 13.0949 13.2336 13.1599C13.1343 13.2472 13.1799 13.3645 13.245 13.4665C13.5617 13.9655 13.8794 14.4649 14.198 14.9645C14.3762 15.2446 14.3762 15.2446 14.074 15.4012C14.0218 15.4288 13.9686 15.4549 13.9158 15.4815C13.5932 15.6424 13.4407 15.5982 13.2607 15.2807C13.0379 14.89 12.8203 14.4965 12.6003 14.1045C12.5713 14.0527 12.5428 14.001 12.512 13.9507C12.4288 13.8168 12.3124 13.7888 12.1761 13.8591C12.1451 13.8737 12.1176 13.8949 12.0955 13.9211C12.0735 13.9474 12.0574 13.9781 12.0484 14.0112C12.0394 14.0442 12.0376 14.0788 12.0432 14.1126C12.0489 14.1465 12.0618 14.1786 12.0811 14.207C12.2711 14.5392 12.4792 14.8658 12.6626 15.2038C12.9315 15.6979 12.874 15.6125 12.4697 15.8137C12.1666 15.9642 12.0896 15.9423 11.9124 15.6452C11.7608 15.3913 11.6226 15.1297 11.4763 14.8729C11.3722 14.6907 11.2473 14.6432 11.1005 14.7248C10.9537 14.8065 10.9252 14.9361 11.0283 15.1198C11.1356 15.3096 11.244 15.4995 11.3556 15.6894C11.4321 15.8175 11.4074 15.8992 11.2606 15.9419C11.1864 15.9624 11.114 15.9887 11.0439 16.0207C10.8169 16.1279 10.6264 16.0558 10.4624 15.8954C10.3881 15.8188 10.3242 15.7328 10.2724 15.6395C9.89852 15.0016 9.52273 14.3641 9.16024 13.72C9.05097 13.5258 8.91557 13.4414 8.69086 13.447C8.26328 13.458 8.30081 13.4997 8.30034 13.0616C8.30002 12.5512 8.30002 12.0413 8.30034 11.5318Z" fill="#242E69"/>
<path d="M16.908 12.1041C16.908 12.7141 16.9047 13.324 16.9109 13.9335C16.9109 14.093 16.8596 14.1613 16.6957 14.1556C16.4581 14.1476 16.2206 14.1642 15.983 14.1476C15.9395 14.143 15.8974 14.1291 15.8596 14.1069C15.8218 14.0847 15.7893 14.0547 15.764 14.0189C15.1885 12.9452 14.6196 11.8682 14.0571 10.7879C13.9848 10.6493 13.905 10.5615 13.7387 10.5506C13.4314 10.5325 13.1254 10.4874 12.818 10.4779C12.7098 10.4792 12.6057 10.5195 12.5249 10.5914C12.1448 10.9507 11.7857 11.3262 11.4137 11.6917C11.1206 11.9793 10.7329 11.9845 10.4417 11.7168C10.3467 11.6285 10.3333 11.5483 10.417 11.4415C10.8768 10.8544 11.3286 10.2606 11.7914 9.6753C12.0588 9.33734 12.3952 9.15316 12.8513 9.17452C13.4485 9.20063 14.048 9.17927 14.6466 9.18592C14.7524 9.18682 14.857 9.20776 14.955 9.24762C15.5498 9.49682 16.1398 9.75694 16.7342 10.0071C16.861 10.0602 16.9114 10.1314 16.9095 10.2729C16.9038 10.8843 16.908 11.4942 16.908 12.1041Z" fill="#242E69"/>
<path d="M6.49572 11.573C6.49572 10.7819 6.49572 9.98922 6.49572 9.19495C6.49572 8.92392 6.51187 8.91016 6.79027 8.91016C7.05679 8.91016 7.32332 8.913 7.58984 8.91016C7.73237 8.91016 7.79175 8.97044 7.79175 9.11284C7.78985 10.7583 7.78985 12.4038 7.79175 14.0493C7.79175 14.1951 7.72904 14.2482 7.58651 14.2449C7.30811 14.2382 7.02972 14.2449 6.75132 14.2449C6.51377 14.2449 6.49572 14.2264 6.49572 13.9947C6.4954 13.185 6.4954 12.3777 6.49572 11.573Z" fill="#242E69"/>
<path d="M17.4074 12.0704C17.4074 11.2601 17.4116 10.4494 17.404 9.63916C17.404 9.46591 17.4644 9.4061 17.6307 9.41037C17.9209 9.41749 18.2112 9.41606 18.501 9.41037C18.6435 9.40752 18.6986 9.46591 18.6982 9.61068C18.6953 11.2562 18.6953 12.9007 18.6982 14.5443C18.6982 14.7076 18.634 14.7646 18.4758 14.7608C18.1908 14.7532 17.9057 14.7537 17.6207 14.7608C17.4582 14.7646 17.4021 14.6953 17.4031 14.5372C17.4097 13.7151 17.4074 12.8925 17.4074 12.0704Z" fill="#242E69"/>
<path d="M4.57274 2.64888C4.57274 2.99159 4.57606 3.33477 4.57274 3.67748C4.56609 4.25894 4.13186 4.69563 3.54703 4.70037C2.83092 4.70607 2.11481 4.70607 1.3987 4.70037C1.33314 4.70037 1.26757 4.64817 1.20154 4.62063C1.22957 4.56035 1.24382 4.48678 1.28801 4.44264C2.2936 3.43224 3.3022 2.42452 4.31381 1.4195C4.35752 1.37584 4.43259 1.36397 4.49292 1.33691C4.52 1.40242 4.56846 1.46745 4.56989 1.5339C4.57701 1.90366 4.57321 2.27627 4.57274 2.64888Z" fill="#242E69"/>
</svg>
