<svg width="8" height="7" viewBox="0 0 8 7" fill="none" xmlns="http://www.w3.org/2000/svg">
<g clip-path="url(#clip0_617_5683)">
<path d="M3.62891 7C5.5619 7 7.12891 5.433 7.12891 3.5C7.12891 1.567 5.5619 0 3.62891 0C1.69591 0 0.128906 1.567 0.128906 3.5C0.128906 5.433 1.69591 7 3.62891 7Z" fill="#242E69"/>
<path d="M4.02921 4.92708C4.00101 4.92708 3.97845 4.91862 3.96152 4.9017C3.9446 4.88478 3.93614 4.86222 3.93614 4.83401V4.25021H2.62188C2.59368 4.25021 2.57111 4.24175 2.55419 4.22483C2.53727 4.20791 2.52881 4.18534 2.52881 4.15714V3.99356C2.52881 3.99356 2.53163 3.96536 2.54009 3.9428C2.54573 3.92023 2.55701 3.89485 2.57393 3.87229L3.79231 2.15472C3.82333 2.1096 3.87409 2.08704 3.94178 2.08704H4.23509C4.2633 2.08704 4.28586 2.0955 4.30278 2.11242C4.3197 2.12934 4.32816 2.1519 4.32816 2.18011V3.89767H4.6948C4.72583 3.89767 4.74839 3.90613 4.76531 3.92306C4.78223 3.93998 4.79069 3.96254 4.79069 3.99074V4.15714C4.79069 4.18534 4.78223 4.20791 4.76531 4.22483C4.74839 4.24175 4.72583 4.25021 4.69762 4.25021H4.32816V4.83401C4.32816 4.86222 4.3197 4.88478 4.30278 4.9017C4.28586 4.91862 4.2633 4.92708 4.23509 4.92708H4.03203H4.02921ZM2.96032 3.90331H3.93896V2.51008L2.96032 3.90331Z" fill="white"/>
</g>
<defs>
<clipPath id="clip0_617_5683">
<rect width="7" height="7" fill="white" transform="translate(0.128906)"/>
</clipPath>
</defs>
</svg>
