<svg width="159" height="199" viewBox="0 0 159 199" fill="none" xmlns="http://www.w3.org/2000/svg">
<g clip-path="url(#clip0_617_5606)">
<path d="M145.036 152.491C139.737 152.491 135.433 148.314 135.433 143.177C135.433 138.041 139.743 133.864 145.036 133.864C150.329 133.864 154.638 138.041 154.638 143.177C154.638 148.314 150.329 152.491 145.036 152.491ZM145.036 134.443C140.061 134.443 136.012 138.359 136.012 143.177C136.012 147.996 140.061 151.912 145.036 151.912C150.011 151.912 154.06 147.996 154.06 143.177C154.06 138.359 150.011 134.443 145.036 134.443Z" fill="#3F4D51"/>
<path d="M145.036 155.904C137.764 155.904 131.847 150.194 131.847 143.177C131.847 136.161 137.764 130.451 145.036 130.451C152.307 130.451 158.225 136.161 158.225 143.177C158.225 150.194 152.307 155.904 145.036 155.904ZM145.036 131.03C138.083 131.03 132.425 136.479 132.425 143.177C132.425 149.876 138.083 155.325 145.036 155.325C151.989 155.325 157.647 149.876 157.647 143.177C157.647 136.479 151.989 131.03 145.036 131.03Z" fill="#3F4D51"/>
<path d="M120.758 77.0929C119.994 77.0929 119.149 76.85 118.287 76.3814C116.112 75.2302 117.576 71.8751 117.64 71.7247C117.697 71.5859 119.08 68.5315 121.278 68.6588C121.833 68.7109 122.296 69.0753 122.661 69.7405C123.569 71.4008 123.673 74.6633 123.083 75.7971C122.782 76.3698 122.296 76.7748 121.666 76.9657C121.382 77.0524 121.081 77.0929 120.758 77.0929ZM121.139 69.2431C119.404 69.2431 118.183 71.9387 118.172 71.9677C118.16 71.9966 116.859 74.9699 118.559 75.8723C119.63 76.4566 120.7 76.6533 121.492 76.4103C121.978 76.2657 122.337 75.9649 122.562 75.5311C123.025 74.6402 122.996 71.5801 122.146 70.024C121.88 69.5381 121.573 69.2778 121.232 69.2431C121.203 69.2431 121.168 69.2431 121.134 69.2431H121.139Z" fill="#3F4D51"/>
<path d="M130.227 30.202C130.227 30.202 130.198 30.202 130.181 30.202C130.082 30.1846 129.996 30.121 129.961 30.0285C129.909 29.9012 128.659 26.9278 128.897 24.7933C129.134 22.6819 131.766 17.4004 131.876 17.1748C131.922 17.0823 132.009 17.0244 132.113 17.0128C132.205 17.0071 132.31 17.0476 132.373 17.1285C132.674 17.5335 133.247 18.1119 133.582 18.1119C133.744 18.1119 133.952 18.0367 134.161 17.9615C134.618 17.7938 135.312 17.545 135.74 18.2508C136.272 19.1127 135.375 24.3479 134.913 24.9437C134.45 25.5742 130.609 29.9243 130.447 30.1094C130.389 30.1731 130.314 30.2078 130.227 30.2078V30.202ZM132.2 17.8343C131.575 19.13 129.666 23.1678 129.475 24.8511C129.307 26.3725 129.99 28.4608 130.325 29.3574C131.28 28.2757 134.074 25.1057 134.444 24.5908C134.849 24.0528 135.595 19.13 135.242 18.5516C135.08 18.2913 134.913 18.3086 134.357 18.5053C134.109 18.5979 133.848 18.6904 133.582 18.6904C133.067 18.6904 132.529 18.2045 132.2 17.8343Z" fill="#3F4D51"/>
<path d="M147.408 21.0621C146.673 21.0621 141.091 19.7722 140.813 17.9789C140.617 16.255 142.815 15.4394 142.913 15.4047L143.11 15.9542C143.11 15.9542 141.247 16.6484 141.392 17.9037C141.577 19.1185 146.476 20.4779 147.408 20.4779C147.72 20.3333 148.079 18.3549 148.16 16.2435L148.744 16.2666C148.675 18.0541 148.409 21.0564 147.414 21.0564L147.408 21.0621Z" fill="#3F4D51"/>
<path d="M147.402 54.978C144.214 54.978 140.107 54.411 136.891 52.2476C131.928 48.9561 129.597 43.8713 130.482 38.2948C131.332 32.9729 134.999 28.4088 139.402 27.194C147.789 24.8801 151.972 26.5576 152.145 26.6271L151.92 27.165C151.879 27.1477 147.726 25.5048 139.558 27.7551C135.364 28.912 131.87 33.2795 131.06 38.3816C130.21 43.7209 132.448 48.5974 137.215 51.7559C142.763 55.4928 151.353 54.2722 152.14 53.8789L152.4 54.3995C152.018 54.5904 150.017 54.9722 147.402 54.9722V54.978Z" fill="#3F4D51"/>
<path d="M146.667 157.946C143.891 157.946 139.945 157.495 136.608 155.395C131.367 152.069 128.862 146.961 129.741 141.396C130.609 135.895 134.56 131.18 139.355 129.936C147.818 127.732 151.561 129.705 151.717 129.792L151.44 130.301C151.405 130.283 147.708 128.363 139.506 130.497C134.999 131.666 131.141 136.288 130.325 141.483C129.487 146.81 131.893 151.704 136.932 154.897C142.549 158.438 150.011 157.124 150.086 157.113L150.19 157.686C150.155 157.686 148.744 157.94 146.679 157.94L146.667 157.946Z" fill="#3F4D51"/>
<path d="M143.127 177.857C141.426 177.857 138.951 177.741 136.405 177.602C135.711 177.568 135.225 177.539 135.092 177.539C134.444 177.539 130.829 176.174 129.996 175.855C129.626 175.832 127.057 175.688 125.894 175.688C125.119 175.688 124.882 175.381 124.697 175.04C124.587 174.843 124.541 174.762 124.217 174.762C123.129 174.762 120.96 173.536 120.717 173.391C120.625 173.339 120.572 173.241 120.572 173.137C120.572 171.251 118.299 158.224 118.091 157.229C117.969 156.667 115.592 151.872 113.498 147.638C111.652 143.918 109.743 140.071 109.084 138.538C107.759 135.617 106.429 130.717 106.18 129.763C105.978 128.959 105.879 128.253 105.879 127.605V127.501C105.567 111.662 105.393 91.9538 106.354 88.026C107.603 82.8661 120.827 63.574 121.857 62.0816C121.961 60.728 123.401 42.4656 124.344 37.1437C125.304 31.5961 128.665 17.3542 130.545 16.1278C132.263 14.9998 141.403 14.2593 141.791 14.2304C141.866 14.2304 141.947 14.2478 142.005 14.2998L143.208 15.3411L148.385 15.8906C148.576 15.6824 149.022 15.4278 150.011 15.5609C151.37 15.8096 152.255 23.7173 152.574 27.1014V29.7913H151.989V27.1303C151.509 22.0803 150.578 16.4228 149.907 16.1336C149.132 16.0295 148.837 16.2261 148.79 16.3071C148.744 16.4344 148.623 16.498 148.489 16.4864L143.052 15.908C142.994 15.9022 142.936 15.8791 142.89 15.8386L141.71 14.8204C139.02 15.0403 132.165 15.7576 130.863 16.6137C129.342 17.6087 126.004 30.9482 124.917 37.242C123.945 42.7201 122.447 62.0122 122.435 62.2031C122.435 62.2551 122.412 62.3014 122.383 62.3477C122.238 62.5559 108.17 83.0165 106.926 88.1649C106.192 91.1845 106.03 105.149 106.469 127.489V127.599C106.469 128.201 106.562 128.86 106.753 129.618C107.002 130.561 108.315 135.42 109.628 138.301C110.281 139.822 112.19 143.663 114.03 147.377C116.836 153.035 118.548 156.511 118.675 157.107C118.86 157.998 121.053 170.481 121.162 172.957C121.886 173.356 123.494 174.166 124.228 174.166C124.894 174.166 125.079 174.502 125.218 174.745C125.333 174.953 125.408 175.092 125.906 175.092C127.173 175.092 129.973 175.26 130.088 175.265C130.117 175.265 130.146 175.271 130.175 175.283C131.853 175.925 134.681 176.943 135.104 176.943C135.242 176.943 135.74 176.972 136.452 177.007C138.598 177.122 144.307 177.429 145.065 177.134C145.869 176.868 146.737 172.784 147.205 170.591L147.373 169.822C147.98 167.329 149.571 157.402 149.681 156.743L149.513 154.521L150.092 154.475L150.265 156.731C150.265 156.731 150.265 156.777 150.265 156.8C150.196 157.229 148.576 167.369 147.946 169.955L147.784 170.713C146.985 174.45 146.291 177.342 145.267 177.678C144.978 177.793 144.215 177.834 143.15 177.834L143.127 177.857Z" fill="#3F4D51"/>
<path d="M129.718 175.647L126.675 164.494C126.236 164.674 125.403 165.159 125.252 166.241C125.079 167.907 124.442 174.502 124.442 174.502L123.864 174.444C123.864 174.444 124.5 167.849 124.674 166.172C124.928 164.309 126.727 163.852 126.802 163.835C126.959 163.8 127.109 163.887 127.149 164.043L130.273 175.497L129.712 175.653L129.718 175.647Z" fill="#3F4D51"/>
<path d="M121.382 142.391C121.053 142.391 120.769 142.339 120.532 142.229C120.197 142.078 120.046 141.859 119.983 141.731C119.155 140.997 110.247 132.927 109.003 125.696C107.435 116.938 108.575 91.7977 109.003 88.8127C109.443 85.8047 117.478 70.2554 121.996 66.1945C122.146 66.0441 122.314 65.8764 122.412 65.7317C123.008 64.9219 125.357 62.2725 131.014 61.7287C136.874 61.2023 146.199 62.9551 147.94 63.2964L148.044 54.44H148.628L147.761 126.581C147.761 126.737 147.633 126.865 147.471 126.87C147.373 126.87 137.863 127.108 132.576 132.395C131.847 133.124 131.02 134.257 130.146 135.461C128.382 137.884 126.386 140.632 124.101 141.656C122.996 142.154 122.088 142.397 121.382 142.397V142.391ZM120.503 141.471C120.503 141.471 120.567 141.616 120.804 141.714C121.139 141.853 121.99 141.957 123.864 141.118C126.01 140.158 127.96 137.48 129.678 135.114C130.563 133.893 131.402 132.742 132.165 131.978C137.099 127.044 145.534 126.379 147.182 126.292L147.934 63.8864C146.534 63.6087 136.984 61.775 131.066 62.3072C125.513 62.8452 123.28 65.5293 122.886 66.0672C122.765 66.2524 122.58 66.4375 122.401 66.6168C117.674 70.8743 109.952 86.3311 109.576 88.9053C109.154 91.8787 108.014 116.892 109.576 125.604C110.82 132.823 120.318 141.257 120.416 141.344C120.457 141.378 120.486 141.425 120.503 141.477V141.471Z" fill="#3F4D51"/>
<path d="M108.818 103.084L108.714 102.511L121.353 100.203C121.816 100.006 127.092 97.8196 132.553 97.9352C140.003 98.1088 148.009 99.2599 148.09 99.2715L148.009 99.85C147.928 99.8384 139.957 98.693 132.541 98.5253C127.005 98.4038 121.614 100.735 121.556 100.758C121.533 100.77 121.515 100.776 121.492 100.776L108.824 103.089L108.818 103.084Z" fill="#3F4D51"/>
<path d="M151.399 132.134L151.341 129.41L152.151 52.988L152.093 51.0906L152.678 51.0733L152.735 52.9822L151.926 129.41L151.983 132.117L151.399 132.134Z" fill="#3F4D51"/>
<path d="M120.683 140.632C120.602 140.632 120.526 140.598 120.469 140.54C120.058 140.094 110.392 129.589 109.807 123.943C108.922 115.359 109.177 92.1332 110.461 88.6971C111.722 85.3651 117.015 74.8311 117.067 74.727L117.588 74.9873C117.536 75.0914 112.26 85.5964 111.005 88.8995C109.744 92.2836 109.507 115.341 110.386 123.88C110.877 128.629 118.409 137.358 120.411 139.603L122.239 75.8897L122.823 75.907L120.972 140.349C120.972 140.464 120.897 140.569 120.781 140.615C120.746 140.626 120.712 140.632 120.677 140.632H120.683Z" fill="#3F4D51"/>
<path d="M145.614 49.5808C140.316 49.5808 136.012 45.4043 136.012 40.2674C136.012 35.1306 140.321 30.954 145.614 30.954C150.907 30.954 155.217 35.1306 155.217 40.2674C155.217 45.4043 150.907 49.5808 145.614 49.5808ZM145.614 31.5325C140.639 31.5325 136.59 35.4488 136.59 40.2674C136.59 45.0861 140.639 49.0024 145.614 49.0024C150.589 49.0024 154.639 45.0861 154.639 40.2674C154.639 35.4488 150.589 31.5325 145.614 31.5325Z" fill="#3F4D51"/>
<path d="M145.614 52.9938C138.343 52.9938 132.425 47.2843 132.425 40.2674C132.425 33.2506 138.343 27.541 145.614 27.541C152.886 27.541 158.804 33.2506 158.804 40.2674C158.804 47.2843 152.886 52.9938 145.614 52.9938ZM145.614 28.1195C138.661 28.1195 133.004 33.5687 133.004 40.2674C133.004 46.9661 138.661 52.4153 145.614 52.4153C152.568 52.4153 158.225 46.9661 158.225 40.2674C158.225 33.5687 152.568 28.1195 145.614 28.1195Z" fill="#3F4D51"/>
<path d="M13.8966 152.491C8.59777 152.491 4.29395 148.314 4.29395 143.177C4.29395 138.041 8.60356 133.864 13.8966 133.864C19.1896 133.864 23.4992 138.041 23.4992 143.177C23.4992 148.314 19.1896 152.491 13.8966 152.491ZM13.8966 134.443C8.92172 134.443 4.87242 138.359 4.87242 143.177C4.87242 147.996 8.92172 151.912 13.8966 151.912C18.8714 151.912 22.9207 147.996 22.9207 143.177C22.9207 138.359 18.8714 134.443 13.8966 134.443Z" fill="#3F4D51"/>
<path d="M13.8967 155.904C6.62528 155.904 0.70752 150.194 0.70752 143.177C0.70752 136.161 6.62528 130.451 13.8967 130.451C21.1681 130.451 27.0858 136.161 27.0858 143.177C27.0858 150.194 21.1681 155.904 13.8967 155.904ZM13.8967 131.03C6.94344 131.03 1.28599 136.479 1.28599 143.177C1.28599 149.876 6.94344 155.325 13.8967 155.325C20.8499 155.325 26.5073 149.876 26.5073 143.177C26.5073 136.479 20.8499 131.03 13.8967 131.03Z" fill="#3F4D51"/>
<path d="M38.2385 77.0929C37.9203 77.0929 37.6137 77.0524 37.3303 76.9657C36.6998 76.7748 36.2081 76.3698 35.913 75.7971C35.323 74.6691 35.4271 71.4065 36.3353 69.7405C36.6998 69.0753 37.1625 68.7109 37.7121 68.6588C39.864 68.5373 41.2986 71.5917 41.3564 71.7189C41.4201 71.8635 42.8894 75.2244 40.7086 76.3814C39.8524 76.85 39.0021 77.0929 38.2385 77.0929ZM37.8451 69.2431C37.8162 69.2431 37.7815 69.2431 37.7526 69.2431C37.4171 69.272 37.1105 69.5381 36.8444 70.024C35.994 71.5801 35.9651 74.6402 36.4279 75.531C36.6535 75.9649 37.0179 76.2599 37.498 76.4103C38.2906 76.6533 39.3607 76.4566 40.4251 75.8723C42.1143 74.9757 40.859 72.0544 40.8185 71.9677C40.778 71.8809 39.5169 69.2431 37.8393 69.2431H37.8451Z" fill="#3F4D51"/>
<path d="M28.7056 30.202C28.6246 30.202 28.5436 30.1673 28.4858 30.1037C28.318 29.9128 24.4249 25.4643 24.02 24.9437C23.5803 24.3768 22.6953 19.1705 23.1812 18.2623C23.6208 17.545 24.315 17.7938 24.772 17.9615C24.9745 18.0367 25.1885 18.1119 25.3505 18.1119C25.686 18.1119 26.2644 17.5393 26.5595 17.1343C26.6173 17.0533 26.7157 17.0071 26.8198 17.0186C26.9181 17.0302 27.0107 17.0881 27.057 17.1806C27.1669 17.4062 29.8047 22.6877 30.0361 24.7991C30.2733 26.9336 29.0295 29.907 28.9717 30.0342C28.9312 30.1268 28.8502 30.1904 28.7519 30.2078C28.7345 30.2078 28.723 30.2078 28.7056 30.2078V30.202ZM23.9968 18.3549C23.858 18.3549 23.7712 18.4185 23.6902 18.5516C23.3663 19.1474 24.1067 24.076 24.4828 24.585C24.8125 25.0073 27.647 28.2583 28.6073 29.3574C28.937 28.4608 29.6254 26.3725 29.4576 24.8511C29.2725 23.1678 27.3635 19.1243 26.733 17.8343C26.4033 18.1987 25.8653 18.6904 25.3505 18.6904C25.0844 18.6904 24.8298 18.5979 24.5753 18.5053C24.3092 18.407 24.1299 18.3549 23.9968 18.3549Z" fill="#3F4D51"/>
<path d="M11.5248 21.0621C10.5241 21.0621 10.2638 18.0252 10.1943 16.2146L10.7786 16.1914C10.8596 18.326 11.2182 20.3333 11.5422 20.4837C12.4562 20.4837 17.3558 19.1185 17.5467 17.8921C17.6913 16.6426 15.846 15.96 15.8286 15.9542L16.0253 15.4047C16.1179 15.4394 18.3219 16.255 18.1252 17.9673C17.8475 19.7722 12.2653 21.0621 11.5306 21.0621H11.5248Z" fill="#3F4D51"/>
<path d="M11.5942 54.9779C8.97949 54.9779 6.98377 54.5961 6.59619 54.4052L6.8565 53.8846C7.63744 54.278 16.2277 55.4986 21.7753 51.7616C26.5419 48.6032 28.7864 43.7267 27.9302 38.3874C27.1146 33.2852 23.6206 28.9178 19.4325 27.7608C11.2645 25.5048 7.11103 27.1535 7.07054 27.1708L6.84493 26.6328C7.01848 26.5634 11.2008 24.8858 19.5887 27.1997C23.9908 28.4145 27.6641 32.9787 28.5087 38.3006C29.3995 43.8771 27.0625 48.9618 22.0992 52.2533C18.8829 54.4168 14.7816 54.9837 11.5884 54.9837L11.5942 54.9779Z" fill="#3F4D51"/>
<path d="M12.2709 157.946C10.2058 157.946 8.78851 157.697 8.75959 157.691L8.86371 157.119C8.93891 157.13 16.4012 158.443 22.0182 154.903C27.0509 151.704 29.4573 146.816 28.6243 141.488C27.8087 136.294 23.9445 131.672 19.444 130.503C11.2412 128.369 7.5448 130.283 7.51009 130.306L7.23242 129.797C7.38861 129.711 11.1313 127.744 19.5944 129.942C24.3899 131.186 28.3408 135.9 29.2086 141.402C30.082 146.972 27.583 152.074 22.3421 155.401C19.0101 157.5 15.0591 157.952 12.2825 157.952L12.2709 157.946Z" fill="#3F4D51"/>
<path d="M15.8343 177.851C14.7526 177.851 13.9774 177.805 13.6824 177.689C12.6701 177.354 11.9817 174.467 11.1834 170.724L11.0214 169.955C10.3909 167.375 8.77119 157.24 8.70177 156.806C8.70177 156.783 8.70177 156.76 8.70177 156.737L8.87531 154.481L9.45378 154.527L9.28024 156.748C9.38437 157.408 10.9752 167.334 11.5826 169.822L11.7503 170.597C12.2189 172.789 13.0924 176.873 13.8791 177.134C14.6485 177.435 20.358 177.128 22.5099 177.012C23.2156 176.972 23.7189 176.949 23.8519 176.949C24.2742 176.949 27.1029 175.931 28.7805 175.288C28.8094 175.277 28.8384 175.271 28.8673 175.271C28.9888 175.265 31.7828 175.098 33.0496 175.098C33.5471 175.098 33.6223 174.959 33.738 174.75C33.8711 174.508 34.062 174.172 34.7272 174.172C35.4619 174.172 37.0758 173.362 37.7931 172.963C37.903 170.545 40.0202 158.362 40.2805 157.113C40.4078 156.517 42.1201 153.04 44.9257 147.383C46.7652 143.669 48.6684 139.834 49.322 138.318C50.6352 135.426 51.9483 130.567 52.2028 129.624C52.3879 128.872 52.4805 128.212 52.4805 127.617V127.541C52.9259 105.178 52.7639 91.2018 52.0235 88.1764C50.7798 83.0222 36.7056 62.5617 36.561 62.3592C36.532 62.3187 36.5147 62.2667 36.5089 62.2146C36.4915 62.0179 34.9933 42.7259 34.0273 37.2536C32.9397 30.9598 29.6019 17.6203 28.0806 16.6195C26.7732 15.7634 19.9241 15.0461 17.2342 14.8262L16.0541 15.8443C16.0079 15.8848 15.9558 15.908 15.8922 15.9138L10.4545 16.4922C10.3157 16.5096 10.1827 16.4228 10.1422 16.284C10.1422 16.284 9.96284 15.9716 9.02572 16.1394C8.36047 16.4228 7.42913 22.0803 6.949 27.1592V29.7913H6.36475V27.1303C6.68291 23.7173 7.57375 15.8096 8.91581 15.5609C9.92813 15.3758 10.3736 15.6592 10.5644 15.8848L15.7302 15.3353L16.9334 14.294C16.9913 14.242 17.0665 14.2188 17.1475 14.2246C17.535 14.2535 26.6691 14.994 28.3929 16.122C30.273 17.3542 33.6339 31.5903 34.5942 37.1437C35.5371 42.4656 36.9717 60.7279 37.0816 62.0816C38.1113 63.5798 51.3351 82.8661 52.5846 88.0318C53.3308 91.1035 53.4986 105.131 53.059 127.547V127.617C53.059 128.259 52.9606 128.964 52.7582 129.763C52.5036 130.717 51.1789 135.617 49.8484 138.55C49.189 140.077 47.2858 143.918 45.4405 147.638C43.3406 151.872 40.9631 156.667 40.8474 157.229C40.6392 158.224 38.3658 171.233 38.3658 173.137C38.3658 173.241 38.3079 173.339 38.2212 173.391C37.9782 173.53 35.8089 174.762 34.7214 174.762C34.3975 174.762 34.3512 174.843 34.2413 175.04C34.0504 175.381 33.819 175.688 33.0439 175.688C31.8811 175.688 29.3127 175.838 28.9425 175.855C28.1095 176.174 24.494 177.539 23.8462 177.539C23.7131 177.539 23.2272 177.568 22.533 177.602C19.9935 177.741 17.535 177.857 15.8285 177.857L15.8343 177.851Z" fill="#3F4D51"/>
<path d="M29.2203 175.647L28.6592 175.491L31.7829 164.037C31.8234 163.887 31.9796 163.8 32.13 163.829C32.2052 163.846 34.0043 164.303 34.2588 166.154C34.4323 167.843 35.0686 174.438 35.0686 174.438L34.4902 174.496C34.4902 174.496 33.8539 167.901 33.6803 166.224C33.5299 165.148 32.7027 164.668 32.2631 164.488L29.2203 175.641V175.647Z" fill="#3F4D51"/>
<path d="M37.614 142.391C36.9083 142.391 36.0001 142.142 34.8952 141.65C32.6102 140.626 30.6087 137.879 28.8501 135.455C27.9767 134.257 27.1552 133.124 26.4206 132.395C21.1333 127.108 11.6175 126.87 11.5249 126.87C11.3687 126.87 11.2415 126.737 11.2415 126.581L10.3159 54.4457H10.9002L11.0159 63.3079C12.6182 62.9898 22.0762 61.2023 27.9882 61.7287C33.6515 62.2782 36.0001 64.9219 36.5843 65.7201C36.6942 65.8821 36.8562 66.0441 37.0182 66.2061C41.5245 70.2611 49.5594 85.8047 49.9991 88.8127C50.4271 91.7976 51.5667 116.938 49.9991 125.696C48.6975 132.927 39.8353 140.997 39.0197 141.726C38.956 141.853 38.8056 142.073 38.4701 142.223C38.233 142.333 37.9495 142.385 37.6198 142.385L37.614 142.391ZM11.8142 126.292C13.4628 126.379 21.8969 127.044 26.8313 131.978C27.5949 132.742 28.4336 133.893 29.3187 135.108C31.0368 137.474 32.9862 140.152 35.1323 141.112C37.0066 141.951 37.8569 141.847 38.1925 141.708C38.4354 141.61 38.4991 141.465 38.4991 141.459C38.5164 141.419 38.5453 141.367 38.58 141.338C38.6726 141.251 48.1248 132.817 49.4206 125.598C50.9767 116.886 49.8429 91.8728 49.4206 88.8995C49.0446 86.3253 41.3278 70.8685 36.6132 66.6283C36.4223 66.4375 36.2372 66.2523 36.1042 66.0499C35.7224 65.5293 33.4895 62.8394 27.9304 62.3014C21.9432 61.7692 12.2191 63.6492 11.0159 63.8922L11.8142 126.286V126.292Z" fill="#3F4D51"/>
<path d="M50.1148 103.084L37.4463 100.77C37.4463 100.77 37.4 100.758 37.3826 100.752C37.3306 100.729 31.9161 98.398 26.3975 98.5195C18.9815 98.693 11.0101 99.8326 10.9291 99.8442L10.8481 99.2657C10.9291 99.2542 18.9352 98.103 26.3859 97.9295C31.8293 97.8253 37.1223 100 37.5851 100.197L50.2189 102.505L50.1148 103.078V103.084Z" fill="#3F4D51"/>
<path d="M7.53891 132.134L6.95465 132.117L7.0125 129.398L6.20264 52.9938L6.26048 51.0732L6.84474 51.0906L6.78689 52.9996L7.59675 129.404L7.53891 132.134Z" fill="#3F4D51"/>
<path d="M38.2501 140.632C38.2154 140.632 38.1807 140.626 38.146 140.615C38.0361 140.574 37.9609 140.47 37.9551 140.349L36.104 75.907L36.6883 75.8897L38.5162 139.603C40.5177 137.358 48.0494 128.629 48.5411 123.88C49.4204 115.341 49.1832 92.2836 47.9222 88.8995C46.6727 85.5386 41.3912 75.1492 41.3392 75.0451L41.8598 74.779C41.9119 74.8831 47.2049 85.3014 48.4659 88.6913C49.7444 92.1274 49.9989 115.353 49.1196 123.938C48.5354 129.578 38.8691 140.088 38.4584 140.534C38.4005 140.598 38.3253 140.626 38.2443 140.626L38.2501 140.632Z" fill="#3F4D51"/>
<path d="M13.318 49.5808C8.01916 49.5808 3.71533 45.4043 3.71533 40.2674C3.71533 35.1306 8.02494 30.954 13.318 30.954C18.611 30.954 22.9206 35.1306 22.9206 40.2674C22.9206 45.4043 18.611 49.5808 13.318 49.5808ZM13.318 31.5325C8.3431 31.5325 4.2938 35.4488 4.2938 40.2674C4.2938 45.0861 8.3431 49.0024 13.318 49.0024C18.2928 49.0024 22.3421 45.0861 22.3421 40.2674C22.3421 35.4488 18.2928 31.5325 13.318 31.5325Z" fill="#3F4D51"/>
<path d="M13.3181 52.9938C6.04667 52.9938 0.128906 47.2843 0.128906 40.2674C0.128906 33.2506 6.04667 27.541 13.3181 27.541C20.5894 27.541 26.5072 33.2506 26.5072 40.2674C26.5072 47.2843 20.5894 52.9938 13.3181 52.9938ZM13.3181 28.1195C6.36483 28.1195 0.707378 33.5687 0.707378 40.2674C0.707378 46.9661 6.36483 52.4153 13.3181 52.4153C20.2713 52.4153 25.9287 46.9661 25.9287 40.2674C25.9287 33.5687 20.2713 28.1195 13.3181 28.1195Z" fill="#3F4D51"/>
<path d="M51.04 25.3718C50.959 25.3718 50.9128 25.3429 50.8723 25.3255C50.8144 25.2966 50.6409 25.1751 50.6929 24.8859C50.7624 24.5156 50.3112 23.4165 49.9699 22.7571C49.9467 22.705 49.9351 22.6472 49.9409 22.5951C50.0161 21.8778 51.74 4.98644 51.9656 3.32044C52.2375 1.33628 53.6547 0.00579834 55.4943 0.00579834C57.3338 0.00579834 67.0868 2.99071 67.9198 3.24524H80.3685V3.8295H67.8735C67.8446 3.8295 67.8157 3.8295 67.7868 3.81793C67.6826 3.78322 57.2817 0.590055 55.4943 0.590055C53.6027 0.590055 52.7234 2.10565 52.544 3.40143C52.3242 4.99222 50.664 21.2357 50.531 22.5662C50.7103 22.9248 51.2078 23.9545 51.2772 24.6545C51.5896 24.4462 52.1044 24.0124 52.5209 23.619L52.9201 24.0471C51.7342 25.1577 51.2656 25.366 51.0458 25.366L51.04 25.3718Z" fill="#3F4D51"/>
<path d="M53.5217 24.5908C53.0763 24.5908 52.6945 24.4115 52.4226 24.0644C51.3988 22.7744 52.1045 19.4945 52.2549 18.8524C52.6425 17.2038 58.0107 15.5435 60.5444 14.9998C63.2516 14.4155 63.5235 14.7742 63.645 14.9246C64.2293 15.6824 63.5351 16.7699 62.6616 18.1524C62.4476 18.4937 62.2162 18.8582 61.9848 19.24C61.0419 20.9175 61.6261 22.1497 61.6493 22.2017C61.684 22.2769 61.6898 22.3695 61.6551 22.4447C61.6203 22.5199 61.5567 22.5835 61.4757 22.6067C61.227 22.6877 55.3381 24.5851 53.516 24.5851L53.5217 24.5908ZM62.8525 15.2312C61.6898 15.2312 58.0743 16.0584 55.3324 17.25C53.2209 18.164 52.8739 18.7714 52.8218 18.9854C52.3995 20.7671 52.2549 22.9191 52.8796 23.7C53.0474 23.9082 53.2499 24.0066 53.5217 24.0066C55.0316 24.0066 59.7866 22.5315 61.013 22.1439C60.851 21.6001 60.6659 20.4027 61.4873 18.945C61.7187 18.5516 61.9559 18.1814 62.1757 17.8343C62.8988 16.6947 63.5235 15.7055 63.188 15.2717C63.1302 15.2369 63.0145 15.2254 62.8583 15.2254L62.8525 15.2312Z" fill="#3F4D51"/>
<path d="M57.5129 8.87376C56.4601 8.87376 55.4072 8.71179 54.8346 8.20274C54.0016 7.43915 53.6024 5.81365 53.4694 5.14841C53.4231 4.85917 53.4867 4.58729 53.6429 4.40218C53.776 4.24599 53.9553 4.165 54.1578 4.165C54.4586 4.165 54.8808 4.165 55.3668 4.15343C58.9764 4.11873 61.03 4.14186 61.5101 4.36168C61.62 4.39061 61.7994 4.41953 61.9845 4.45424C62.534 4.54679 63.1588 4.6567 63.4133 5.13105C63.5695 5.42607 63.5463 5.79629 63.3323 6.25329C63.3207 6.28221 63.3034 6.31113 63.2802 6.32849C63.205 6.40369 61.4696 8.24323 60.2433 8.54982C59.7169 8.68865 58.6178 8.86798 57.5129 8.86798V8.87376ZM57.5071 4.72612C56.7088 4.72612 55.9394 4.73191 55.3725 4.73769C54.8866 4.73769 54.4643 4.74926 54.1578 4.74926C54.1288 4.74926 54.1057 4.76083 54.0825 4.78397C54.0478 4.82446 54.0131 4.91702 54.0363 5.05006C54.1288 5.51284 54.4933 7.10942 55.2164 7.77467C56.0841 8.54982 58.8144 8.33578 60.0929 7.99449C60.9548 7.78045 62.3142 6.49624 62.8117 5.96983C62.8927 5.78472 62.9621 5.54755 62.8869 5.40293C62.7712 5.18311 62.2737 5.09634 61.8746 5.02693C61.6721 4.99222 61.4696 4.95751 61.3019 4.90545C60.9664 4.75504 59.1673 4.72034 57.4955 4.72034L57.5071 4.72612Z" fill="#3F4D51"/>
<path d="M62.9256 21.8681L61.3618 22.0418L61.4263 22.6225L62.9902 22.4488L62.9256 21.8681Z" fill="#3F4D51"/>
<path d="M93.7835 10.9967H91.2961C91.2266 10.9967 91.1572 10.9736 91.1052 10.9273L89.5664 9.60841H68.8398L67.3011 10.9273C67.249 10.9736 67.1796 10.9967 67.1102 10.9967H64.6227C64.5128 10.9967 64.4203 10.9389 64.3682 10.8463C64.3161 10.7538 64.3219 10.6381 64.3798 10.5455C64.4839 10.3893 66.8903 6.69291 67.7638 5.76157C68.4464 5.0327 76.6897 4.97485 79.2002 4.97485C81.7108 4.97485 89.954 5.0327 90.6366 5.76157C91.5101 6.69291 93.9223 10.3893 94.0207 10.5455C94.0785 10.6323 94.0843 10.748 94.0322 10.8463C93.9802 10.9389 93.8818 10.9967 93.7777 10.9967H93.7835ZM91.406 10.4125H93.2455C92.5629 9.38281 90.8969 6.88381 90.2259 6.1665C89.0516 5.34507 69.3199 5.34507 68.1919 6.1665C67.5324 6.86645 65.8607 9.37702 65.1723 10.4067H67.0118L68.5506 9.08779C68.6026 9.04151 68.672 9.01837 68.7415 9.01837H89.6821C89.7515 9.01837 89.821 9.04151 89.873 9.08779L91.4118 10.4067L91.406 10.4125Z" fill="#3F4D51"/>
<path d="M107.377 25.3718C107.152 25.3718 106.689 25.1635 105.503 24.0529L105.902 23.6248C106.319 24.0182 106.834 24.4462 107.146 24.6603C107.215 23.9603 107.713 22.9249 107.892 22.572C107.753 21.2415 106.099 4.99802 105.879 3.40722C105.7 2.11145 104.821 0.595853 102.929 0.595853C101.141 0.595853 90.7406 3.78902 90.6364 3.82372C90.6075 3.83529 90.5786 3.83529 90.5497 3.83529H78.0547V3.25104H90.5034C91.3306 2.99651 101.095 0.0115967 102.929 0.0115967C104.763 0.0115967 106.186 1.34208 106.458 3.32624C106.689 4.99224 108.413 21.8836 108.482 22.6009C108.482 22.6588 108.482 22.7166 108.453 22.7629C108.112 23.4223 107.661 24.5214 107.73 24.8917C107.782 25.1809 107.609 25.3024 107.551 25.3313C107.51 25.3544 107.464 25.3776 107.383 25.3776L107.377 25.3718Z" fill="#3F4D51"/>
<path d="M104.89 24.5908C103.073 24.5908 97.1846 22.6934 96.9301 22.6125C96.8491 22.5835 96.7855 22.5257 96.7508 22.4505C96.7161 22.3753 96.7218 22.2827 96.7566 22.2075C96.7855 22.1555 97.364 20.9175 96.4153 19.24C96.1607 18.783 95.8889 18.3549 95.6401 17.9558C94.836 16.6658 94.1997 15.6534 94.7608 14.9246C94.8765 14.7742 95.1542 14.4155 97.8614 14.9998C100.401 15.5493 105.763 17.2095 106.151 18.8524C106.301 19.4945 107.007 22.7744 105.983 24.0644C105.711 24.4115 105.33 24.5908 104.884 24.5908H104.89ZM97.3987 22.1497C98.625 22.5373 103.38 24.0124 104.89 24.0124C105.162 24.0124 105.37 23.914 105.532 23.7058C106.151 22.9248 106.006 20.7729 105.59 18.9912C105.538 18.7714 105.191 18.1698 103.079 17.2558C99.9613 15.9022 95.7095 15.0171 95.2005 15.3121C94.917 15.6882 95.4839 16.6021 96.1376 17.6492C96.3921 18.0541 96.664 18.488 96.9243 18.9565C97.7457 20.4143 97.5606 21.6117 97.3987 22.1555V22.1497Z" fill="#3F4D51"/>
<path d="M81.0567 24.4173H77.3545C77.2157 24.4173 63.4249 24.3594 62.6729 22.2538C61.973 20.2118 64.2463 15.8154 65.0967 14.7973C65.5595 14.2073 68.2494 11.2744 75.1216 11.8008H83.3012C89.514 11.3207 92.3659 13.7329 93.3088 14.7915C94.188 15.908 96.4325 20.3044 95.7383 22.2538C95.0037 24.3884 81.2014 24.4173 81.0625 24.4173H81.0567ZM73.5597 12.3272C67.9659 12.3272 65.7966 14.8552 65.5479 15.1675C64.7149 16.1683 62.6266 20.3333 63.2225 22.0629C63.6621 23.3066 73.5077 23.833 77.3487 23.833H81.0509C85.6151 23.833 94.7549 23.3008 95.1772 22.0629C95.7673 20.4085 93.7021 16.2377 92.8518 15.1675C92.175 14.404 89.4504 11.9165 83.3243 12.3851H75.0869C74.5489 12.3446 74.0341 12.3272 73.5482 12.3272H73.5597Z" fill="#3F4D51"/>
<path d="M97.4277 1.8569C94.2462 1.8569 91.0009 1.69492 87.8598 1.53295C85.0658 1.39412 82.1792 1.24372 79.3737 1.22058C76.435 1.22058 73.4675 1.35363 70.5982 1.48089C67.4398 1.62551 64.1714 1.77013 60.9204 1.7412V1.15695C64.1599 1.18587 67.4166 1.04125 70.5693 0.896634C73.4443 0.76937 76.4177 0.636322 79.3737 0.636322C82.1966 0.665246 85.089 0.809863 87.883 0.948697C91.0125 1.10488 94.2519 1.27264 97.422 1.27264V1.8569H97.4277Z" fill="#3F4D51"/>
<path d="M93.1355 3.07171C93.0313 3.07171 82.6883 2.49324 79.2637 2.43539C75.7871 2.43539 65.2184 2.95023 65.1085 2.95602L65.0796 2.37176C65.1837 2.37176 75.7697 1.85114 79.2637 1.85114C82.7056 1.90898 93.0603 2.48167 93.1644 2.48745L93.1297 3.07171H93.1355Z" fill="#3F4D51"/>
<path d="M100.899 8.87378C99.7938 8.87378 98.6947 8.69445 98.1683 8.55562C96.9477 8.24903 95.2123 6.40949 95.1371 6.33429C95.114 6.31115 95.0966 6.28222 95.085 6.25908C94.8768 5.80209 94.8479 5.43187 95.0041 5.13685C95.2528 4.6625 95.8776 4.55259 96.4329 4.46004C96.618 4.43111 96.7915 4.39641 96.9477 4.35591C97.3931 4.15345 99.4409 4.13031 103.051 4.16502C103.537 4.16502 103.953 4.17659 104.26 4.17659C104.462 4.17659 104.647 4.26336 104.774 4.41376C104.931 4.59887 104.994 4.87075 104.948 5.14842C104.815 5.81945 104.416 7.44495 103.583 8.20853C103.004 8.72337 101.952 8.88535 100.899 8.88535V8.87378ZM95.5941 5.96985C96.0916 6.49047 97.451 7.77468 98.3129 7.98872C99.5971 8.32423 102.322 8.53826 103.195 7.76311C103.918 7.10365 104.283 5.50707 104.375 5.03272C104.393 4.91125 104.364 4.81869 104.329 4.7782C104.312 4.75506 104.289 4.74349 104.26 4.74349C103.959 4.74349 103.537 4.74349 103.045 4.73192C101.28 4.71457 97.6072 4.67986 97.1444 4.88811C96.9362 4.95174 96.7337 4.98645 96.5312 5.02116C96.1321 5.09057 95.6404 5.17156 95.5189 5.39716C95.4437 5.54178 95.5131 5.77895 95.5941 5.96406V5.96985Z" fill="#3F4D51"/>
<path d="M95.5046 21.8696L95.4399 22.4503L97.0037 22.6243L97.0684 22.0436L95.5046 21.8696Z" fill="#3F4D51"/>
<path d="M96.7102 180.327C96.4267 180.327 96.1722 180.315 95.9466 180.292C95.4896 180.246 94.8706 180.13 94.7665 179.679C94.5235 178.586 99.7529 171.864 101.361 169.833C101.407 169.77 101.483 169.735 101.558 169.724C102.773 169.585 104.421 171.789 104.601 172.037C104.629 172.084 104.653 172.136 104.653 172.188C104.664 172.356 104.936 176.33 104.167 178.054C103.542 179.442 99.1918 180.321 96.7044 180.321L96.7102 180.327ZM101.737 170.308C98.5381 174.357 95.2929 178.904 95.345 179.563C95.4433 179.673 96.392 179.882 98.5092 179.615C101.124 179.286 103.334 178.516 103.646 177.822C104.3 176.359 104.126 172.899 104.091 172.321C103.501 171.523 102.414 170.371 101.743 170.308H101.737Z" fill="#3F4D51"/>
<path d="M107.626 182.114C107.499 182.033 104.56 180.032 104.086 176.179L104.664 176.11C105.104 179.685 107.921 181.611 107.95 181.628L107.626 182.114Z" fill="#3F4D51"/>
<path d="M61.7012 180.327C59.2196 180.327 54.8637 179.448 54.2389 178.059C53.4638 176.336 53.7414 172.361 53.753 172.194C53.753 172.142 53.7761 172.09 53.8051 172.043C53.9844 171.795 55.6157 169.591 56.8478 169.729C56.923 169.735 56.9982 169.776 57.0445 169.839C58.6527 171.876 63.882 178.592 63.6391 179.685C63.5407 180.136 62.9218 180.252 62.459 180.298C62.2334 180.321 61.9789 180.333 61.6954 180.333L61.7012 180.327ZM54.3257 172.315C54.291 172.894 54.1117 176.359 54.7711 177.816C55.0835 178.516 57.2933 179.286 59.9079 179.61C62.0194 179.876 62.9681 179.662 63.078 179.529C63.1185 178.892 59.8732 174.351 56.6743 170.302C55.9975 170.366 54.9157 171.517 54.3257 172.315Z" fill="#3F4D51"/>
<path d="M50.7912 182.114L50.4673 181.628C50.4673 181.628 53.3134 179.685 53.753 176.11L54.3315 176.179C53.8571 180.026 50.9185 182.028 50.7912 182.114Z" fill="#3F4D51"/>
<path d="M78.4537 182.629C78.043 182.618 68.6024 182.317 66.4678 180.599C64.5241 179.089 62.2218 173.657 61.7706 172.564H59.0171V171.98H61.9673C62.0888 171.98 62.1929 172.049 62.2392 172.165C62.2623 172.228 64.8365 178.592 66.8322 180.142C68.8164 181.744 78.367 182.045 78.4653 182.045H80.0214C80.1082 182.045 89.6587 181.738 91.6371 180.142C93.6386 178.534 96.2128 172.223 96.2359 172.159C96.2822 172.049 96.3863 171.98 96.5078 171.98H99.458V172.564H96.7045C96.2533 173.646 93.951 179.031 92.0073 180.599C89.8728 182.317 80.4321 182.618 80.033 182.629H78.4653H78.4537Z" fill="#3F4D51"/>
<path d="M102.402 199C102.327 199 102.258 198.971 102.206 198.925C102.148 198.873 102.113 198.792 102.113 198.711C102.113 198.711 102.102 198.138 101.662 196.715C101.188 195.35 100.088 194.812 100.077 194.812C100.002 194.777 99.9496 194.714 99.9265 194.633L99.1166 191.989C97.7861 191.908 94.7954 191.815 94.0781 192.145C93.303 192.51 93.4881 193.794 93.4881 193.805C93.4997 193.892 93.4765 193.973 93.4187 194.037C93.3608 194.1 93.2799 194.141 93.1989 194.141H65.143C65.0562 194.141 64.9752 194.106 64.9232 194.037C64.8711 193.967 64.8422 193.886 64.8538 193.805C64.8538 193.794 65.0389 192.51 64.2637 192.145C63.5522 191.81 60.5615 191.908 59.2252 191.989L58.4154 194.633C58.3922 194.714 58.3344 194.777 58.2592 194.812C58.2476 194.812 57.0965 195.361 56.68 196.715C56.2403 198.138 56.2287 198.705 56.2287 198.711C56.2287 198.792 56.194 198.873 56.1304 198.925C56.0668 198.977 55.9858 199.006 55.9048 199C55.8701 199 52.3125 198.572 51.7109 193.771C51.1382 189.189 50.5019 181.686 50.4961 181.611L51.0746 181.559C51.0803 181.634 51.7167 189.125 52.2894 193.695C52.7406 197.288 54.8867 198.161 55.6734 198.358C55.7197 198.028 55.8354 197.444 56.1131 196.536C56.5296 195.188 57.5303 194.528 57.8832 194.338L58.7162 191.619C58.7509 191.503 58.855 191.422 58.9765 191.41C59.4335 191.382 63.477 191.133 64.5009 191.613C65.3628 192.018 65.4554 193.024 65.4438 193.551H92.8691C92.8576 193.019 92.9501 192.018 93.812 191.613C94.8359 191.133 98.8795 191.382 99.3364 191.41C99.4579 191.416 99.562 191.503 99.5968 191.619L100.43 194.338C100.771 194.534 101.737 195.188 102.2 196.524C102.483 197.438 102.599 198.028 102.645 198.358C103.42 198.167 105.538 197.322 106.035 193.69C106.66 189.068 107.244 181.634 107.25 181.559L107.828 181.605C107.828 181.681 107.244 189.131 106.614 193.771C105.954 198.63 102.454 198.994 102.414 198.994C102.408 198.994 102.397 198.994 102.391 198.994L102.402 199Z" fill="#3F4D51"/>
<path d="M106.805 192.862H106.221C106.221 191.561 104.312 190.838 101.622 189.959C98.9203 189.056 79.6919 189.045 79.501 189.045H78.9225C78.7316 189.045 59.5553 189.056 56.8018 189.959C54.1061 190.838 52.2029 191.561 52.2029 192.862H51.6187C51.6187 191.162 53.597 190.392 56.6224 189.403C59.4685 188.472 78.1358 188.466 78.9283 188.466H79.5068C80.3051 188.466 99.0244 188.478 101.813 189.409C104.832 190.398 106.811 191.168 106.811 192.868L106.805 192.862Z" fill="#3F4D51"/>
<path d="M96.4443 172.564H91.4116C91.3421 172.564 85.2335 172.396 79.2058 172.39C73.1261 172.396 67.0695 172.564 67.0116 172.564H61.9731V171.98H67.0058C67.0579 171.98 72.8021 171.823 78.7199 171.806C78.7315 171.806 78.7372 171.806 78.7488 171.806H79.6744C79.6744 171.806 79.6917 171.806 79.7033 171.806C85.5748 171.823 91.3653 171.974 91.4289 171.98H96.4558V172.564H96.4443Z" fill="#3F4D51"/>
<path d="M104.89 68.9943L104.312 68.9249C104.312 68.8902 104.763 65.2053 104.312 60.9536C103.398 51.6517 98.4114 32.4407 98.3594 32.244L98.9205 32.0994C98.9726 32.2903 103.971 51.5476 104.89 60.8957C105.353 65.2169 104.89 68.9654 104.89 69.0001V68.9943Z" fill="#3F4D51"/>
<path d="M58.2657 88.107C58.1268 88.107 58.0111 88.0087 57.9822 87.8756L53.8751 69.0174C53.8462 68.8902 53.904 68.7629 54.0139 68.6993C54.0949 68.653 62.2282 64.0889 72.5828 62.9956C73.2249 62.9319 73.8439 62.8799 74.434 62.9377L85.3381 62.9956C85.9571 62.9956 86.4719 63.0418 87.0678 63.0881L87.3281 63.1112C97.1737 64.3781 104.671 68.6009 104.746 68.6414C104.856 68.7051 104.914 68.8323 104.885 68.9538L100.778 87.812C100.749 87.945 100.633 88.0434 100.494 88.0434C100.303 88.0434 99.69 87.9392 98.319 87.6963C95.5192 87.2046 90.313 86.2906 85.4307 85.8452C82.2896 85.5791 79.8832 85.5212 78.0783 85.6716L74.5439 85.8452C69.4128 86.2154 63.6917 87.2046 60.6201 87.7368C59.1449 87.9913 58.4855 88.1012 58.2715 88.1012L58.2657 88.107ZM54.4883 69.11L58.4913 87.4996C58.8673 87.4475 59.6193 87.3203 60.5101 87.1641C63.5934 86.6319 69.3376 85.6369 74.4976 85.2667H74.5034L78.032 85.0932C79.86 84.9428 82.3012 84.9948 85.477 85.2667C90.3882 85.7179 95.6118 86.6319 98.4174 87.1236C99.2041 87.2624 99.9098 87.3839 100.263 87.436L104.266 69.0464C103.057 68.3927 96.1209 64.8293 87.2645 63.6897L87.0157 63.6666C86.4314 63.6145 85.9282 63.574 85.3324 63.574L74.3992 63.5162C73.8381 63.4583 73.2481 63.5162 72.6349 63.574C63.2752 64.5632 55.7493 68.4216 54.4825 69.1042L54.4883 69.11Z" fill="#3F4D51"/>
<path d="M53.8111 69.0522C53.8111 69.0174 53.3484 65.2689 53.8111 60.942C54.8466 51.5302 61.7941 30.6648 61.8635 30.4507L62.4188 30.6359C62.3494 30.8441 55.4193 51.6575 54.3896 61.0056C53.9384 65.2574 54.3896 68.9422 54.3896 68.9769L53.8111 69.0464V69.0522Z" fill="#3F4D51"/>
<path d="M77.6442 148.54C73.0916 148.54 68.539 148.471 66.5722 148.326C60.9206 147.863 54.002 145.092 53.9326 145.063L54.1524 144.52C54.2219 144.548 61.0594 147.285 66.6185 147.742C70.5347 148.031 84.7536 148.031 88.6698 147.742C94.2347 147.342 104.115 143.86 104.213 143.825L104.41 144.375C104.312 144.41 94.3562 147.921 88.7161 148.326C86.7493 148.471 82.1967 148.54 77.6442 148.54Z" fill="#3F4D51"/>
<path d="M101.177 131.712C101.119 131.701 95.6059 130.33 91.1227 130.33H64.2238C59.7696 130.33 56.8367 131.458 56.8078 131.463L56.5938 130.92C56.7152 130.873 59.6481 129.74 64.218 129.74H91.1169C95.6695 129.74 101.258 131.122 101.31 131.14L101.171 131.706L101.177 131.712Z" fill="#3F4D51"/>
<path d="M53.2734 163.083C53.2213 163.083 53.1692 163.071 53.1172 163.048C52.1974 162.701 51.4107 162.308 51.2082 161.029C51.0405 159.918 51.133 158.779 51.1851 158.096C51.2024 157.905 51.2198 157.686 51.214 157.633C50.838 156.552 51.3644 155.73 51.833 155.001C52.2263 154.382 52.5676 153.85 52.4288 153.179C51.4917 148.91 53.7998 143.895 53.8981 143.681L54.4245 143.929C54.4014 143.982 52.1049 148.985 53.0015 153.058C53.1866 153.966 52.7527 154.649 52.3247 155.314C51.8735 156.02 51.4859 156.633 51.7751 157.477C51.8098 157.587 51.804 157.714 51.7751 158.143C51.7231 158.796 51.6363 159.895 51.7925 160.942C51.9313 161.816 52.3652 162.134 53.2849 162.487C53.5163 162.377 54.1642 161.758 54.5981 161.336C55.8071 160.173 56.345 159.71 56.7442 159.843C57.9011 160.161 59.2895 161.567 59.6655 161.96C60.9381 161.903 70.7548 161.446 74.4107 161.446H83.9555C87.5999 161.498 97.3529 161.903 98.6834 161.96C99.0594 161.486 100.448 159.809 101.628 159.433C101.992 159.294 102.461 159.745 103.681 161.075C104.127 161.561 104.786 162.279 105.029 162.417C105.833 162.088 106.371 161.787 106.516 160.879C106.666 159.89 106.585 158.796 106.533 158.143C106.504 157.726 106.487 157.553 106.522 157.437C106.817 156.604 106.435 156.008 105.995 155.314C105.585 154.666 105.116 153.937 105.301 152.994C106.14 148.916 103.895 143.906 103.878 143.86L104.41 143.617C104.509 143.831 106.753 148.841 105.874 153.11C105.735 153.816 106.099 154.388 106.487 154.996C106.944 155.713 107.459 156.523 107.077 157.599C107.077 157.622 107.1 157.871 107.117 158.09C107.17 158.767 107.256 159.901 107.094 160.96C106.898 162.198 106.111 162.608 105.18 162.979C104.838 163.129 104.485 162.805 103.253 161.457C102.756 160.919 102.015 160.109 101.761 159.994C100.587 160.422 99.0767 162.4 99.0594 162.423C99.0015 162.498 98.9148 162.539 98.8164 162.539C98.7065 162.539 87.8428 162.076 83.9555 162.018H74.4165C70.535 162.018 59.6713 162.533 59.5613 162.539C59.4804 162.551 59.3878 162.51 59.33 162.441C59.3126 162.423 57.7507 160.705 56.5764 160.387C56.374 160.428 55.5178 161.249 55.003 161.741C54.0254 162.678 53.5973 163.065 53.2791 163.065L53.2734 163.083Z" fill="#3F4D51"/>
<path d="M104.381 145.289C104.341 145.162 100.263 132.192 100.552 124.308C100.263 114.688 100.419 89.4491 101.547 85.932C101.807 85.1279 102.125 83.6528 102.496 81.9405C103.109 79.0828 103.878 75.531 104.85 72.7949C105.909 69.8042 107.812 68.2192 107.893 68.1555H107.899C107.737 59.3454 107.239 36.7561 106.828 35.1306C106.597 34.7951 106.342 34.6273 106.053 34.6157C105.446 34.5868 104.757 35.3099 104.549 35.5818C104.457 35.7033 104.283 35.7322 104.15 35.6454C104.127 35.6281 101.94 34.1356 99.8347 33.0018C98.1108 31.9143 94.8945 30.4739 93.5525 30.1962C90.6543 29.6467 86.8769 28.9641 83.3425 28.5823H74.5786V28.0038H83.3714C86.9579 28.3856 90.7527 29.074 93.6624 29.6293C95.0854 29.9243 98.348 31.3763 100.124 32.5043C101.848 33.4357 103.641 34.6157 104.254 35.0265C104.572 34.6736 105.272 34.0141 106.059 34.0373C106.551 34.0546 106.979 34.3265 107.326 34.8471C107.343 34.8703 107.355 34.8934 107.361 34.9166C107.887 36.5594 108.448 66.9697 108.471 68.2654C108.471 68.3464 108.442 68.4216 108.384 68.4737L108.269 68.5894C108.228 68.6241 106.383 70.1628 105.388 72.9916C104.428 75.693 103.664 79.2275 103.057 82.0678C102.687 83.7974 102.363 85.2841 102.097 86.1171C101.003 89.5127 100.847 114.971 101.13 124.314C100.847 132.117 104.891 144.988 104.937 145.115L104.381 145.289Z" fill="#3F4D51"/>
<path d="M54.0311 145.289L53.4758 145.115C53.5163 144.988 57.5656 132.117 57.2821 124.331C57.5598 114.971 57.4036 89.5127 56.3103 86.1171C56.0442 85.2898 55.7203 83.7974 55.35 82.0678C54.7369 79.2275 53.9791 75.693 53.0188 72.9916C52.018 70.157 50.1785 68.6241 50.1612 68.6067L50.0223 68.4737C49.9645 68.4158 49.9355 68.3406 49.9355 68.2596C49.9587 66.9639 50.5198 36.5536 51.0462 34.9108C51.052 34.8876 51.0636 34.8587 51.0809 34.8413C51.428 34.3207 51.8561 34.0488 52.3478 34.0315C52.3593 34.0315 52.3767 34.0315 52.3883 34.0315C53.1518 34.0315 53.8402 34.6736 54.1526 35.0207C54.7658 34.61 56.559 33.4299 58.3002 32.4928C60.0646 31.3763 63.3214 29.9243 64.7444 29.6293C67.6599 29.074 71.4547 28.3856 75.0123 28.0038H83.834V28.5823H75.0412C71.5415 28.9641 67.7583 29.6467 64.8543 30.1962C63.5181 30.4739 60.296 31.9143 58.5953 32.9902C56.4723 34.1356 54.2857 35.6281 54.2683 35.6454C54.141 35.7322 53.9675 35.7033 53.8692 35.5818C53.6609 35.3041 52.9899 34.5868 52.3651 34.6157C52.0759 34.6273 51.8214 34.7951 51.59 35.1306C51.1793 36.7561 50.6818 59.3396 50.5198 68.1497L50.5487 68.1787C50.6066 68.2249 52.5097 69.8042 53.5683 72.8007C54.5402 75.5368 55.3038 79.0944 55.9227 81.9463C56.2929 83.6586 56.6111 85.1337 56.8714 85.9377C58.0052 89.4548 58.1556 114.694 57.8664 124.331C58.1556 132.198 54.0774 145.162 54.0369 145.295L54.0311 145.289Z" fill="#3F4D51"/>
<g clip-path="url(#clip1_617_5606)">
<path d="M19.6289 61C21.5619 61 23.1289 59.433 23.1289 57.5C23.1289 55.567 21.5619 54 19.6289 54C17.6959 54 16.1289 55.567 16.1289 57.5C16.1289 59.433 17.6959 61 19.6289 61Z" fill="#242E69"/>
<path d="M19.6994 58.9271C19.6712 58.9271 19.6487 58.9186 19.6318 58.9017C19.6148 58.8848 19.6064 58.8622 19.6064 58.834V56.558L18.9323 57.0769C18.9098 57.0939 18.8872 57.0995 18.8646 57.0967C18.8393 57.0967 18.8195 57.0826 18.8026 57.06L18.6982 56.9246C18.6813 56.8993 18.6757 56.8767 18.6813 56.8513C18.6841 56.8259 18.6982 56.8062 18.7208 56.7893L19.6064 56.1068C19.6261 56.0927 19.643 56.0842 19.66 56.0814C19.6769 56.0814 19.6938 56.0786 19.7135 56.0786H19.9194C19.9476 56.0786 19.9674 56.087 19.9843 56.1039C20.0012 56.1209 20.0097 56.1434 20.0097 56.1716V58.8284C20.0097 58.8566 20.0012 58.8791 19.9843 58.896C19.9674 58.913 19.9476 58.9214 19.9194 58.9214H19.7051L19.6994 58.9271Z" fill="white"/>
</g>
<g clip-path="url(#clip2_617_5606)">
<path d="M31.6289 107C33.5619 107 35.1289 105.433 35.1289 103.5C35.1289 101.567 33.5619 100 31.6289 100C29.6959 100 28.1289 101.567 28.1289 103.5C28.1289 105.433 29.6959 107 31.6289 107Z" fill="#242E69"/>
<path d="M30.5799 104.927C30.5517 104.927 30.5291 104.919 30.5122 104.902C30.4953 104.885 30.4868 104.862 30.4868 104.834V104.704C30.4868 104.679 30.4925 104.654 30.5066 104.622C30.5207 104.591 30.546 104.56 30.5883 104.524L31.4485 103.664C31.5867 103.548 31.6967 103.446 31.7757 103.365C31.8547 103.283 31.9111 103.204 31.9449 103.128C31.9788 103.052 31.9957 102.973 31.9957 102.891C31.9957 102.736 31.9534 102.614 31.8659 102.524C31.7785 102.434 31.6516 102.389 31.4796 102.389C31.3724 102.389 31.2793 102.411 31.2004 102.456C31.1214 102.502 31.0593 102.561 31.0142 102.64C30.9691 102.716 30.9409 102.803 30.9268 102.902C30.9211 102.936 30.907 102.961 30.8845 102.975C30.8619 102.99 30.8394 102.995 30.8224 102.995H30.6109C30.5855 102.995 30.5658 102.987 30.5489 102.973C30.5319 102.959 30.5235 102.939 30.5235 102.919C30.5235 102.817 30.5489 102.713 30.5883 102.609C30.6278 102.504 30.6899 102.411 30.7688 102.327C30.8478 102.242 30.9465 102.174 31.065 102.121C31.1834 102.067 31.3188 102.042 31.4767 102.042C31.6911 102.042 31.8659 102.081 32.0013 102.158C32.1367 102.234 32.2382 102.338 32.3031 102.465C32.368 102.592 32.4018 102.733 32.4018 102.882C32.4018 103.001 32.3821 103.111 32.3398 103.21C32.3003 103.308 32.241 103.404 32.1621 103.497C32.0831 103.59 31.99 103.686 31.8744 103.782L31.096 104.575H32.3623C32.3933 104.575 32.4159 104.583 32.4328 104.6C32.4497 104.617 32.4582 104.639 32.4582 104.668V104.834C32.4582 104.862 32.4497 104.885 32.4328 104.902C32.4159 104.919 32.3905 104.927 32.3623 104.927H30.5714H30.5799Z" fill="white"/>
</g>
<g clip-path="url(#clip3_617_5606)">
<path d="M120.629 157C122.562 157 124.129 155.433 124.129 153.5C124.129 151.567 122.562 150 120.629 150C118.696 150 117.129 151.567 117.129 153.5C117.129 155.433 118.696 157 120.629 157Z" fill="#242E69"/>
<path d="M120.499 154.967C120.33 154.967 120.181 154.947 120.054 154.905C119.927 154.862 119.82 154.806 119.732 154.735C119.645 154.665 119.58 154.589 119.535 154.504C119.49 154.419 119.467 154.335 119.464 154.245C119.464 154.219 119.473 154.202 119.49 154.188C119.507 154.174 119.526 154.168 119.552 154.168H119.752C119.777 154.168 119.797 154.174 119.817 154.185C119.837 154.197 119.851 154.219 119.865 154.256C119.893 154.355 119.938 154.428 120.006 154.484C120.074 154.538 120.15 154.575 120.237 154.597C120.325 154.617 120.415 154.628 120.502 154.628C120.688 154.628 120.841 154.583 120.956 154.493C121.072 154.402 121.131 154.273 121.131 154.098C121.131 153.923 121.078 153.796 120.973 153.72C120.869 153.644 120.722 153.607 120.536 153.607H120.15C120.121 153.607 120.099 153.599 120.082 153.582C120.065 153.565 120.057 153.542 120.057 153.514V153.404C120.057 153.379 120.062 153.359 120.071 153.342C120.079 153.325 120.09 153.308 120.102 153.294L120.889 152.434H119.69C119.662 152.434 119.642 152.425 119.622 152.409C119.603 152.392 119.597 152.369 119.597 152.341V152.186C119.597 152.155 119.605 152.132 119.622 152.115C119.639 152.098 119.662 152.09 119.69 152.09H121.309C121.34 152.09 121.362 152.098 121.379 152.115C121.396 152.132 121.405 152.158 121.405 152.186V152.332C121.405 152.352 121.399 152.369 121.391 152.383C121.382 152.397 121.371 152.411 121.36 152.425L120.576 153.3H120.64C120.818 153.308 120.976 153.342 121.109 153.401C121.244 153.461 121.345 153.551 121.422 153.666C121.495 153.785 121.534 153.932 121.534 154.112C121.534 154.293 121.489 154.448 121.399 154.577C121.309 154.707 121.188 154.803 121.03 154.871C120.872 154.938 120.694 154.972 120.497 154.972L120.499 154.967Z" fill="white"/>
</g>
</g>
<defs>
<clipPath id="clip0_617_5606">
<rect width="158.681" height="199" fill="white" transform="translate(0.128906)"/>
</clipPath>
<clipPath id="clip1_617_5606">
<rect width="7" height="7" fill="white" transform="translate(16.1289 54)"/>
</clipPath>
<clipPath id="clip2_617_5606">
<rect width="7" height="7" fill="white" transform="translate(28.1289 100)"/>
</clipPath>
<clipPath id="clip3_617_5606">
<rect width="7" height="7" fill="white" transform="translate(117.129 150)"/>
</clipPath>
</defs>
</svg>
