<svg width="13" height="16" viewBox="0 0 13 16" fill="none" xmlns="http://www.w3.org/2000/svg">
<path d="M12.2793 9.18182C12.2793 7.84025 12.2793 6.5021 12.2793 5.16054C12.2954 4.97715 12.2418 4.79445 12.1295 4.64917C12.0171 4.50389 11.8543 4.40679 11.6737 4.37739C11.5748 4.36052 11.4735 4.3646 11.3763 4.38937C11.2791 4.41413 11.1881 4.45903 11.1091 4.5212C11.0302 4.58338 10.9649 4.66145 10.9177 4.75043C10.8704 4.83941 10.842 4.93734 10.8345 5.03796C10.8345 5.10265 10.8345 5.16394 10.8345 5.22523V13.0805C10.8463 13.2766 10.8167 13.473 10.7476 13.6568C10.6786 13.8406 10.5717 14.0076 10.434 14.1469C10.2962 14.2861 10.1308 14.3944 9.94844 14.4648C9.76613 14.5351 9.5711 14.5658 9.37616 14.5549H3.62395C3.43021 14.5656 3.23639 14.5353 3.05506 14.4657C2.87374 14.3962 2.70897 14.2891 2.57145 14.1514C2.43393 14.0136 2.32673 13.8483 2.25681 13.6662C2.18689 13.484 2.15581 13.2891 2.16559 13.0941V5.15713C2.18012 4.98033 2.13004 4.80427 2.02477 4.66197C1.91949 4.51967 1.76623 4.4209 1.59375 4.3842C1.4984 4.36304 1.39976 4.36178 1.30391 4.38051C1.20805 4.39923 1.11704 4.43754 1.03648 4.49307C0.955933 4.5486 0.887556 4.62017 0.835581 4.70335C0.783606 4.78653 0.749135 4.87955 0.734305 4.97667C0.72758 5.05483 0.72758 5.13344 0.734305 5.21161C0.734305 7.84025 0.734305 10.47 0.734305 13.1009C0.722252 13.7837 0.955053 14.4479 1.39005 14.9719C1.82505 15.4959 2.43312 15.8447 3.10286 15.9543C3.2706 15.9827 3.44032 15.9975 3.61041 15.9986H9.4303C9.80791 16.0036 10.1827 15.9326 10.5326 15.7897C10.8826 15.6468 11.2006 15.4349 11.4679 15.1665C11.7353 14.8981 11.9466 14.5786 12.0894 14.2268C12.2323 13.875 12.3037 13.498 12.2996 13.118C12.2827 11.8036 12.2793 10.4927 12.2793 9.18182Z" fill="#EB4643"/>
<path d="M3.61372 2.18021H3.09941C2.32117 2.18021 1.54293 2.18021 0.764687 2.18021C0.648607 2.17366 0.532667 2.19534 0.42667 2.24341C0.320672 2.29147 0.227735 2.36451 0.155716 2.45636C0.0836964 2.5482 0.0347118 2.65615 0.0129061 2.77107C-0.00890064 2.88598 -0.00288773 3.0045 0.0304346 3.11658C0.0717916 3.25666 0.154423 3.38081 0.267403 3.47261C0.380382 3.56442 0.518388 3.61955 0.663176 3.63073H12.2184C12.3186 3.63827 12.4194 3.6248 12.5142 3.59118C12.6091 3.55757 12.6959 3.50453 12.7694 3.43542C12.8428 3.36631 12.9012 3.28263 12.9409 3.18965C12.9806 3.09668 13.0007 2.99644 13 2.89526C12.9984 2.79568 12.9767 2.69747 12.9362 2.60659C12.8957 2.5157 12.8373 2.43403 12.7646 2.36654C12.6918 2.29904 12.6061 2.24711 12.5128 2.21392C12.4195 2.18072 12.3205 2.16693 12.2217 2.1734H9.38624V1.98953C9.38624 1.58094 9.38624 1.17234 9.38624 0.763742C9.39156 0.662461 9.37572 0.561183 9.33973 0.466448C9.30373 0.371713 9.2484 0.285627 9.17729 0.213751C9.10618 0.141874 9.02088 0.085805 8.9269 0.0491636C8.83292 0.0125222 8.73235 -0.00387666 8.63168 0.00102649C7.21055 0.00102649 5.78941 0.00102649 4.36828 0.00102649C4.26778 -0.00437255 4.16727 0.0115703 4.07329 0.0478192C3.97932 0.0840682 3.89397 0.139812 3.82281 0.211426C3.75164 0.283041 3.69625 0.368925 3.66022 0.463494C3.6242 0.558064 3.60836 0.659202 3.61372 0.760337C3.61034 1.22682 3.61372 1.6899 3.61372 2.18021ZM7.93465 2.18021H5.06531V1.46517H7.93465V2.18021Z" fill="#EB4643"/>
<path d="M8.65545 9.07378C8.65545 8.22934 8.65545 7.37129 8.65545 6.53707C8.65459 6.36782 8.59438 6.2043 8.48543 6.07536C8.37648 5.94641 8.22579 5.86031 8.05993 5.83224C7.90308 5.80305 7.74103 5.82781 7.59986 5.90254C7.4587 5.97728 7.34662 6.09763 7.28168 6.24424C7.23604 6.3591 7.21195 6.48148 7.21062 6.60517C7.21062 8.26453 7.21062 9.92162 7.21062 11.5764C7.20314 11.6773 7.21652 11.7787 7.24993 11.8742C7.28334 11.9696 7.33604 12.057 7.40472 12.1309C7.4734 12.2048 7.55655 12.2636 7.64894 12.3036C7.74133 12.3435 7.84094 12.3637 7.9415 12.363C8.04062 12.3614 8.13837 12.3395 8.22876 12.2985C8.31915 12.2575 8.40027 12.1984 8.46712 12.1247C8.53398 12.0511 8.58518 11.9644 8.61756 11.8702C8.64994 11.7759 8.66284 11.6759 8.65545 11.5764V9.07378Z" fill="#EB4643"/>
<path d="M4.33444 9.10634C4.33444 9.95418 4.33444 10.8088 4.33444 11.6431C4.33175 11.8039 4.38306 11.961 4.48008 12.0889C4.57709 12.2168 4.71414 12.3081 4.86906 12.3479C5.0208 12.3909 5.18258 12.3806 5.32773 12.3187C5.47289 12.2568 5.59276 12.147 5.6676 12.0074C5.73535 11.8781 5.77241 11.7347 5.77588 11.5886C5.77588 9.92013 5.77588 8.25169 5.77588 6.58325C5.78104 6.48346 5.76565 6.38366 5.73067 6.29013C5.6957 6.19661 5.64189 6.11136 5.57263 6.03975C5.50337 5.96813 5.42015 5.91169 5.32819 5.87397C5.23623 5.83625 5.13752 5.81806 5.03824 5.82054C4.94078 5.82171 4.84457 5.84286 4.7555 5.8827C4.66643 5.92253 4.58635 5.98022 4.52017 6.05223C4.45399 6.12425 4.40309 6.20908 4.37058 6.30155C4.33806 6.39402 4.32462 6.49219 4.33106 6.59006C4.33106 7.42428 4.33444 8.2585 4.33444 9.10634Z" fill="#EB4643"/>
</svg>
