<svg width="24" height="24" viewBox="0 0 24 24" fill="none" xmlns="http://www.w3.org/2000/svg">
<path d="M18.834 14.5795C18.7962 14.5604 18.7639 14.5321 18.7401 14.4971C18.7163 14.4621 18.7018 14.4216 18.698 14.3795L18.198 8.91346C18.0562 7.36711 17.3417 5.92954 16.1947 4.88284C15.0476 3.83614 13.5508 3.25586 11.998 3.25586C10.4452 3.25586 8.94837 3.83614 7.80132 4.88284C6.65427 5.92954 5.93976 7.36711 5.798 8.91346L5.3 14.3805C5.29638 14.4227 5.28197 14.4632 5.25815 14.4982C5.23434 14.5333 5.20191 14.5616 5.164 14.5805C4.5774 14.8825 4.1203 15.3871 3.87755 16.0006C3.63479 16.6141 3.62287 17.2948 3.844 17.9165C4.02253 18.4526 4.36572 18.9187 4.82467 19.2484C5.28363 19.5781 5.83492 19.7545 6.4 19.7525H17.605C18.2149 19.7434 18.8045 19.5312 19.2803 19.1494C19.7561 18.7677 20.091 18.2382 20.232 17.6447C20.373 17.0512 20.3121 16.4276 20.0589 15.8726C19.8057 15.3176 19.3747 14.8619 18.834 14.5795ZM10 22.5005C9.73478 22.5005 9.48043 22.3951 9.29289 22.2076C9.10536 22.02 9 21.7657 9 21.5005C9 21.2352 9.10536 20.9809 9.29289 20.7934C9.48043 20.6058 9.73478 20.5005 10 20.5005H14C14.2652 20.5005 14.5196 20.6058 14.7071 20.7934C14.8946 20.9809 15 21.2352 15 21.5005C15 21.7657 14.8946 22.02 14.7071 22.2076C14.5196 22.3951 14.2652 22.5005 14 22.5005H10Z" fill="black"/>
<path d="M14 22.25H10C9.80109 22.25 9.61032 22.171 9.46967 22.0303C9.32902 21.8897 9.25 21.6989 9.25 21.5C9.25 21.3011 9.32902 21.1103 9.46967 20.9697C9.61032 20.829 9.80109 20.75 10 20.75H14C14.1989 20.75 14.3897 20.829 14.5303 20.9697C14.671 21.1103 14.75 21.3011 14.75 21.5C14.75 21.6989 14.671 21.8897 14.5303 22.0303C14.3897 22.171 14.1989 22.25 14 22.25ZM12 5C11.7348 5 11.4804 4.89464 11.2929 4.70711C11.1054 4.51957 11 4.26522 11 4V2C11 1.73478 11.1054 1.48043 11.2929 1.29289C11.4804 1.10536 11.7348 1 12 1C12.2652 1 12.5196 1.10536 12.7071 1.29289C12.8946 1.48043 13 1.73478 13 2V4C13 4.26522 12.8946 4.51957 12.7071 4.70711C12.5196 4.89464 12.2652 5 12 5Z" fill="black"/>
<path d="M12 4.75C11.8011 4.75 11.6103 4.67098 11.4697 4.53033C11.329 4.38968 11.25 4.19891 11.25 4V2C11.25 1.80109 11.329 1.61032 11.4697 1.46967C11.6103 1.32902 11.8011 1.25 12 1.25C12.1989 1.25 12.3897 1.32902 12.5303 1.46967C12.671 1.61032 12.75 1.80109 12.75 2V4C12.75 4.19891 12.671 4.38968 12.5303 4.53033C12.3897 4.67098 12.1989 4.75 12 4.75Z" fill="black"/>
</svg>
