<svg width="15" height="15" viewBox="0 0 15 15" fill="none" xmlns="http://www.w3.org/2000/svg">
<g clip-path="url(#clip0_329_939)">
<path d="M7.46382 14.9965C6.73992 14.9965 6.01599 14.9699 5.29209 14.9091C4.40075 14.8891 3.52299 14.6875 2.71275 14.3167C2.02652 13.9529 1.4339 13.436 0.981181 12.8062C0.528464 12.1765 0.227861 11.451 0.102861 10.6863C0.0710469 10.4813 0.0507289 10.2746 0.0419344 10.0674C-0.0114057 8.3395 -0.0152157 6.60787 0.0419344 4.88002C0.0876383 3.6122 0.614659 2.40897 1.51645 1.51367C2.41825 0.618372 3.62752 0.0978017 4.89969 0.0572302C6.0427 0.0192555 7.15904 0.0230539 8.29061 0.0344463C9.05261 0.0344463 12.3711 -0.250365 11.971 1.19647C11.9119 1.39451 11.7765 1.56117 11.5945 1.66006C11.4124 1.75896 11.1986 1.78207 10.9995 1.72432C8.9345 1.37875 6.72089 1.47369 4.62157 1.6028C3.84008 1.67559 3.10902 2.01964 2.55611 2.5749C2.0032 3.13015 1.66354 3.86133 1.5964 4.64078C1.50877 6.53951 1.50877 8.43825 1.5964 10.337C1.65988 11.1177 1.99839 11.851 2.55202 12.407C3.10565 12.9629 3.83873 13.3058 4.62157 13.375C6.52658 13.4585 8.43158 13.4623 10.3366 13.375C11.1208 13.3036 11.8552 12.9606 12.412 12.4056C12.9689 11.8506 13.313 11.1186 13.3846 10.337C13.476 9.06863 13.4532 7.78888 13.476 6.51673C13.476 6.37622 13.476 6.2357 13.476 6.09899C13.4642 5.99247 13.4751 5.88465 13.5081 5.78264C13.541 5.68062 13.5953 5.58673 13.6673 5.5071C13.7392 5.42747 13.8273 5.36391 13.9257 5.32063C14.024 5.27735 14.1305 5.25531 14.238 5.25597C14.3441 5.25554 14.4492 5.2772 14.5464 5.31957C14.6436 5.36194 14.7309 5.42409 14.8026 5.50202C14.8743 5.57995 14.929 5.67195 14.963 5.77214C14.997 5.87232 15.0096 5.97848 15 6.08381C15 7.16989 15 8.25977 14.981 9.34585C14.9791 9.85484 14.9358 10.3628 14.8514 10.8648C14.7108 11.5602 14.4247 12.2183 14.0118 12.796C13.5989 13.3738 13.0684 13.8583 12.4549 14.218C11.2624 14.9129 9.86032 14.9775 8.51539 15.0117C8.16106 14.9965 7.81434 15.0003 7.46382 14.9965Z" fill="#808080"/>
</g>
<defs>
<clipPath id="clip0_329_939">
<rect width="15" height="15" fill="white"/>
</clipPath>
</defs>
</svg>
