<svg width="173" height="52" viewBox="0 0 173 52" fill="none" xmlns="http://www.w3.org/2000/svg">
<g clip-path="url(#clip0_235_821)">
<path d="M151.87 23.8943C149.206 18.6675 142.752 11.6095 126.046 12.9114C124.327 13.02 122.623 12.5208 121.222 11.4978C108.555 2.55507 99.9118 0.568334 90.0034 0.126297C87.8581 0.0291463 85.6557 0.00485754 83.3438 0H81.0035C58.9653 0 48.7524 5.97478 46.0173 7.9178C45.4581 8.31215 44.7941 8.52233 44.1145 8.52013H24.5356C24.3984 8.52013 24.2625 8.49246 24.1358 8.43869C24.0091 8.38493 23.8941 8.30613 23.7973 8.20684C23.7005 8.10754 23.6238 7.98969 23.5717 7.86006C23.5197 7.73044 23.4932 7.59158 23.4938 7.45147C23.4926 7.16889 23.3818 6.89832 23.1856 6.69895C22.9895 6.49959 22.7241 6.38767 22.4473 6.38767H20.1308C19.854 6.38767 19.5886 6.49959 19.3925 6.69895C19.1963 6.89832 19.0855 7.16889 19.0843 7.45147V9.58879C19.0855 9.87182 19.1962 10.1429 19.3922 10.343C19.5882 10.5432 19.8536 10.6562 20.1308 10.6575H30.7051C30.8313 10.6575 30.9523 10.7086 31.0415 10.7997C31.1307 10.8908 31.1808 11.0144 31.1808 11.1432C31.1808 11.272 31.1307 11.3956 31.0415 11.4867C30.9523 11.5778 30.8313 11.629 30.7051 11.629C19.579 11.7407 18.3137 21.8298 18.3375 26.527C18.3377 27.1746 18.1039 27.7994 17.6807 28.2817C17.2576 28.764 16.675 29.0698 16.0447 29.1404L0 30.8648H16.5441C17.1608 30.8663 17.7715 30.7417 18.3403 30.4982C18.909 30.2548 19.4243 29.8976 19.8557 29.4476C20.287 28.9975 20.6258 28.4639 20.852 27.878C21.0781 27.2922 21.1871 26.666 21.1725 26.0364C21.0346 20.6931 23.0752 18.3227 24.3929 18.4052C28.8785 18.4052 31.8991 29.5242 31.8991 29.5242C32.4556 20.6688 28.8072 18.1769 26.6666 16.6517C26.4235 16.4794 26.2336 16.2399 26.1192 15.9613C26.0047 15.6826 25.9704 15.3765 26.0204 15.0787C26.0703 14.7809 26.2024 14.5038 26.4011 14.2799C26.5998 14.0561 26.8569 13.8947 27.1423 13.8149C31.0286 12.7656 39.51 13.7226 39.51 13.7226C47.1208 18.5121 56.7105 17.9826 56.7105 17.9826C52.2296 17.3414 41.6981 12.1244 41.6981 12.1244C61.201 18.619 79.3386 16.982 79.3386 16.982C74.4106 21.1352 75.5855 27.3625 75.5855 27.3625C75.5855 22.573 81.5268 18.7404 83.9194 18.7404C92.1772 18.7404 94.7411 29.1161 94.7411 29.1161C95.9113 19.6148 86.9876 16.8897 86.9876 16.8897C96.211 16.8897 108.255 19.6585 108.255 19.6585C99.184 14.6018 83.9194 14.7329 83.9194 14.7329C83.9194 14.7329 72.9788 3.80346 73.7542 2.95339C76.6939 2.22476 80.7562 2.12275 84.9136 2.21504C87.4062 2.26847 89.932 2.39477 92.2724 2.50164C94.3416 2.59393 96.2681 2.67165 97.8901 2.67165C103.831 2.67165 118.625 11.7115 121.17 13.3C121.198 13.3158 121.22 13.3403 121.233 13.37C121.246 13.3996 121.249 13.4327 121.242 13.4644C121.235 13.4961 121.218 13.5246 121.194 13.5457C121.17 13.5669 121.14 13.5795 121.108 13.5817L102.58 14.8398C141.372 17.0694 143.037 14.014 149.792 25.4195C149.867 25.5464 149.909 25.6908 149.914 25.8389C149.919 25.9871 149.887 26.1341 149.82 26.266C149.754 26.3979 149.656 26.5103 149.535 26.5926C149.414 26.6748 149.275 26.7242 149.13 26.7359L115.291 29.5047H148.493C149.138 29.499 149.77 29.3262 150.332 29.0025C150.893 28.6787 151.364 28.2147 151.702 27.6539C152.04 27.0931 152.232 26.4539 152.262 25.7963C152.291 25.1387 152.156 24.4842 151.87 23.8943ZM80.2757 15.4373C79.1055 15.9813 74.8054 16.4088 74.4106 15.0244C74.0158 13.64 76.789 11.833 76.1516 10.9538C75.5142 10.0745 69.8536 9.22447 67.3182 12.1584C67.2419 12.2454 67.186 12.3489 67.1545 12.4612C67.1231 12.5735 67.117 12.6915 67.1367 12.8066C67.1564 12.9216 67.2013 13.0305 67.2682 13.1253C67.3351 13.22 67.4221 13.298 67.5227 13.3534C68.7147 13.9185 70.014 14.2088 71.3282 14.2035C71.4418 14.1987 71.5545 14.2251 71.6547 14.2799C71.755 14.3346 71.839 14.4158 71.8982 14.5149C71.9574 14.614 71.9896 14.7274 71.9914 14.8435C71.9932 14.9595 71.9646 15.074 71.9085 15.175C71.7701 15.4331 71.5621 15.6454 71.3092 15.7866C71.0563 15.9278 70.769 15.992 70.4815 15.9716C69.2304 15.9716 51.987 15.1701 46.4596 10.6817C46.4596 10.6817 52.8671 4.67296 64.6782 3.39542C66.6459 3.17739 68.6326 3.56118 70.3863 4.49809C73.3023 6.00878 76.9412 9.23905 80.2757 15.4373Z" fill="white"/>
<path d="M77.0649 14.8789C76.5117 14.9097 75.9579 14.8322 75.4333 14.6506C75.6507 14.2083 75.9189 13.7941 76.2324 13.4167C76.5342 13.0495 76.8017 12.6543 77.0316 12.2364L77.0601 12.1878C77.6024 12.965 78.1494 13.8151 78.6917 14.7526C78.1534 14.8376 77.6095 14.8798 77.0649 14.8789ZM68.1601 14.7671C66.2289 14.636 63.332 14.3882 60.2448 13.9316C54.7697 13.1253 50.6694 11.9886 48.2529 10.5799C49.3559 9.76468 50.5166 9.03405 51.7254 8.39404C55.8053 6.23863 60.2463 4.88734 64.8161 4.41086C65.1321 4.37644 65.4496 4.3586 65.7675 4.35742C67.212 4.35731 68.6351 4.71395 69.9154 5.39694C71.718 6.40717 73.3407 7.72098 74.715 9.28297C74.0396 9.16219 73.3553 9.10044 72.6696 9.09838C71.1426 9.09838 68.3123 9.40441 66.5285 11.4737C66.3458 11.6794 66.2112 11.9249 66.1351 12.1915C66.059 12.4582 66.0432 12.739 66.089 13.0128C66.1348 13.2866 66.2411 13.5461 66.3996 13.7718C66.5582 13.9975 66.7649 14.1834 67.0042 14.3154C67.3756 14.5008 67.7624 14.652 68.1601 14.7671Z" fill="#EB4643"/>
<path d="M109.987 17.2144C111.652 17.1561 113.317 17.0979 114.986 17.0541C115.819 17.0541 116.651 17.0056 117.484 16.991L119.986 16.9473C120.823 16.9473 121.655 16.9473 122.493 16.9473C123.33 16.9473 124.157 16.9473 124.995 16.9473C125.832 16.9473 126.664 16.9473 127.501 16.9958C128.339 17.0444 129.171 17.0541 130.008 17.0979C130.845 17.1416 131.678 17.1999 132.515 17.2679C133.352 17.3359 134.189 17.4184 135.022 17.5156C135.854 17.6127 136.692 17.7439 137.524 17.8896C138.356 18.0354 139.184 18.2199 140.007 18.4385C140.421 18.5503 140.83 18.6668 141.239 18.8028L141.544 18.9049L141.848 19.0117C142.052 19.0846 142.252 19.172 142.452 19.2497C142.852 19.4198 143.246 19.5946 143.636 19.8035C143.832 19.9007 144.022 20.0221 144.212 20.1338L144.493 20.3135C144.583 20.3718 144.673 20.4398 144.764 20.5078C144.949 20.6341 145.125 20.7799 145.301 20.9207L145.553 21.1539L145.677 21.2753L145.796 21.4016C146.117 21.742 146.396 22.1203 146.629 22.5286L146.79 22.8443L146.923 23.1795C147.007 23.4024 147.073 23.6314 147.123 23.8644C147.219 24.3272 147.255 24.8007 147.233 25.2731C147.231 25.3687 147.201 25.4617 147.148 25.5403C147.095 25.6189 147.02 25.6798 146.933 25.7151L146.805 25.7637H146.705H146.614H146.524H146.357L146.196 25.788L145.568 25.8463L144.326 25.9192C143.499 25.958 142.68 25.9872 141.857 26.0066C140.212 26.0503 138.57 26.0746 136.929 26.0892C135.288 26.1037 133.642 26.1183 132.001 26.1232C130.36 26.128 128.719 26.1232 127.078 26.1232C128.719 26.0454 130.356 25.958 131.997 25.8706C133.638 25.7831 135.274 25.686 136.91 25.584C138.547 25.482 140.183 25.3702 141.819 25.2439C142.633 25.1808 143.451 25.1128 144.26 25.0302C144.669 24.9914 145.073 24.9476 145.473 24.8942C145.672 24.8699 145.872 24.8408 146.062 24.8068L146.205 24.7825L146.343 24.7533H146.405H146.467H146.514L146.215 25.2051C146.235 24.4492 146.049 23.7025 145.677 23.0483C145.483 22.726 145.253 22.4277 144.992 22.1594L144.892 22.0574L144.788 21.9554L144.574 21.7659C144.421 21.6394 144.262 21.521 144.098 21.4113C144.022 21.3519 143.942 21.2967 143.86 21.2462L143.608 21.0859C143.437 20.9887 143.27 20.8867 143.089 20.7993C142.736 20.619 142.374 20.4569 142.005 20.3135C141.815 20.2407 141.629 20.163 141.439 20.095L141.153 19.9929L140.868 19.8958C140.483 19.7646 140.093 19.6481 139.698 19.5363C138.913 19.3177 138.109 19.1429 137.319 18.9826C136.53 18.8223 135.702 18.6863 134.884 18.5697C133.248 18.3317 131.597 18.1617 129.942 18.0256C129.119 17.9625 128.286 17.9042 127.459 17.8508C126.631 17.7973 125.799 17.7585 124.971 17.7196L122.473 17.6225C121.641 17.5933 120.809 17.5642 119.976 17.5447L117.479 17.4816L114.982 17.4282L112.479 17.3747L109.982 17.3116C109.97 17.3116 109.957 17.3065 109.949 17.2974C109.94 17.2882 109.935 17.2759 109.935 17.263C109.936 17.2497 109.942 17.2373 109.951 17.2283C109.961 17.2193 109.974 17.2144 109.987 17.2144Z" fill="#EB4643"/>
<path d="M53.3809 24.1227H52.4962H51.6114H49.8704H48.9856H48.1009H47.2209H46.3361L44.5761 24.0742L42.8113 24.0159L41.0513 23.943L39.2865 23.8604L39.981 22.8646C40.157 23.2532 40.3283 23.6467 40.5043 24.0402L41.0228 25.2157L42.0455 27.5813L41.3938 27.0956L42.9017 27.2121L44.4048 27.3287L45.908 27.4599L47.4111 27.591L48.9143 27.727L50.4174 27.8776L51.169 27.9505L51.9206 28.0331L53.419 28.1934L54.9221 28.3585L56.4205 28.5382L57.9189 28.7228L59.384 28.922L60.8824 29.126C61.3819 29.194 61.8813 29.2717 62.3808 29.3446C62.8802 29.4175 63.3797 29.4952 63.8744 29.5778C64.3691 29.6603 64.8733 29.738 65.3681 29.8303C64.8638 29.8303 64.3596 29.8303 63.8554 29.8303H62.3427H60.8301L59.3174 29.7915L57.8095 29.7429C57.3053 29.7429 56.8011 29.7089 56.3016 29.6846L54.7937 29.6215L53.2858 29.5437L51.7731 29.4077L51.0168 29.364L50.2652 29.3203L48.7573 29.2231L47.2542 29.1163C46.7499 29.0823 46.2505 29.0483 45.7463 29.0046L44.2431 28.888C43.7389 28.854 43.2394 28.8103 42.74 28.7665L41.2368 28.6402C41.097 28.6272 40.9635 28.5749 40.851 28.4892C40.7385 28.4034 40.6515 28.2876 40.5994 28.1545L39.648 25.7694L39.1724 24.5745C39.0106 24.1762 38.8489 23.7827 38.6967 23.3795V23.3455C38.6636 23.2594 38.6474 23.1675 38.649 23.075C38.6507 22.9825 38.6702 22.8912 38.7064 22.8064C38.7427 22.7216 38.7949 22.6449 38.8602 22.5807C38.9254 22.5165 39.0024 22.4661 39.0867 22.4323C39.1876 22.3903 39.2969 22.3736 39.4054 22.3837L41.1607 22.5537L42.916 22.7335L44.6712 22.9229L46.4217 23.1269L47.297 23.2338L48.1722 23.3455L49.0522 23.4572L49.8704 23.5787L50.7457 23.7001L51.6209 23.8264L52.4914 23.9624C52.8006 24.0207 53.0908 24.0644 53.3809 24.1227Z" fill="#EB4643"/>
<path d="M110.505 8.73948L110.029 8.57918L108.75 8.09343C108.203 7.88941 107.532 7.64167 106.771 7.35022C106.01 7.05877 105.149 6.73331 104.212 6.37871L101.244 5.19833C100.703 5.00768 100.154 4.84554 99.5977 4.71258L99.1696 4.61542L98.732 4.52313L98.2896 4.44541L97.8377 4.38226C97.2285 4.30491 96.6154 4.26436 96.0016 4.26082H94.0513H93.9038C92.6338 4.26082 91.3494 4.26082 90.0651 4.26082C88.7808 4.26082 87.5725 4.26082 86.3405 4.26082H86.0837H84.1286H82.2259C80.9749 4.26082 79.7666 4.21711 78.6155 4.18796H78.3443H78.273C78.1764 4.20129 78.0838 4.23611 78.0019 4.28997C77.9194 4.34061 77.8455 4.40459 77.783 4.47941C77.693 4.59459 77.631 4.72991 77.602 4.8743C77.5731 5.01868 77.5781 5.16801 77.6166 5.31005C77.6451 5.40164 77.6868 5.4884 77.7402 5.5675C77.7554 5.58144 77.7683 5.59785 77.7783 5.61608L77.8449 5.68894C77.8877 5.7278 77.9257 5.77152 77.9686 5.81524C78.6773 6.53901 79.3242 7.2045 79.8951 7.79712C80.4659 8.38974 80.9606 8.91435 81.3649 9.34181C81.7692 9.76928 82.0879 10.1093 82.3163 10.3425L82.6445 10.6971L82.2735 10.3862L81.2365 9.49726C80.7893 9.10865 80.2471 8.64233 79.6287 8.09828L77.5642 6.26213L77.4976 6.19898L77.4596 6.16984L77.3882 6.10669L77.3026 6.00468C77.1975 5.87542 77.1139 5.72936 77.0552 5.57236C76.9458 5.24152 76.9458 4.88312 77.0552 4.55228C77.1075 4.37796 77.1879 4.21379 77.2931 4.06652C77.4001 3.91763 77.5322 3.78934 77.6832 3.68763C77.8355 3.58049 78.0067 3.5046 78.1874 3.46418L78.3253 3.43504H78.3967H78.6916C79.8427 3.40589 81.07 3.38161 82.302 3.36218L84.2047 3.33789C84.6804 3.33789 85.1941 3.33789 85.6936 3.33789H86.1693C87.4822 3.33789 88.8188 3.33789 90.1507 3.33789H93.0048H94.1322H96.0111C96.6677 3.35467 97.3224 3.41633 97.9709 3.52248C98.596 3.61991 99.2142 3.75947 99.8213 3.94022C100.402 4.109 100.972 4.31339 101.529 4.55228C101.667 4.61057 101.8 4.66886 101.929 4.732L102.314 4.90688L103.065 5.25176L104.492 5.91239C105.401 6.33985 106.238 6.73331 106.976 7.08791C107.713 7.44252 108.35 7.75825 108.878 8.0157C109.406 8.27315 109.83 8.50146 110.101 8.61804L110.505 8.73948Z" fill="#EB4643"/>
<path d="M152.265 26.2012L173 29.5432H148.493" fill="white"/>
<path d="M127.891 49.2305H46.2312L9.26611 50.2943L44.5806 51.9993H126.621L163.734 50.2943L127.891 49.2305Z" fill="#EB4643"/>
<path d="M11.5351 45.821L8.01982 42.4207H4.80898V45.821H2.77783V35.4355H11.088C13.2475 35.4355 14.0039 36.2953 14.0039 38.6512V39.2827C14.0039 41.8232 13.0525 42.3964 10.5552 42.3964L14.3273 45.7967L11.5351 45.821ZM12.0393 39.0204C12.0393 38.01 11.9204 37.5243 11.0499 37.5243H4.80898V40.7448H11.0499C11.7587 40.7448 12.0393 40.4242 12.0393 39.5207V39.0204Z" fill="white"/>
<path d="M25.7913 45.821L24.5213 43.3922H18.385L17.1149 45.821H14.8364L20.4114 35.4355H22.4949L28.0698 45.821H25.7913ZM21.4626 37.4709L19.1556 41.7746H23.7697L21.4626 37.4709Z" fill="white"/>
<path d="M31.1189 42.4547V45.821H29.1211V35.4355H36.732C39.0676 35.4355 39.8096 36.1885 39.8096 38.5881V39.5256C39.8096 41.6532 39.0676 42.4401 36.732 42.4401L31.1189 42.4547ZM37.8451 38.5687C37.8451 37.7526 37.5501 37.466 36.751 37.466H31.1189V40.5797H36.751C37.5501 40.5797 37.8451 40.2639 37.8451 39.5207V38.5687Z" fill="white"/>
<path d="M41.3081 45.821V35.4355H43.3012V45.821H41.3081Z" fill="white"/>
<path d="M45.1133 45.821V35.4355H53.6755C56.1443 35.4355 56.8673 36.2662 56.8673 38.8018V42.4547C56.8673 45.0098 56.1443 45.821 53.6755 45.821H45.1133ZM54.8742 38.8164C54.8742 37.7915 54.5508 37.4854 53.6803 37.4854H47.1016V43.8002H53.6755C54.5746 43.8002 54.8695 43.5136 54.8695 42.4838L54.8742 38.8164Z" fill="white"/>
<path d="M71.8895 45.821L68.3694 42.4207H65.1586V45.821H63.1465V35.4355H71.4614C73.621 35.4355 74.3725 36.2953 74.3725 38.6512V39.2827C74.3725 41.8232 73.4212 42.3964 70.9286 42.3964L74.696 45.7967L71.8895 45.821ZM72.3937 39.0204C72.3937 38.01 72.2748 37.5243 71.3995 37.5243H65.1586V40.7448H71.3995C72.1083 40.7448 72.3937 40.4242 72.3937 39.5207V39.0204Z" fill="white"/>
<path d="M75.9092 45.821V35.4355H85.6844V37.4854H77.907V39.783H85.4656V41.4589H77.907V43.7857H85.6844V45.821H75.9092Z" fill="white"/>
<path d="M96.3206 45.821L89.1473 38.1509V45.8064H87.2446V35.4355H89.3899L96.3682 42.955V35.4355H98.2709V45.821H96.3206Z" fill="white"/>
<path d="M103.146 45.821V37.4854H99.436V35.4355H108.854V37.4854H105.144V45.821H103.146Z" fill="white"/>
<path d="M124.904 45.821L123.634 43.3922H117.498L116.223 45.821H113.949L119.524 35.4355H121.608L127.183 45.821H124.904ZM120.571 37.4709L118.264 41.7746H122.878L120.571 37.4709Z" fill="white"/>
<path d="M135.968 45.8212C133.542 45.8212 132.8 45.0391 132.8 42.4549V38.802C132.8 36.2033 133.542 35.4358 135.968 35.4358H141.676C142.187 35.4062 142.694 35.5363 143.13 35.8089C143.566 36.0814 143.91 36.4834 144.117 36.961L142.842 38.2871C142.737 38.03 142.554 37.8137 142.321 37.6696C142.087 37.5255 141.815 37.4611 141.543 37.4857H135.968C135.079 37.4857 134.77 37.8208 134.77 38.802V42.4695C134.77 43.3487 134.946 43.7859 135.968 43.7859H141.6C141.871 43.8091 142.141 43.7439 142.373 43.5999C142.605 43.4558 142.786 43.2403 142.889 42.9844L144.16 44.2959C143.955 44.7748 143.611 45.178 143.175 45.4508C142.738 45.7236 142.23 45.8529 141.719 45.8212H135.968Z" fill="white"/>
<path d="M155.338 45.821L154.068 43.3922H147.932L146.657 45.821H144.383L149.958 35.4355H152.042L157.617 45.821H155.338ZM151.005 37.4709L148.698 41.7746H153.312L151.005 37.4709Z" fill="white"/>
<path d="M167.392 45.821L163.872 42.4207H160.665V45.821H158.653V35.4355H166.963C169.123 35.4355 169.875 36.2953 169.875 38.6512V39.2827C169.875 41.8232 168.947 42.3964 166.431 42.3964L170.203 45.7967L167.392 45.821ZM167.896 39.0204C167.896 38.01 167.777 37.5243 166.906 37.5243H160.665V40.7448H166.887C167.596 40.7448 167.877 40.4242 167.877 39.5207L167.896 39.0204Z" fill="white"/>
</g>
<defs>
<clipPath id="clip0_235_821">
<rect width="173" height="52" fill="white"/>
</clipPath>
</defs>
</svg>
