<svg width="30" height="21" viewBox="0 0 30 21" fill="none" xmlns="http://www.w3.org/2000/svg">
<g clip-path="url(#clip0_332_1947)">
<path d="M0 10.7934C0.117826 11.0462 0.256303 11.2887 0.414021 11.5187C0.545046 11.6719 0.708057 11.7945 0.891569 11.8778C1.07508 11.9612 1.27462 12.0032 1.47615 12.0011C1.60192 12.0011 1.72946 12.0011 1.85699 12.0011C10.6545 12.0011 19.452 12.0011 28.2496 12.0011C28.5028 12.0069 28.7555 11.9745 28.999 11.9049C29.3166 11.7979 29.5882 11.5859 29.7692 11.3038C29.9502 11.0217 30.0297 10.6864 29.9948 10.353C29.9618 10.0199 29.8178 9.70754 29.5858 9.46628C29.3538 9.22502 29.0475 9.06889 28.716 9.02303C28.5514 9.00293 28.3857 8.99417 28.2199 8.99681C19.4422 8.99681 10.6638 8.99332 1.88494 8.98633C0.952083 8.98633 0.298725 9.28867 0 10.2097V10.7934Z" fill="black"/>
<path d="M0 1.76705C0.190415 2.37524 0.54329 2.81565 1.19664 2.96071C1.33075 2.98636 1.46717 2.99807 1.60369 2.99566H20.9072C21.7266 2.99566 22.3362 2.50631 22.4795 1.74607C22.539 1.40624 22.4781 1.05627 22.3071 0.756632C22.1361 0.456994 21.8659 0.226513 21.5431 0.105013C21.3506 0.0371829 21.148 0.00289742 20.9439 0.00364876C14.4803 0.00364876 8.01666 0.00364876 1.55302 0.00364876C1.22389 -0.0121212 0.898916 0.0824672 0.629615 0.272419C0.360314 0.462371 0.162097 0.736818 0.0663841 1.05225C0.0483316 1.09478 0.0267097 1.13571 0.00174863 1.17459L0 1.76705Z" fill="black"/>
<path d="M0 19.8195C0.0745665 19.9964 0.16094 20.1681 0.258542 20.3333C0.393259 20.5444 0.580544 20.7167 0.801983 20.8335C1.02342 20.9502 1.2714 21.0073 1.52157 20.9992H5.47487C8.62633 20.9992 11.7784 20.9992 14.931 20.9992C15.752 20.9992 16.3635 20.4906 16.477 19.7321C16.5111 19.5219 16.4996 19.3067 16.4434 19.1013C16.3873 18.8958 16.2877 18.7048 16.1514 18.5411C16.0151 18.3774 15.8453 18.2449 15.6535 18.1525C15.4616 18.0601 15.2522 18.0099 15.0393 18.0054C14.5519 17.9932 14.0628 18.0054 13.5754 18.0054H1.83602C0.765156 18.0054 0.405287 18.2466 0 19.2288V19.8195Z" fill="black"/>
</g>
<defs>
<clipPath id="clip0_332_1947">
<rect width="30" height="21" fill="white"/>
</clipPath>
</defs>
</svg>
