<svg width="16" height="16" viewBox="0 0 16 16" fill="none" xmlns="http://www.w3.org/2000/svg">
<g clip-path="url(#clip0_254_1185)">
<path d="M-3.02857e-05 4.06321C0.0641259 3.83527 0.148797 3.61362 0.252946 3.40097C0.392299 3.14439 0.599347 2.93096 0.851555 2.7839C1.10376 2.63684 1.39147 2.56179 1.68336 2.56692C3.97889 2.56692 6.27442 2.56692 8.56995 2.56692C8.63276 2.56398 8.69552 2.57372 8.75449 2.59555C8.81346 2.61739 8.86743 2.65088 8.91319 2.69402C8.95895 2.73716 8.99555 2.78907 9.02082 2.84666C9.0461 2.90426 9.05951 2.96635 9.06028 3.02924C9.06092 3.09473 9.04792 3.15963 9.02211 3.21982C8.99629 3.28001 8.95823 3.33416 8.91034 3.37883C8.86245 3.42349 8.80579 3.4577 8.74395 3.47926C8.68212 3.50082 8.61648 3.50926 8.55121 3.50405H1.83327C1.23674 3.50405 0.936921 3.81643 0.936921 4.40995V14.1686C0.92104 14.2897 0.933208 14.4128 0.972481 14.5285C1.01175 14.6441 1.07708 14.7491 1.16342 14.8355C1.24975 14.9218 1.35478 14.9872 1.47039 15.0265C1.586 15.0658 1.70909 15.0779 1.83015 15.062H11.6057C11.7254 15.0776 11.8472 15.0657 11.9616 15.0271C12.0761 14.9885 12.1802 14.9242 12.266 14.8392C12.3519 14.7543 12.4172 14.6508 12.457 14.5368C12.4968 14.4227 12.5101 14.3011 12.4958 14.1811V7.52436C12.4895 7.45682 12.4895 7.38885 12.4958 7.32131C12.5183 7.20835 12.581 7.10742 12.6724 7.03731C12.7637 6.9672 12.8774 6.93269 12.9924 6.94021C13.1079 6.94945 13.2159 7.00119 13.2955 7.08542C13.3751 7.16965 13.4206 7.28041 13.4234 7.39628C13.4234 7.56809 13.4234 7.7399 13.4234 7.91171C13.4234 10.0046 13.4234 12.0976 13.4234 14.1936C13.4393 14.6186 13.2991 15.0347 13.0293 15.3634C12.7594 15.692 12.3785 15.9104 11.9586 15.9773C11.9434 15.9825 11.9295 15.9911 11.918 16.0023H1.48348C1.46067 15.9902 1.43657 15.9808 1.41164 15.9742C1.10085 15.9221 0.810772 15.7842 0.57406 15.5762C0.337348 15.3681 0.163399 15.0981 0.0718013 14.7965C0.0374464 14.6997 0.0155859 14.5997 -0.00939941 14.4841L-3.02857e-05 4.06321Z" fill="#242E69"/>
<path d="M14.0136 0C14.1631 0.000560763 14.311 0.0312807 14.4484 0.0903218C14.5858 0.149363 14.7098 0.235512 14.8131 0.343616C15.088 0.618509 15.3691 0.893401 15.6408 1.17142C15.7534 1.27333 15.8433 1.3977 15.9049 1.53651C15.9665 1.67532 15.9983 1.82549 15.9983 1.97735C15.9983 2.12921 15.9665 2.27939 15.9049 2.4182C15.8433 2.55701 15.7534 2.68138 15.6408 2.78329C14.5997 3.83704 13.5503 4.88767 12.4926 5.93518L8.71672 9.71496C8.58486 9.85456 8.41206 9.94863 8.22326 9.9836C7.54241 10.1117 6.8678 10.2522 6.18695 10.3834C6.10758 10.4058 6.0237 10.4066 5.9439 10.3859C5.8641 10.3651 5.79124 10.3236 5.73278 10.2654C5.67432 10.2073 5.63235 10.1346 5.61118 10.0549C5.59001 9.9752 5.5904 9.8913 5.61229 9.81179C5.75283 9.10269 5.89025 8.3936 6.04016 7.6845C6.07027 7.56759 6.12935 7.46016 6.21194 7.37212C8.54599 5.03137 10.8832 2.69166 13.2235 0.352987C13.3254 0.244999 13.4477 0.158225 13.5833 0.0976485C13.7189 0.0370722 13.8652 0.00388704 14.0136 0ZM6.6648 9.32761C7.13327 9.23389 7.5674 9.14955 7.99839 9.05584C8.05497 9.03244 8.10526 8.99606 8.14518 8.94963L13.6763 3.41742C13.7138 3.37993 13.7513 3.3362 13.7794 3.31121L12.6582 2.18665C12.626 2.23589 12.5906 2.28286 12.552 2.32722C10.7884 4.09528 9.01863 5.86542 7.24259 7.63764C7.02445 7.83253 6.88459 8.10009 6.84906 8.39047C6.81159 8.70285 6.73351 8.99336 6.6648 9.32761ZM14.4727 2.62398C14.6476 2.44592 14.8256 2.26786 14.9974 2.08981C15.0145 2.07544 15.0282 2.05751 15.0376 2.03728C15.0471 2.01704 15.0519 1.99499 15.0519 1.97267C15.0519 1.95035 15.0471 1.92829 15.0376 1.90806C15.0282 1.88782 15.0145 1.86989 14.9974 1.85553L14.1261 0.993362C14.1123 0.977478 14.0952 0.96474 14.0761 0.95601C14.057 0.94728 14.0362 0.942763 14.0152 0.942763C13.9942 0.942763 13.9734 0.94728 13.9542 0.95601C13.9351 0.96474 13.9181 0.977478 13.9043 0.993362C13.7169 1.17142 13.5389 1.35884 13.3609 1.53378L14.4727 2.62398Z" fill="#242E69"/>
</g>
<defs>
<clipPath id="clip0_254_1185">
<rect width="16" height="16" fill="white"/>
</clipPath>
</defs>
</svg>
