<svg width="66" height="49" viewBox="0 0 66 49" fill="none" xmlns="http://www.w3.org/2000/svg">
<g clip-path="url(#clip0_737_3459)">
<path d="M63.6291 16.0706C64.7757 15.7537 65.4708 14.7768 65.3393 13.6654C65.2035 12.5301 64.2835 11.7329 63.0817 11.7261C61.9215 11.7193 60.7622 11.7261 59.602 11.7261C59.2122 11.7175 58.8247 11.7877 58.4625 11.9326C58.1003 12.0775 57.7709 12.294 57.4938 12.5692C57.2256 12.8248 56.9456 13.076 56.6511 13.3468C56.3116 12.5854 55.9967 11.8717 55.6674 11.1656C54.4563 8.57053 53.2062 5.99755 51.6284 3.59831C50.7576 2.27903 49.5974 1.49206 48.0638 1.15649C45.23 0.536458 42.3546 0.31161 39.4715 0.262211C35.2729 0.189817 31.0693 0.200037 26.8716 0.240919C24.1704 0.274448 21.4748 0.49757 18.8046 0.90865C16.6141 1.23911 14.8038 2.08399 13.7344 4.1451C13.6954 4.22005 13.6445 4.28904 13.5995 4.36143C11.9046 7.08516 10.562 9.98945 9.25666 12.9193C9.19725 13.053 9.13105 13.1842 9.05382 13.3451C8.75507 13.0658 8.49452 12.8273 8.2399 12.5786C7.95295 12.2935 7.61107 12.0701 7.23517 11.922C6.85927 11.774 6.45724 11.7044 6.05363 11.7175C4.90788 11.732 3.76212 11.7175 2.61636 11.7175C1.41969 11.7244 0.53109 12.5054 0.373231 13.6765C0.230648 14.7402 0.941865 15.7478 2.05876 16.0612C2.49415 16.183 2.93209 16.298 3.36747 16.4181L6.37869 17.2536C6.25478 17.406 6.16906 17.5151 6.07825 17.6198C5.18795 18.6487 4.28832 19.669 3.40821 20.7072C2.15212 22.1883 1.474 23.9156 1.46722 25.8549C1.44515 32.654 1.45788 39.4522 1.46297 46.2514C1.46297 47.4786 2.19965 48.1983 3.42773 48.2C5.71924 48.2 8.01075 48.2 10.3023 48.2C11.549 48.2 12.2696 47.4744 12.2772 46.2147C12.2831 45.2208 12.2772 44.2269 12.2772 43.2338C12.2772 43.083 12.2899 42.9314 12.2976 42.7654H53.448V43.244C53.448 44.2379 53.448 45.231 53.448 46.225C53.448 47.4863 54.1626 48.1992 55.4221 48.2C57.6995 48.2 59.9766 48.2 62.2534 48.2C63.5349 48.2 64.2487 47.4829 64.2487 46.1985C64.2487 39.4843 64.2487 32.7707 64.2487 26.0576C64.2487 23.9854 63.5697 22.167 62.2118 20.6008C61.3455 19.5946 60.4756 18.5891 59.602 17.584C59.5231 17.4929 59.4535 17.3924 59.3584 17.2706C59.4722 17.2306 59.5485 17.1982 59.6275 17.1769C60.9605 16.8073 62.2944 16.4385 63.6291 16.0706ZM11.4582 15.6107C13.0962 12.3904 14.7682 9.18801 16.3561 5.94304C16.9765 4.67486 17.9186 4.08378 19.2621 3.97306C21.5858 3.78228 23.9054 3.44671 26.2308 3.40242C30.8138 3.31725 35.3969 3.3411 39.9748 3.40753C42.436 3.44245 44.8897 3.63153 47.3076 4.14425C48.0053 4.29159 48.5383 4.59054 48.9202 5.24039C50.9172 8.62589 52.6205 12.1604 54.2993 15.7095C54.3139 15.7666 54.3221 15.8251 54.3239 15.8841C40.0412 14.391 25.6425 14.391 11.3598 15.8841C11.3875 15.7912 11.4203 15.6999 11.4582 15.6107ZM13.5307 29.5955C12.6506 30.0878 11.6848 30.1849 11.0449 30.1841C9.59699 30.1321 8.54035 29.9158 7.5847 29.3324C6.01374 28.37 5.33478 26.7015 5.8126 24.9845C6.04281 24.1508 6.53475 23.4138 7.21542 22.8829C7.89608 22.3521 8.72918 22.0556 9.59105 22.0376C12.5615 21.989 14.8361 24.1668 14.9252 27.1546C14.96 28.2541 14.4813 29.0675 13.5307 29.599V29.5955ZM37.853 34.457C36.9992 35.2718 35.8512 35.7916 34.409 36.0165V38.0401H31.5531V36.0412C30.6239 35.9357 29.7129 35.7066 28.844 35.3598C28.0265 35.0373 27.262 34.5931 26.5762 34.0423L28.3585 31.5349C29.6599 32.5603 31.1791 33.073 32.9161 33.073C33.7835 33.073 34.4729 32.9257 34.9844 32.631C35.4959 32.3363 35.7505 31.9357 35.7482 31.4293C35.7482 30.9523 35.5103 30.5801 35.0345 30.3127C34.5586 30.0452 33.8024 29.8556 32.7659 29.7437C30.7635 29.5166 29.2969 29.0459 28.3662 28.3316C27.4354 27.6173 26.97 26.5916 26.97 25.2544C26.9607 24.7214 27.0602 24.1921 27.2625 23.6992C27.4648 23.2063 27.7656 22.7602 28.1463 22.3885C28.93 21.6015 29.9869 21.0888 31.3171 20.8503V18.7619H34.173V20.7643C34.981 20.8559 35.7756 21.0414 36.5409 21.317C37.262 21.5769 37.9439 21.9352 38.5676 22.3817L36.95 24.809C35.8396 24.0194 34.5104 23.5992 33.1495 23.6073C32.2945 23.6073 31.6119 23.7478 31.1015 24.0288C30.5912 24.3099 30.3366 24.6892 30.3377 25.1667C30.3377 25.6312 30.5581 25.9895 30.9989 26.2416C31.4396 26.4937 32.1783 26.6833 33.2148 26.8105C35.2025 27.0376 36.6866 27.533 37.6672 28.2967C38.6477 29.0604 39.1377 30.1108 39.1371 31.448C39.1354 32.6432 38.7074 33.6474 37.853 34.4604V34.457ZM59.888 24.9308C60.3735 26.6095 59.7641 28.2439 58.2831 29.2336C57.403 29.8212 56.3642 30.1202 54.9732 30.2488C54.3468 30.1551 53.706 30.1176 53.0975 29.9575C51.2872 29.4797 50.5344 28.2541 50.8612 26.4068C51.3407 23.6958 53.448 21.9694 56.1919 22.0401C57.8808 22.0836 59.4111 23.2802 59.888 24.9308Z" fill="#242E69"/>
</g>
<defs>
<clipPath id="clip0_737_3459">
<rect width="65" height="48" fill="white" transform="translate(0.355469 0.205078)"/>
</clipPath>
</defs>
</svg>
