<svg width="21" height="19" viewBox="0 0 21 19" fill="none" xmlns="http://www.w3.org/2000/svg">
<g clip-path="url(#clip0_335_3488)">
<path d="M0.00336581 5.54297H20.4615V6.03547C20.4615 9.60737 20.4615 13.1784 20.4615 16.7503C20.4615 18.1135 19.5784 18.9927 18.1891 18.9969C15.903 19.0027 13.6179 18.9985 11.3318 18.9985C8.22795 18.9985 5.12404 18.9985 2.01929 18.9985C0.667157 18.9985 0.0152192 18.3749 0.00759917 17.0252C-0.00594759 14.756 0.00336581 12.4876 0.00336581 10.2184C0.00336581 8.67868 0.00336581 7.13814 0.00336581 5.54381V5.54297ZM9.99495 16.1427C10.2202 16.1427 10.4462 16.1469 10.6714 16.1427C11.1278 16.1335 11.2802 15.9889 11.2895 15.5384C11.2988 15.077 11.2929 14.6148 11.2912 14.1525C11.2895 13.7861 11.1126 13.5634 10.7341 13.5533C10.2405 13.5407 9.74688 13.5449 9.25327 13.5516C8.88073 13.5566 8.67922 13.7457 8.67838 14.1256C8.67838 14.3635 8.68092 14.6013 8.67753 14.8392C8.65975 16.1704 8.62504 16.1654 9.99495 16.1435V16.1427ZM16.3839 14.8686C16.3839 14.6164 16.3848 14.3643 16.3839 14.113C16.3823 13.7541 16.1875 13.5625 15.8378 13.5533C15.3307 13.5398 14.8227 13.5415 14.3147 13.5533C13.9819 13.5608 13.7855 13.7508 13.7762 14.0802C13.7618 14.598 13.7593 15.1165 13.7779 15.6334C13.7897 15.9628 13.9921 16.1393 14.3299 16.141C14.8379 16.1435 15.3451 16.1435 15.8531 16.141C16.1951 16.1393 16.3763 15.9654 16.3831 15.625C16.3882 15.3728 16.3839 15.1207 16.3848 14.8694L16.3839 14.8686ZM15.0631 10.4411C15.3171 10.4411 15.5703 10.4386 15.8243 10.4411C16.2138 10.4453 16.389 10.2503 16.3856 9.87127C16.3814 9.39558 16.3823 8.91989 16.3856 8.44503C16.3882 8.06599 16.1943 7.86849 15.8226 7.86008C15.3298 7.84916 14.8362 7.85084 14.3435 7.85924C13.9675 7.86513 13.7753 8.07019 13.772 8.44167C13.7686 8.91737 13.7669 9.39306 13.772 9.86791C13.7762 10.2369 13.9599 10.4411 14.3443 10.4411C14.5839 10.4411 14.8235 10.4411 15.0631 10.4411ZM9.97548 10.4411C10.2295 10.4411 10.4826 10.4386 10.7366 10.4411C11.1058 10.4461 11.2844 10.2545 11.2895 9.90237C11.2971 9.41323 11.2954 8.92325 11.2904 8.43411C11.287 8.08616 11.1092 7.87185 10.7536 7.8626C10.2329 7.84832 9.71047 7.84748 9.19061 7.86513C8.85702 7.87605 8.68176 8.07524 8.68007 8.41058C8.67838 8.914 8.67414 9.41743 8.68261 9.92086C8.68854 10.2587 8.87904 10.4319 9.21601 10.4386C9.46917 10.4445 9.72317 10.4394 9.97633 10.4403L9.97548 10.4411ZM4.90306 10.4428C5.79602 10.4428 6.2425 9.99622 6.2425 9.10311C6.2425 8.27106 5.81267 7.85504 4.95301 7.85504C4.0753 7.85504 3.63644 8.29347 3.63644 9.17034C3.63644 10.0181 4.05865 10.4419 4.90306 10.4419V10.4428ZM4.94709 16.1427C5.14436 16.1427 5.34164 16.1452 5.53891 16.1427C6.05284 16.136 6.23149 15.9687 6.23996 15.4695C6.24758 15.0215 6.23911 14.5736 6.24165 14.1265C6.24419 13.7432 6.04184 13.5583 5.67015 13.5516C5.19093 13.544 4.71171 13.5482 4.2325 13.5499C3.85742 13.5516 3.65422 13.7399 3.63983 14.1122C3.63051 14.35 3.63898 14.5879 3.63559 14.8257C3.61442 16.1965 3.6339 16.1629 4.94709 16.1427Z" fill="black"/>
<path d="M16.311 0.0203986C17.0722 0.0203986 17.78 -0.0325496 18.476 0.0321649C19.6503 0.142263 20.3996 1.01885 20.4021 2.18455C20.4038 2.83926 20.4021 3.49313 20.4021 4.17137H0.0667515C0.0667515 3.21494 -0.0153758 2.27364 0.0904583 1.35335C0.188672 0.495251 0.897338 0.0128346 1.77364 0.00863233C2.33753 0.00611098 2.90141 0.0145155 3.4653 0.0203986C3.489 0.0203986 3.51271 0.0430907 3.58214 0.0792299C3.58214 0.627202 3.57875 1.19787 3.58298 1.76853C3.58637 2.26271 3.82175 2.53754 4.22137 2.53166C4.61762 2.52577 4.84707 2.24758 4.8513 1.7492C4.85638 1.1903 4.85215 0.630564 4.85215 0.0397289H15.0419C15.0419 0.507018 15.0419 0.989435 15.0419 1.47185C15.0419 1.63994 15.03 1.81055 15.0537 1.97528C15.1045 2.33079 15.3907 2.56443 15.7319 2.52745C16.0883 2.48795 16.3 2.2812 16.3068 1.91981C16.3178 1.30544 16.3102 0.691076 16.3102 0.0220795L16.311 0.0203986Z" fill="black"/>
</g>
<defs>
<clipPath id="clip0_335_3488">
<rect width="20.4615" height="19" fill="white"/>
</clipPath>
</defs>
</svg>
