<svg width="19" height="19" viewBox="0 0 19 19" fill="none" xmlns="http://www.w3.org/2000/svg">
<g clip-path="url(#clip0_241_1023)">
<path d="M0 9.43498C0.0122035 4.16877 4.15244 0.0187763 9.17051 6.42798e-05C13.9461 -0.0178342 17.9904 3.70423 18.3719 8.46928C18.4224 9.10061 18.3256 9.20555 17.6861 9.20718C17.4282 9.20718 17.1703 9.19742 16.9132 9.20962C16.5235 9.22752 16.3665 9.05911 16.3307 8.66372C16.0419 5.47617 13.8884 2.97609 10.8163 2.23737C6.11069 1.1057 1.59215 5.05963 2.08842 9.87512C2.4472 13.3588 5.08641 15.9752 8.60101 16.3324C9.14203 16.3877 9.20142 16.4495 9.20549 16.9759C9.20793 17.2468 9.20874 17.5186 9.20549 17.7895C9.19898 18.3085 9.09322 18.4176 8.5701 18.3769C6.79896 18.2402 5.17834 17.6707 3.75786 16.5976C1.30333 14.7443 0.0846108 12.2524 0 9.43498Z" fill="black"/>
<path d="M9.20776 3.95117C11.8567 3.95443 14.1363 5.97125 14.4105 8.55595C14.465 9.0685 14.3536 9.20029 13.8524 9.20599C13.5546 9.21006 13.2553 9.19297 12.9583 9.21006C12.5857 9.23121 12.4287 9.05385 12.3628 8.70158C12.1008 7.29411 11.2636 6.40163 9.87489 6.0697C8.13549 5.65315 6.40829 6.80841 6.04625 8.59826C5.7013 10.3059 6.87771 12.0429 8.59271 12.3577C9.18499 12.4668 9.2037 12.4887 9.20532 13.0956C9.20532 13.3666 9.2102 13.6383 9.2037 13.9092C9.19312 14.3388 9.05319 14.4584 8.62037 14.4209C6.47337 14.2363 4.55417 12.5237 4.07335 10.3637C3.34115 7.07201 5.84204 3.94873 9.20695 3.9528L9.20776 3.95117Z" fill="black"/>
<path d="M18.7152 13.0932C18.6746 13.0607 18.6176 13.0485 18.5672 13.0289C15.7661 11.9453 12.965 10.8616 10.163 9.77794C10.1378 9.76818 10.1118 9.75842 10.0833 9.74784C9.90351 9.68275 9.70581 9.83326 9.74405 10.0204C9.74649 10.0318 9.74975 10.0432 9.75381 10.0546C10.8594 12.9492 11.9748 15.8398 13.0943 18.7296C13.1342 18.8321 13.2359 18.9102 13.3091 18.9997C13.3896 18.9029 13.5035 18.8191 13.5442 18.7076C13.8867 17.7672 14.2724 16.8364 14.5311 15.8724C14.7328 15.119 15.1388 14.7382 15.88 14.5332C16.8424 14.2672 17.7731 13.8856 18.7144 13.5439C18.8177 13.5065 18.8999 13.4105 18.9918 13.3414C18.8999 13.2576 18.8112 13.1705 18.7152 13.0932Z" fill="black"/>
<path d="M10.5465 9.42448C10.1527 9.31953 9.78824 9.03723 9.4197 9.39031C9.00152 9.7914 9.35787 10.1933 9.44004 10.5903C8.94213 10.762 8.39786 10.5627 8.06836 10.0989C7.70714 9.59045 7.72504 8.92333 8.11148 8.436C8.49793 7.94949 9.14471 7.77864 9.71909 8.01051C10.291 8.24156 10.6059 8.7655 10.5457 9.42448H10.5465Z" fill="black"/>
</g>
<defs>
<clipPath id="clip0_241_1023">
<rect width="18.9919" height="19" fill="white"/>
</clipPath>
</defs>
</svg>
