<svg width="19" height="19" viewBox="0 0 19 19" fill="none" xmlns="http://www.w3.org/2000/svg">
<g clip-path="url(#clip0_241_1029)">
<path d="M10.3914 0C10.3914 0.913875 10.3899 1.76692 10.3914 2.61997C10.3929 3.14664 10.5806 3.33653 11.1028 3.33876C11.9655 3.34099 12.8282 3.33876 13.7101 3.33876V5.86008C12.7377 5.90013 12.116 6.38007 11.898 7.36144C11.7867 7.33548 11.694 7.31248 11.6005 7.29246C10.8647 7.1352 10.1778 7.42078 9.78166 8.06317C9.55468 8.43109 9.34549 8.8094 9.12889 9.184C8.50505 10.264 8.55179 10.7959 9.367 11.7342C8.80919 12.2483 8.54585 12.8707 8.80696 13.6221C8.9071 13.9099 9.0829 14.1725 9.232 14.4418C9.39371 14.7333 9.56061 15.0218 9.73122 15.3082C10.1704 16.047 10.8565 16.3318 11.6888 16.1271C11.7474 16.113 11.8075 16.1048 11.8928 16.0892C12.1123 17.0506 12.7176 17.5506 13.7257 17.5839C13.7257 17.891 13.745 18.187 13.7205 18.4793C13.6946 18.7901 13.498 18.9681 13.1857 18.9926C13.001 19.0067 12.8148 18.997 12.6294 18.997C8.68531 18.997 4.74125 18.997 0.796458 18.997C0.166685 18.997 -0.00244141 18.8324 -0.00244141 18.2167C-0.000216061 12.4056 -0.000216061 6.59518 -0.000216061 0.785547C-0.000216061 0.164676 0.166685 0 0.794232 0C3.86002 0 6.92654 0 9.99307 0H10.3914ZM6.87833 4.49223C5.48304 4.49223 4.087 4.49223 2.69171 4.49297C2.55671 4.49297 2.41725 4.49001 2.2867 4.51968C2.01075 4.58199 1.86091 4.77411 1.86388 5.05079C1.86685 5.32748 2.01966 5.51589 2.29634 5.57449C2.41577 5.59971 2.54187 5.59823 2.66501 5.59823C5.46894 5.59971 8.27214 5.59971 11.0761 5.59823C11.1992 5.59823 11.3253 5.59897 11.444 5.57227C11.7199 5.50847 11.869 5.31709 11.8661 5.04041C11.8638 4.76372 11.711 4.57383 11.4336 4.51671C11.3023 4.49001 11.1636 4.49297 11.0286 4.49223C9.64517 4.49075 8.26175 4.49149 6.87907 4.49149L6.87833 4.49223ZM5.38215 7.82654C6.0861 7.82654 6.78931 7.82654 7.49326 7.82654C7.78923 7.82654 8.08669 7.83618 8.38118 7.81541C8.69495 7.79316 8.8752 7.60178 8.89968 7.28949C8.92268 6.99871 8.6994 6.76579 8.37895 6.72722C8.29365 6.71683 8.20612 6.71906 8.12007 6.71906C6.29306 6.71906 4.46605 6.71832 2.63979 6.7198C2.51739 6.7198 2.35494 6.69087 2.27928 6.75541C2.11609 6.89486 1.92248 7.06844 1.87798 7.25982C1.81715 7.52018 2.00185 7.72862 2.27557 7.79613C2.40464 7.82802 2.54484 7.82506 2.67984 7.8258C3.58111 7.82802 4.48237 7.82728 5.38289 7.82728L5.38215 7.82654ZM5.37919 15.6219C4.65076 15.6219 3.92233 15.6219 3.19464 15.6219C2.92315 15.6219 2.65091 15.6123 2.38016 15.6331C2.06639 15.6568 1.88614 15.8467 1.86166 16.159C1.8394 16.4498 2.06268 16.6827 2.38313 16.7212C2.46843 16.7316 2.55596 16.7294 2.64201 16.7294C4.46902 16.7294 6.29603 16.7301 8.12229 16.7287C8.24469 16.7287 8.40714 16.7576 8.4828 16.6931C8.64599 16.5536 8.8396 16.38 8.8841 16.1886C8.94493 15.9283 8.76097 15.7198 8.48725 15.6523C8.35818 15.6204 8.21799 15.6234 8.08298 15.6227C7.18172 15.6204 6.28045 15.6212 5.37993 15.6212L5.37919 15.6219ZM4.81988 10.0526C5.57279 10.0526 6.32496 10.0556 7.07787 10.0511C7.54148 10.0482 7.79814 9.83751 7.78923 9.48442C7.78033 9.14691 7.52961 8.94737 7.08751 8.94589C5.58243 8.94218 4.07662 8.94218 2.57154 8.94589C2.10941 8.94663 1.85053 9.16026 1.86017 9.51261C1.86907 9.85309 2.11609 10.0482 2.56264 10.0511C3.31555 10.0563 4.06772 10.0526 4.82062 10.0526H4.81988ZM4.80505 12.278C5.56982 12.278 6.33534 12.2817 7.10012 12.2765C7.54074 12.2735 7.78849 12.0673 7.78923 11.7246C7.78923 11.3834 7.54074 11.1735 7.1016 11.172C5.58392 11.1675 4.06623 11.1675 2.54855 11.172C2.11164 11.1735 1.86017 11.3841 1.85943 11.7231C1.85943 12.0651 2.10793 12.2728 2.54706 12.2757C3.29997 12.2817 4.05214 12.2772 4.80505 12.2772V12.278ZM4.80727 14.5041C5.57205 14.5041 6.33757 14.5078 7.10234 14.5026C7.53925 14.4996 7.78998 14.2889 7.78923 13.9485C7.78849 13.605 7.54222 13.3995 7.09938 13.3981C5.58169 13.3936 4.06401 13.3936 2.54632 13.3981C2.10941 13.3995 1.85869 13.611 1.85943 13.9514C1.86091 14.2904 2.11238 14.4989 2.54929 14.5018C3.3022 14.507 4.05436 14.5033 4.80727 14.5033V14.5041Z" fill="black"/>
<path d="M12.0412 14.7125C11.9625 14.7541 11.8854 14.7919 11.8105 14.8334C11.0954 15.2347 10.95 15.1932 10.5317 14.4692C10.3336 14.1273 10.1311 13.7875 9.94045 13.4419C9.7283 13.0569 9.78171 12.7498 10.1704 12.5755C10.5717 12.3959 10.6155 12.1311 10.6273 11.738C10.6407 11.3026 10.5487 11.0348 10.1326 10.8456C9.79506 10.6921 9.73053 10.3894 9.90856 10.0623C10.1682 9.58533 10.4404 9.1143 10.723 8.65068C10.9018 8.35694 11.1815 8.28573 11.4923 8.43631C11.6799 8.52755 11.8587 8.63807 12.0382 8.73822C12.1651 8.65365 12.2689 8.55425 12.3928 8.509C12.8579 8.33691 13.0893 8.05874 13.0315 7.52169C12.9973 7.20421 13.257 7.00245 13.5833 6.9928C14.1271 6.97648 14.6715 6.97648 15.2153 6.99206C15.5913 7.00245 15.8191 7.22869 15.7946 7.61442C15.7686 8.01795 15.8984 8.22861 16.2678 8.43705C16.6543 8.65439 16.9295 8.72857 17.3123 8.45708C17.6186 8.23974 17.9146 8.35546 18.1208 8.69668C18.3827 9.12988 18.6356 9.56901 18.8819 10.0111C19.0926 10.3879 19.031 10.6898 18.6423 10.8783C18.2818 11.0526 18.1839 11.2669 18.1824 11.6712C18.1802 12.1319 18.2677 12.4175 18.7098 12.6155C19.0243 12.7564 19.0807 13.0695 18.913 13.3766C18.6534 13.8535 18.3827 14.3253 18.0986 14.7882C17.9013 15.1094 17.5964 15.1932 17.27 14.9714C16.9303 14.7407 16.687 14.7615 16.3242 14.9751C15.9378 15.2028 15.7486 15.4157 15.7909 15.8771C15.8235 16.2265 15.5728 16.4461 15.2078 16.4565C14.6767 16.4713 14.1441 16.4713 13.613 16.4565C13.234 16.4453 12.9855 16.2235 13.0248 15.843C13.0737 15.3772 12.8861 15.1413 12.4811 14.99C12.3238 14.9314 12.1903 14.809 12.039 14.7118L12.0412 14.7125ZM14.4208 13.2898C15.3006 13.2853 15.986 12.5851 15.9763 11.7024C15.9667 10.836 15.2828 10.1595 14.4156 10.1572C13.5366 10.155 12.8371 10.8501 12.8386 11.7261C12.8393 12.6007 13.5418 13.295 14.4208 13.2898Z" fill="black"/>
<path d="M11.5229 0.0800781C12.6111 0.293711 13.4998 1.19572 13.6385 2.20751C13.5547 2.21418 13.4724 2.22605 13.3893 2.22605C12.7736 2.22754 12.1587 2.22679 11.5229 2.22679V0.0800781Z" fill="black"/>
</g>
<defs>
<clipPath id="clip0_241_1029">
<rect width="19.0067" height="19" fill="white"/>
</clipPath>
</defs>
</svg>
