<svg width="21" height="23" viewBox="0 0 21 23" fill="none" xmlns="http://www.w3.org/2000/svg">
<g clip-path="url(#clip0_335_3433)">
<path d="M20.6904 16.205C20.6878 19.7618 17.8139 22.6202 14.2483 22.6098C10.7235 22.5994 7.85563 19.7037 7.87559 16.1755C7.89555 12.6377 10.7704 9.78018 14.3012 9.78712C17.8338 9.79406 20.693 12.6654 20.6904 16.205ZM13.9099 16.7152C13.3927 16.1867 12.9267 15.693 12.4408 15.2209C12.0972 14.8869 11.6173 14.8912 11.3145 15.1984C11.0012 15.516 11.0003 15.962 11.3474 16.3186C12.0017 16.992 12.6664 17.655 13.338 18.311C13.6834 18.6485 14.1017 18.6893 14.4245 18.3761C15.5013 17.3296 16.573 16.2752 17.603 15.1836C17.7635 15.0135 17.7948 14.5962 17.708 14.3575C17.636 14.1571 17.3114 13.9471 17.0858 13.9315C16.8567 13.9159 16.5652 14.0851 16.3821 14.2595C15.5586 15.0457 14.7637 15.8613 13.909 16.7161L13.9099 16.7152Z" fill="black"/>
<path d="M0.00170007 11.3281C0.00170007 8.4793 -3.5418e-05 5.62963 0.00256782 2.78083C0.00343556 1.23017 0.840809 0.39019 2.38366 0.389323C6.70936 0.388455 11.0342 0.388455 15.3599 0.389323C16.8897 0.389323 17.7297 1.22323 17.7306 2.74091C17.7315 4.2881 17.7341 5.83615 17.7245 7.38334C17.7219 7.89444 17.4182 8.28667 16.9609 8.4255C16.5036 8.56434 15.9847 8.40294 15.7461 7.99076C15.6298 7.78945 15.563 7.53173 15.5586 7.29744C15.5395 6.21276 15.5517 5.12808 15.5499 4.0434C15.5482 2.9995 15.1109 2.55695 14.0835 2.55695C10.5969 2.55695 7.11026 2.55695 3.62453 2.55695C2.63183 2.55695 2.18928 2.99429 2.18928 3.97918C2.18842 8.83855 2.18842 13.6988 2.18928 18.5582C2.18928 19.6802 2.60667 20.0906 3.74341 20.0932C4.68405 20.0958 5.62382 20.0906 6.56445 20.0949C7.26472 20.0984 7.73764 20.5245 7.74719 21.1484C7.7576 21.7948 7.28468 22.2469 6.56532 22.2513C5.11879 22.2582 3.67226 22.2634 2.22573 22.2504C0.881593 22.2391 0.00864203 21.3584 0.0043033 20.0064C-0.0035064 17.1142 0.00170007 14.2212 0.00170007 11.3281Z" fill="black"/>
<path d="M8.08033 7.22948C7.25597 7.22948 6.43248 7.23382 5.60812 7.22774C4.87748 7.22254 4.38721 6.79214 4.37853 6.16389C4.36985 5.52089 4.87141 5.08181 5.62634 5.08008C7.27419 5.07747 8.92204 5.07747 10.5708 5.08008C11.3274 5.08095 11.8255 5.51742 11.8186 6.16129C11.8116 6.80515 11.3187 7.22427 10.5517 7.22774C9.7273 7.23122 8.90382 7.22774 8.07946 7.22774L8.08033 7.22948Z" fill="black"/>
<path d="M7.01479 11.3964C6.52365 11.3964 6.0325 11.405 5.54223 11.3946C4.85411 11.3799 4.37338 10.9243 4.37945 10.3117C4.38553 9.69558 4.86712 9.2539 5.55872 9.2487C6.54013 9.24262 7.52242 9.24262 8.50384 9.2487C9.20671 9.25304 9.66922 9.67649 9.67616 10.3056C9.68311 10.9365 9.22667 11.3781 8.53161 11.3938C8.02658 11.405 7.52069 11.3964 7.01566 11.3964H7.01479Z" fill="black"/>
<path d="M5.91628 15.5799C5.68633 15.5608 5.45204 15.566 5.22903 15.5182C4.69884 15.4037 4.35261 14.9273 4.39599 14.4084C4.44025 13.8773 4.84028 13.46 5.37655 13.42C5.70716 13.3957 6.04124 13.4044 6.37358 13.414C7.00096 13.4331 7.46 13.8834 7.46781 14.4735C7.47562 15.0367 7.03828 15.5009 6.4378 15.5564C6.26598 15.572 6.09157 15.559 5.91802 15.559L5.91628 15.5807V15.5799Z" fill="black"/>
</g>
<defs>
<clipPath id="clip0_335_3433">
<rect width="20.6905" height="22.2221" fill="white" transform="translate(0 0.388672)"/>
</clipPath>
</defs>
</svg>
