<svg width="22" height="19" viewBox="0 0 22 19" fill="none" xmlns="http://www.w3.org/2000/svg">
<g clip-path="url(#clip0_335_3424)">
<path d="M10.7974 18.9593C9.48011 18.9593 8.16285 18.9627 6.84474 18.9585C5.73569 18.9542 5.15354 18.3993 5.15354 17.2945C5.15354 15.9509 5.07536 14.5911 5.24448 13.2662C5.57167 10.6954 7.57985 8.95409 10.2067 8.83851C10.9954 8.80367 11.8044 8.80877 12.5778 8.94474C14.6582 9.30933 16.4607 11.3362 16.5865 13.4523C16.6647 14.7653 16.6477 16.086 16.6222 17.4016C16.6018 18.4367 16.1437 18.8811 15.0882 18.9296C13.9996 18.9789 12.9084 18.9797 11.818 18.9984C11.4781 19.0044 11.1382 18.9993 10.7982 18.9993V18.961L10.7974 18.9593Z" fill="black"/>
<path d="M10.8747 7.39544C8.82491 7.38779 7.18131 5.73144 7.19491 3.68671C7.20851 1.64368 8.8793 -0.0135144 10.9096 8.30829e-05C12.9492 0.0136806 14.6005 1.68533 14.5894 3.72241C14.5775 5.77393 12.9297 7.40309 10.8747 7.39544Z" fill="black"/>
<path d="M3.85479 17.5696C2.88002 17.5696 1.91969 17.6096 0.965314 17.5543C0.43586 17.5237 0.0194361 16.9705 0.0143371 16.4079C0.00158939 14.7804 -0.0145577 13.153 0.020286 11.5264C0.0457814 10.3281 0.943218 9.24963 2.1398 8.95643C3.01514 8.74227 3.91258 8.75842 4.78537 9.00062C5.10066 9.08816 5.38621 9.28617 5.66666 9.4247C5.65136 9.51903 5.65646 9.55387 5.64201 9.57002C4.31116 10.9332 3.88113 12.6261 3.85734 14.4634C3.84374 15.4815 3.85479 16.5005 3.85479 17.5713V17.5696Z" fill="black"/>
<path d="M17.9274 17.5562C17.9274 16.493 17.9385 15.474 17.9249 14.4542C17.9011 12.6024 17.4906 10.8874 15.9983 9.44948C16.4819 9.24806 16.8753 8.98716 17.296 8.93192C17.9631 8.84439 18.6566 8.82059 19.3237 8.89963C20.7438 9.0679 21.7628 10.2738 21.773 11.7109C21.7832 13.2117 21.7789 14.7134 21.7738 16.2151C21.7713 17.053 21.2656 17.5783 20.4387 17.5935C19.6603 17.608 18.881 17.5978 18.1017 17.5961C18.049 17.5961 17.9954 17.5723 17.9257 17.5562H17.9274Z" fill="black"/>
<path d="M3.39431 7.39439C2.1051 7.38759 1.07848 6.35842 1.07593 5.07006C1.07338 3.77404 2.13994 2.70919 3.42661 2.72279C4.70732 2.73638 5.73904 3.77744 5.74328 5.06071C5.74753 6.36522 4.70392 7.40204 3.39346 7.39524L3.39431 7.39439Z" fill="black"/>
<path d="M18.3737 7.39426C17.0819 7.39426 16.0528 6.3753 16.0409 5.08523C16.0281 3.79006 17.0853 2.72096 18.3763 2.72266C19.6706 2.72351 20.7218 3.79091 20.7082 5.08778C20.6946 6.37954 19.6672 7.39511 18.3737 7.39511V7.39426Z" fill="black"/>
</g>
<defs>
<clipPath id="clip0_335_3424">
<rect width="21.7807" height="19" fill="white"/>
</clipPath>
</defs>
</svg>
