<svg width="23" height="17" viewBox="0 0 23 17" fill="none" xmlns="http://www.w3.org/2000/svg">
<g clip-path="url(#clip0_252_2405)">
<path d="M1.54948 7.60634C1.28792 7.60634 1.08208 7.66297 0.936462 7.59286C0.71804 7.4877 0.434899 7.33039 0.367485 7.13085C0.191308 6.61041 0.0996248 6.05851 0.0097389 5.5129C-0.0567766 5.11111 0.206589 4.83426 0.641637 4.82348C1.24028 4.8091 1.84071 4.79831 2.43756 4.82797C2.75126 4.84325 2.8789 4.7237 2.98496 4.44686C3.16743 3.97316 3.39844 3.51923 3.61057 3.05722C4.17954 1.81949 5.15121 1.06625 6.44377 0.696817C9.63921 -0.217322 12.8445 -0.198446 16.0714 0.543112C17.9123 0.966475 19.1518 2.05769 19.7388 3.81406C20.0219 4.66258 20.4552 4.97538 21.3118 4.82887C21.6462 4.77134 21.9994 4.80999 22.3437 4.82258C22.8381 4.84056 23.0718 5.14077 22.9792 5.62975C22.901 6.04053 22.8111 6.44951 22.7257 6.85939C22.5963 7.4823 22.456 7.59825 21.8196 7.60724C21.7064 7.60904 21.5922 7.61803 21.5662 7.61983C21.8152 8.2688 22.1468 8.89531 22.2915 9.56316C22.5684 10.8404 22.1981 11.9838 21.3504 12.9815C21.2219 13.1334 21.1401 13.368 21.1302 13.5694C21.1006 14.1366 21.1248 14.7073 21.1185 15.2754C21.1113 15.9352 20.7896 16.2731 20.1289 16.2902C19.5303 16.3055 18.9307 16.3019 18.3321 16.292C17.6175 16.2803 17.2966 15.954 17.2795 15.2413C17.2741 15.0183 17.2795 14.7963 17.2795 14.541H5.72199C5.72199 14.8188 5.73457 15.0848 5.71929 15.3482C5.68603 15.937 5.37323 16.266 4.78717 16.2857C4.12921 16.3082 3.46945 16.3091 2.81148 16.2857C2.20565 16.2642 1.89644 15.9172 1.88386 15.3033C1.87847 15.0489 1.87038 14.7936 1.88476 14.5401C1.9297 13.7581 1.79038 13.1002 1.29421 12.4C0.319845 11.0229 0.400742 9.50473 1.25735 8.04589C1.33106 7.92005 1.41825 7.8014 1.54948 7.60545V7.60634ZM4.3692 5.71245H18.6296C18.4076 5.18841 18.182 4.71831 18.0067 4.23023C17.6229 3.16149 16.8544 2.57004 15.7766 2.29679C12.903 1.56961 10.0347 1.57231 7.16555 2.31297C6.14355 2.57633 5.3984 3.14441 5.02537 4.16461C4.8411 4.66708 4.6083 5.15246 4.3692 5.71245ZM4.96784 12.1699C5.90715 12.1815 6.71882 11.3789 6.72152 10.436C6.72421 9.50833 5.95479 8.72183 5.01998 8.69666C4.08067 8.67149 3.26361 9.45799 3.24473 10.4054C3.22586 11.3438 4.02135 12.1582 4.96694 12.1699H4.96784ZM19.7729 10.4189C19.7676 9.46339 18.9712 8.68048 18.0211 8.69486C17.0863 8.71014 16.3204 9.48496 16.3141 10.4216C16.3078 11.3735 17.0988 12.1716 18.0462 12.169C18.9999 12.1663 19.7783 11.3771 19.7729 10.418V10.4189Z" fill="#242E69"/>
</g>
<defs>
<clipPath id="clip0_252_2405">
<rect width="23" height="16.3053" fill="white"/>
</clipPath>
</defs>
</svg>
