<svg width="19" height="19" viewBox="0 0 19 19" fill="none" xmlns="http://www.w3.org/2000/svg">
<g clip-path="url(#clip0_335_3481)">
<path d="M18.9698 4.35351C18.9698 5.18267 18.9803 6.01183 18.9672 6.84099C18.9515 7.87319 18.3201 8.50456 17.28 8.51242C15.5995 8.52421 13.9189 8.52552 12.2396 8.51242C11.2401 8.50456 10.5957 7.86795 10.5865 6.87636C10.5721 5.17481 10.5721 3.47195 10.5865 1.7704C10.5957 0.777497 11.2388 0.142199 12.2383 0.134339C13.9189 0.121241 15.5981 0.12255 17.2787 0.134339C18.3162 0.140889 18.9502 0.773567 18.9659 1.80445C18.979 2.65588 18.9685 3.506 18.9685 4.35743L18.9698 4.35351Z" fill="black"/>
<path d="M4.27424 18.9942C3.44508 18.9942 2.61592 19.0034 1.78676 18.9916C0.754562 18.9772 0.115334 18.3445 0.107475 17.3136C0.0956856 15.633 0.0956856 13.9524 0.107475 12.2731C0.115334 11.2449 0.757182 10.6174 1.80117 10.6109C3.45949 10.6004 5.11782 10.6017 6.77614 10.6109C7.85287 10.6174 8.48162 11.2449 8.48817 12.3216C8.49865 13.9799 8.49865 15.6383 8.48817 17.2966C8.48162 18.3655 7.84501 18.9824 6.76173 18.9942C5.93257 19.0021 5.10341 18.9955 4.27424 18.9955V18.9942Z" fill="black"/>
<path d="M10.584 14.7412C10.584 13.912 10.5722 13.0828 10.5866 12.2537C10.6036 11.2582 11.2363 10.6203 12.2344 10.6124C13.936 10.5993 15.6389 10.5967 17.3404 10.6124C18.3281 10.6216 18.9594 11.27 18.966 12.2746C18.9791 13.9552 18.9791 15.6358 18.966 17.3151C18.9581 18.3486 18.3215 18.9839 17.2854 18.9918C15.6048 19.0036 13.9242 19.0049 12.2449 18.9918C11.218 18.9839 10.5971 18.3394 10.584 17.2955C10.5735 16.444 10.5814 15.5939 10.5827 14.7425L10.584 14.7412Z" fill="black"/>
<path d="M4.24403 0C4.67106 0.23971 5.09546 0.386418 5.39674 0.665426C6.27437 1.48018 7.1127 2.33947 7.94841 3.19876C8.6754 3.94671 8.66885 4.80993 7.93007 5.56967C7.11008 6.41324 6.2783 7.24633 5.43342 8.06632C4.67761 8.79986 3.81701 8.80117 3.0612 8.06763C2.2006 7.23323 1.35179 6.38704 0.520007 5.52382C-0.182095 4.79421 -0.171616 3.93492 0.539656 3.20138C1.37406 2.34078 2.21239 1.4828 3.09002 0.666736C3.39129 0.387728 3.8157 0.24102 4.24403 0Z" fill="black"/>
</g>
<defs>
<clipPath id="clip0_335_3481">
<rect width="18.9764" height="19" fill="white"/>
</clipPath>
</defs>
</svg>
