<svg width="26" height="25" viewBox="0 0 26 25" fill="none" xmlns="http://www.w3.org/2000/svg">
<g clip-path="url(#clip0_868_1706)">
<path d="M16.6563 25L16.6503 24.998C16.6092 24.9828 16.5608 24.9649 16.5019 24.9602C15.7933 24.8993 15.0828 24.7269 14.3279 24.432C12.7949 23.8328 11.4641 22.6922 10.5813 21.2202C9.69843 19.7481 9.31999 18.0382 9.51617 16.4058C9.53804 16.2261 9.5619 16.0472 9.58709 15.8623C9.59902 15.7741 9.61095 15.6853 9.62288 15.5945L9.65933 15.3195L9.38759 15.3731C8.78977 15.4911 8.24695 15.5488 7.72866 15.5488C7.30713 15.5488 6.89555 15.509 6.50517 15.4315C3.33046 14.7979 1.23807 12.9103 0.28632 9.82105C0.188229 9.50358 0.133218 9.1596 0.0795334 8.82688C0.0550106 8.67312 0.0291622 8.51604 0 8.36161V7.15933C0.029825 7.00358 0.0576617 6.84584 0.0841728 6.6934C0.143823 6.3514 0.204136 6.00079 0.296262 5.67007C1.14992 2.58616 3.87063 0.320785 7.06654 0.0324761C7.30249 0.0112672 7.54242 0 7.77837 0C11.6039 0 14.8277 2.75716 15.4434 6.5562C15.5846 7.42776 15.572 8.31721 15.405 9.19936C15.3977 9.2378 15.3937 9.27492 15.389 9.318C15.3864 9.34186 15.3837 9.36439 15.3804 9.39024L15.3486 9.64674L15.6051 9.61161C15.6827 9.60101 15.7589 9.5904 15.8344 9.57913H15.8417C16.014 9.55395 16.1718 9.53141 16.3322 9.51219C16.6377 9.47641 16.9472 9.45785 17.2521 9.45785C20.7867 9.45785 23.8779 11.8677 24.77 15.3181C25.3155 17.4291 24.9238 19.6951 23.695 21.537C22.4675 23.3762 20.5276 24.607 18.3722 24.9118C18.2377 24.9311 18.1031 24.9523 17.9686 24.9728L17.7996 24.9993H16.6569L16.6563 25ZM17.2362 10.5554C13.5618 10.5567 10.5707 13.5445 10.568 17.217C10.5667 18.9999 11.2606 20.678 12.5219 21.9433C13.7831 23.2085 15.458 23.9051 17.2369 23.9051C20.912 23.9024 23.9077 20.9107 23.9144 17.2362C23.9177 15.4573 23.2251 13.7811 21.9645 12.5179C20.7012 11.252 19.0231 10.5547 17.2382 10.5547H17.2362V10.5554ZM7.78367 1.08563C7.4821 1.08563 7.17789 1.10684 6.87831 1.14926C5.07887 1.40111 3.49682 2.33497 2.42378 3.7785C1.34743 5.22601 0.907343 7.0175 1.18505 8.82158C1.67882 12.0268 4.50093 14.4433 7.75053 14.4439C7.77373 14.4439 7.79626 14.4439 7.81946 14.4439H7.87579C8.56575 14.4439 9.24841 14.3233 9.9039 14.086C10.0596 14.0297 10.2101 13.9018 10.2784 13.7672C11.0611 12.2362 12.2375 11.0578 13.7752 10.2664C13.9084 10.1982 14.0317 10.055 14.0827 9.91052C14.4506 8.86333 14.54 7.7618 14.3478 6.63772C13.807 3.47296 10.9855 1.08629 7.78433 1.08629L7.78367 1.08563Z" fill="white"/>
<path d="M22.1262 8.35756C21.9837 8.35756 21.8478 8.29725 21.7318 8.18391C21.1234 7.58476 20.4931 6.95446 19.8058 6.25656C19.5818 6.02922 19.5758 5.68391 19.7925 5.46984C19.8973 5.36644 20.0305 5.30944 20.167 5.30944C20.3135 5.30944 20.46 5.37373 20.5799 5.49038C20.7184 5.62559 20.8543 5.77206 20.9855 5.91324C21.0465 5.97885 21.1075 6.04447 21.1691 6.10942L21.2613 6.20618L21.6536 6.05308L21.6351 5.89998C21.6145 5.73296 21.5993 5.56064 21.584 5.39362C21.5502 5.01385 21.5151 4.62148 21.4177 4.2437C21.1015 3.01623 20.0126 2.10292 18.7082 1.97236C18.6227 1.96374 18.5366 1.95711 18.4511 1.94982L18.3589 1.94253C18.0209 1.91469 17.8016 1.68537 17.8135 1.37055C17.8247 1.07363 18.072 0.849609 18.3888 0.849609H18.408C19.6938 0.883411 20.7635 1.3732 21.5854 2.30573C22.2959 3.11167 22.6624 4.11711 22.6756 5.2942C22.677 5.43604 22.677 5.57787 22.6763 5.73892C22.6763 5.81978 22.6763 5.90528 22.6763 5.99807V6.47527L23.015 6.13924C23.0945 6.06037 23.1701 5.98415 23.243 5.91125C23.3974 5.75616 23.5425 5.61101 23.6884 5.47315C23.803 5.36512 23.9336 5.30812 24.0675 5.30812C24.1536 5.30812 24.2424 5.33132 24.3299 5.37639C24.5387 5.48376 24.6481 5.69121 24.6096 5.90329C24.5851 6.0385 24.5208 6.17371 24.4419 6.25523C23.7606 6.96043 23.0567 7.65634 22.5205 8.18391C22.4052 8.29725 22.2693 8.3569 22.1268 8.3569L22.1262 8.35756Z" fill="white"/>
<path d="M6.60259 24.145C5.39832 24.1158 4.37765 23.6791 3.56972 22.8466C2.79758 22.0513 2.38268 21.0412 2.33695 19.8449C2.33032 19.6686 2.33231 19.4883 2.33364 19.3133C2.3343 19.2292 2.33563 19.1456 2.33563 19.0615V18.9435L2.03274 18.7785L1.92735 18.8892C1.86704 18.9528 1.80739 19.0164 1.74774 19.08C1.61983 19.2172 1.48793 19.3584 1.35339 19.489C1.22415 19.6156 1.06972 19.6852 0.918606 19.6852C0.78141 19.6852 0.653494 19.6295 0.54745 19.5234C0.324756 19.3007 0.338012 18.9621 0.579926 18.7188C1.20095 18.0925 1.83125 17.4615 2.45426 16.8432C2.58947 16.7086 2.73793 16.6377 2.88308 16.6377C3.02823 16.6377 3.17735 16.7086 3.31322 16.8432C3.89581 17.4191 4.50357 18.0262 5.17033 18.7003C5.42218 18.9548 5.44207 19.3014 5.21739 19.5241C5.11068 19.6295 4.98409 19.6852 4.85021 19.6852C4.69512 19.6852 4.5334 19.6089 4.39488 19.4711C4.26431 19.3412 4.13971 19.2086 4.00715 19.0688C3.94618 19.0045 3.88454 18.9389 3.82091 18.8719L3.57635 18.6161L3.48488 18.9581C3.25159 19.8323 3.43451 20.7973 3.98727 21.6059C4.53274 22.4039 5.34729 22.9169 6.22282 23.0143C6.33682 23.0269 6.45082 23.0362 6.56084 23.0448L6.64832 23.0521C6.987 23.0792 7.20705 23.3086 7.19512 23.6221C7.18385 23.9249 6.94193 24.145 6.62049 24.145H6.60193H6.60259Z" fill="white"/>
<path d="M19.5612 21.0999C19.4963 21.0999 19.43 21.09 19.3644 21.0701C18.8786 20.9262 18.3033 20.7791 17.7174 20.7791C17.6233 20.7791 17.5291 20.7831 17.4383 20.7904C16.8505 20.8381 16.2725 20.9342 15.5852 21.0634C15.4805 21.0833 15.393 21.0926 15.3181 21.0926C15.1332 21.0926 15.0086 21.0356 14.9006 20.9011C14.7362 20.6963 14.7329 20.4862 14.8906 20.1965C15.2399 19.555 15.4666 18.8809 15.5839 18.1366L15.6203 17.9066H15.0908C14.7647 17.9066 14.375 17.8119 14.3717 17.3645C14.3703 17.2127 14.4148 17.0907 14.5029 17.0013C14.6249 16.878 14.833 16.8124 15.1034 16.8124H15.6568L15.6144 16.3292C15.5978 16.141 15.5819 15.962 15.5673 15.7838C15.4871 14.8055 16.0074 13.9472 16.9254 13.5442C17.2263 13.4117 17.5404 13.3447 17.8592 13.3447C18.4849 13.3447 19.0655 13.6012 19.4943 14.0678C19.7196 14.313 19.7282 14.6477 19.5135 14.8632C19.4095 14.9679 19.2756 15.0262 19.1377 15.0262C18.9919 15.0262 18.8468 14.9619 18.7281 14.8459C18.4531 14.5762 18.1648 14.4449 17.8473 14.4449C17.7426 14.4449 17.6345 14.4595 17.5252 14.4893C17.0228 14.6246 16.6695 15.0534 16.6675 15.5332C16.6662 15.7851 16.6887 16.0296 16.7126 16.2875C16.7232 16.3995 16.7332 16.5128 16.7418 16.6281L16.755 16.8124C16.755 16.8124 17.3721 16.8111 17.4529 16.8111C17.5537 16.8111 17.6524 16.8111 17.7512 16.813C18.0918 16.8177 18.347 17.053 18.3457 17.3612C18.3444 17.6727 18.0925 17.902 17.7465 17.906C17.6438 17.9073 17.5411 17.9073 17.4377 17.9073C17.3535 17.9073 16.7643 17.906 16.7643 17.906L16.3554 19.7399H16.6032C16.7908 19.7399 16.9824 19.7359 17.1514 19.7332C17.3263 19.7299 17.5053 19.7266 17.6783 19.7266C17.9414 19.7266 18.1568 19.7346 18.355 19.7511C18.7904 19.7883 19.2351 19.9082 19.6646 20.0249L19.6978 20.0341C19.8495 20.0752 19.9728 20.1674 20.0437 20.294C20.114 20.4192 20.1299 20.5683 20.0875 20.7135C20.0192 20.9481 19.8124 21.0999 19.5599 21.0999H19.5612Z" fill="white"/>
<path d="M7.76645 12.6388C7.54906 12.6388 7.34028 12.493 7.27003 12.2922C7.23954 12.2047 7.23424 12.0954 7.22893 11.98C7.22893 11.98 7.22628 11.9297 7.22562 11.9085C7.21965 11.8084 7.22098 11.7056 7.22297 11.5969C7.22297 11.5472 7.22429 11.4969 7.22429 11.4458V11.2709L7.05065 11.2483C6.9678 11.2377 6.88628 11.2311 6.8147 11.2251C6.6669 11.2132 6.52771 11.2013 6.41107 11.1622C6.04322 11.0369 5.76419 10.9123 5.53355 10.7691C5.30423 10.6273 5.24458 10.3065 5.40033 10.0547C5.49842 9.89626 5.68002 9.79353 5.86361 9.79353C5.9511 9.79353 6.03196 9.81606 6.1042 9.86047C6.40311 10.0441 6.73251 10.1296 7.14012 10.1296C7.16995 10.1296 7.20043 10.1296 7.23092 10.1282C7.36348 10.1243 7.5073 10.1229 7.68227 10.1229C7.78434 10.1229 7.88641 10.1229 7.98848 10.1243H8.01565C8.12766 10.1249 8.23967 10.1256 8.35168 10.1256H8.44116C9.07875 10.1229 9.47708 9.77961 9.48039 9.22884C9.48371 8.67675 9.09002 8.32813 8.45375 8.32017C8.36891 8.31885 8.28474 8.31885 8.1999 8.31885C8.11043 8.31885 8.02162 8.31885 7.93214 8.31951C7.84333 8.31951 7.75518 8.32017 7.66637 8.32017C7.34625 8.32017 7.00359 8.31487 6.66425 8.27908C5.72774 8.179 4.98013 7.34125 4.96289 6.37094C4.945 5.36816 5.63561 4.5198 6.60592 4.35344C6.69407 4.3382 6.78288 4.32627 6.88628 4.31301C6.9393 4.30639 6.99431 4.2991 7.05396 4.29048L7.22562 4.26662V4.09363C7.22562 4.02471 7.22562 3.9571 7.22429 3.89016C7.22297 3.74568 7.22164 3.60914 7.22628 3.47327C7.23755 3.14122 7.4503 2.91323 7.75452 2.90527H7.77109C8.07596 2.90527 8.30197 3.13261 8.31987 3.45803C8.32782 3.59655 8.32583 3.73772 8.32384 3.88685C8.32318 3.95777 8.32186 4.02935 8.32186 4.10225V4.28915L8.5081 4.30042C9.08538 4.33621 9.55595 4.50456 9.94633 4.81673C10.0597 4.90686 10.1458 4.98507 10.2174 5.06262C10.4176 5.27935 10.4209 5.59218 10.226 5.80692C10.1193 5.92423 9.96356 5.99448 9.81046 5.99448C9.72827 5.99448 9.60963 5.97394 9.50889 5.87585C9.17551 5.55042 8.7805 5.39865 8.26552 5.39865C8.21581 5.39865 8.16478 5.39997 8.11374 5.40262C8.00372 5.40859 7.88442 5.41124 7.73795 5.41124C7.64184 5.41124 7.54508 5.40991 7.44898 5.40925H7.43373C7.34094 5.40792 7.24815 5.40726 7.15537 5.40726C7.10499 5.40726 7.05529 5.40726 7.00491 5.40859C6.46541 5.41654 6.06642 5.79035 6.05648 6.29671C6.04654 6.80771 6.44155 7.20405 6.97642 7.21864C7.12554 7.22261 7.28262 7.2246 7.48675 7.2246C7.58286 7.2246 7.67896 7.2246 7.77573 7.22394C7.87117 7.22394 7.96727 7.22327 8.06271 7.22327C8.29402 7.22327 8.47164 7.22592 8.63734 7.23123C9.59969 7.2637 10.3486 7.89931 10.5442 8.85039C10.6548 9.38857 10.5249 9.95856 10.1876 10.4132C9.8489 10.8699 9.33856 11.1595 8.78779 11.2092C8.74007 11.2139 8.69235 11.2172 8.63601 11.2218L8.31987 11.247V11.4306C8.31987 11.5048 8.32119 11.5784 8.32252 11.6513C8.32517 11.809 8.32782 11.9582 8.31788 12.106C8.29866 12.3837 8.11109 12.5911 7.83869 12.6342C7.81549 12.6382 7.79097 12.6395 7.76711 12.6395L7.76645 12.6388Z" fill="white"/>
</g>
<defs>
<clipPath id="clip0_868_1706">
<rect width="25.0106" height="25" fill="white"/>
</clipPath>
</defs>
</svg>
