<svg width="26" height="25" viewBox="0 0 26 25" fill="none" xmlns="http://www.w3.org/2000/svg">
<g clip-path="url(#clip0_868_1713)">
<path d="M12.4368 24.9963C10.2901 24.9963 8.2767 24.4674 6.45245 23.425C2.9999 21.4513 0.903441 18.5271 0.221984 14.7329C-0.502259 10.7006 0.548761 7.09547 3.3459 4.0193C5.30036 1.86951 7.74034 0.567985 10.5964 0.151917C11.2871 0.0514659 11.9729 0 12.6352 0C15.7541 0 18.5699 1.12481 21.003 3.34218C22.9308 5.09946 24.1927 7.32427 24.7532 9.95523C24.9603 10.9275 25.0434 11.8806 25.0006 12.7871C24.9888 13.0333 24.8202 13.2304 24.5709 13.2894C24.5337 13.298 24.4953 13.3024 24.4556 13.3024C24.259 13.3024 24.073 13.1963 23.9924 13.0382C23.9391 12.9334 23.9081 12.7995 23.9093 12.6798C23.9291 10.9963 23.5807 9.34818 22.8732 7.78064C22.7504 7.50843 22.5749 7.39062 22.2872 7.38566C21.4265 7.37264 20.7246 7.16615 20.1411 6.75443C19.8224 6.52996 19.4851 6.41587 19.1372 6.41587C18.8464 6.41587 18.5438 6.49586 18.2369 6.65398C17.943 6.80527 17.6646 6.98695 17.3955 7.16243C17.2783 7.2387 17.1617 7.31497 17.0433 7.38938C16.6452 7.63803 16.1646 7.89226 15.6152 7.89226C15.5687 7.89226 15.5216 7.8904 15.4745 7.88668C14.7874 7.83397 14.212 7.49293 13.7147 6.84248C13.032 5.94896 12.7462 4.87437 12.8646 3.64911C12.9142 3.13942 13.0085 2.63902 13.1083 2.10886C13.1529 1.87261 13.1988 1.62893 13.241 1.38338L13.28 1.15271L13.0469 1.13411C12.789 1.11365 12.5273 1.10311 12.2706 1.10311C11.3535 1.10311 10.4581 1.23208 9.60923 1.48693C5.01823 2.86535 2.21179 5.9595 1.26928 10.6826C1.22526 10.9021 1.19797 11.2264 1.46522 11.5116C1.58862 11.6437 1.71077 11.7838 1.82921 11.9202C2.08157 12.2104 2.34262 12.5099 2.6446 12.7642C2.95339 13.024 3.30869 13.161 3.67082 13.161C3.98829 13.161 4.30391 13.0599 4.60898 12.8603C4.89732 12.6718 5.16891 12.4554 5.4312 12.2464C5.54281 12.1577 5.65442 12.0684 5.76727 11.9816C5.84912 11.9184 5.93035 11.8545 6.01158 11.79C6.15668 11.6753 6.30674 11.5563 6.45741 11.449C7.05888 11.0211 7.67337 10.8035 8.2829 10.8035C9.03008 10.8035 9.74937 11.1433 10.3632 11.7863C11.6263 13.1102 12.2042 14.7447 12.0808 16.6452C12.048 17.153 11.8179 17.6261 11.3771 18.0906C11.0831 18.4006 10.7781 18.6945 10.4699 18.9649C9.26633 20.0208 8.85584 21.3869 9.21611 23.141C9.24959 23.3035 9.41143 23.4418 9.54846 23.4814C10.4873 23.7543 11.4794 23.8926 12.4969 23.8926C12.544 23.8926 12.5905 23.8926 12.6377 23.8919H12.6519C13.0556 23.8919 13.3024 24.091 13.3111 24.4252C13.3154 24.5777 13.267 24.711 13.1715 24.8109C13.063 24.925 12.895 24.9895 12.6997 24.9932C12.6122 24.995 12.5242 24.9957 12.4374 24.9957L12.4368 24.9963ZM1.20045 13.5138C1.39268 17.3415 4.12843 21.2393 7.70561 22.7826L8.02433 22.9203L7.99705 22.4707C7.99333 22.4106 7.99023 22.3591 7.98775 22.3083C7.90962 20.7215 8.39947 19.4355 9.48584 18.3764C9.65884 18.2077 9.83804 18.0379 10.011 17.8742C10.1766 17.7167 10.3428 17.5598 10.5065 17.4004C10.8736 17.0433 11.0453 16.5925 11.0019 16.097C10.9697 15.7244 10.93 15.3275 10.8388 14.9356C10.5803 13.8257 10.0904 12.9806 9.34074 12.3506C8.98606 12.0523 8.632 11.9078 8.25996 11.9078C7.94496 11.9078 7.63059 12.0114 7.29699 12.2253C7.08492 12.3611 6.8865 12.5174 6.6949 12.6687C6.59507 12.7474 6.49214 12.8286 6.39044 12.9043C6.25775 13.0029 6.12567 13.1058 5.99856 13.2056C5.70341 13.4363 5.39771 13.675 5.07838 13.8623C4.62262 14.1289 4.15757 14.2641 3.69624 14.2641C3.18654 14.2641 2.66754 14.0992 2.15288 13.7749C2.01399 13.6874 1.88191 13.5876 1.74178 13.4816C1.67543 13.4313 1.60784 13.3805 1.53901 13.3303L1.17751 13.0667L1.19983 13.5138H1.20045ZM14.7788 1.34555C14.6616 1.34555 14.4551 1.39144 14.3906 1.69651C14.3478 1.89742 14.3001 2.10204 14.2536 2.30046C14.1457 2.76055 14.0341 3.23553 13.9758 3.71546C13.8679 4.60526 14.0527 5.39833 14.5239 6.07173C14.8618 6.55414 15.1849 6.76931 15.5712 6.76931C15.8261 6.76931 16.0995 6.67196 16.4319 6.46361C16.5602 6.38301 16.688 6.29868 16.812 6.21683C17.0501 6.05995 17.2962 5.89749 17.5461 5.76169C18.1098 5.456 18.6542 5.30098 19.1639 5.30098C19.7127 5.30098 20.2279 5.47088 20.7407 5.8206C20.879 5.91485 21.0241 5.98244 21.1921 6.05995C21.2709 6.09653 21.3552 6.1356 21.4458 6.18148L21.9672 6.44315L21.7384 5.90679C21.7223 5.86897 21.713 5.84664 21.7074 5.83176C21.6963 5.80448 21.6876 5.7834 21.669 5.75797C19.9749 3.47922 17.6999 2.00035 14.9084 1.36105C14.8625 1.35051 14.8203 1.34555 14.7794 1.34555H14.7788Z" fill="white"/>
<path d="M19.8373 25.0001C18.4539 25.0001 17.1518 24.4581 16.1708 23.4747C15.1923 22.4937 14.6547 21.1953 14.6572 19.8188C14.6628 16.9739 16.9819 14.6536 19.8274 14.6455H19.8416C22.6896 14.6455 25.0087 16.9677 25.0124 19.8212C25.0143 21.2052 24.4773 22.5055 23.5013 23.4834C22.5247 24.4612 21.2238 25.0001 19.8385 25.0001H19.8373ZM19.8453 15.7548C17.7005 15.7548 15.9129 17.4302 15.7746 19.5689C15.7051 20.6478 16.058 21.6858 16.7679 22.4913C17.5027 23.3253 18.5376 23.8226 19.6817 23.8926C19.7592 23.8976 19.8379 23.9001 19.916 23.9001C22.0162 23.9001 23.7679 22.1825 23.9049 19.9899C23.9688 18.9637 23.611 17.9548 22.8967 17.1481C22.1725 16.3302 21.1487 15.8249 20.0878 15.7623C20.0072 15.7573 19.9253 15.7548 19.8447 15.7548H19.8453Z" fill="white"/>
<path d="M20.8852 21.4109C20.7314 21.4109 20.5733 21.3396 20.4394 21.2093C20.3743 21.1467 20.3092 21.0841 20.2434 21.0215C19.9892 20.779 19.7263 20.5279 19.5031 20.2594C19.4001 20.1354 19.3202 19.9326 19.2953 19.7299C19.2681 19.506 19.2743 19.2766 19.2805 19.0335C19.2829 18.9287 19.286 18.8233 19.286 18.7191C19.286 18.6094 19.286 18.5003 19.2854 18.3905C19.2842 18.1586 19.2836 17.9186 19.2879 17.6842C19.2941 17.3475 19.5242 17.1008 19.8348 17.0977C20.1486 17.0977 20.3861 17.3451 20.3941 17.6731C20.4003 17.9261 20.3991 18.1846 20.3985 18.4345C20.3972 18.7173 20.3966 19.0093 20.4053 19.2977C20.4102 19.4651 20.4877 19.6554 20.6068 19.7956C20.7302 19.9401 20.8654 20.0721 20.9968 20.1992C21.0694 20.2699 21.1419 20.3406 21.2126 20.4132C21.4774 20.6866 21.4954 21.0146 21.2585 21.2484C21.1518 21.3538 21.0229 21.4096 20.8858 21.4096L20.8852 21.4109Z" fill="white"/>
</g>
<defs>
<clipPath id="clip0_868_1713">
<rect width="25.0124" height="25" fill="white"/>
</clipPath>
</defs>
</svg>
