<svg width="25" height="25" viewBox="0 0 25 25" fill="none" xmlns="http://www.w3.org/2000/svg">
<g clip-path="url(#clip0_868_1718)">
<path d="M16.9204 25C14.9993 25 13.0783 25 11.1565 24.9993C9.74065 24.9993 9.04794 24.3994 8.84073 22.9957C8.76692 22.4966 8.70531 21.9962 8.6403 21.466C8.60983 21.2161 8.578 20.9615 8.54482 20.6988L8.51435 20.4625H6.82286C6.41183 20.4625 6.00081 20.4625 5.58979 20.4632H5.44962C4.99187 20.4638 4.5348 20.4645 4.07705 20.4645C3.36741 20.4645 2.78981 20.4632 2.26029 20.4605C0.782771 20.4523 0.00202854 19.6709 0.0013514 18.2002C-2.87648e-06 12.8088 -2.87648e-06 7.44109 0.0013514 2.24675C0.00202854 0.801056 0.791573 0.00406284 2.22508 0.00270856C3.4358 0.00135428 4.64585 0 5.85658 0C7.0673 0 8.25433 0.00067714 9.45354 0.00270856C10.734 0.00473998 11.4748 0.644637 11.6556 1.90547C11.6746 2.03616 11.6942 2.16752 11.7138 2.29821L11.7179 2.32665C11.791 2.81419 11.8669 3.31798 11.8973 3.80959C11.9373 4.45693 12.3314 4.54428 12.7113 4.54428H12.7207C14.1915 4.53887 15.7834 4.53684 17.7316 4.53684C18.8211 4.53684 19.9113 4.53751 21.0008 4.53819H22.33C22.6056 4.53887 22.8907 4.53887 23.1636 4.5646C24.2267 4.66346 24.9621 5.44488 24.9932 6.51002C25.0068 6.96235 25.0034 7.42348 25.0007 7.86972V7.90087C24.9993 8.08302 24.9986 8.26449 24.9986 8.44664V9.43527C24.9986 13.8421 24.9986 18.2489 24.9986 22.6557C24.9986 24.2321 24.2382 24.9986 22.674 24.9986C20.7564 24.9986 18.8387 24.9986 16.921 24.9986L16.9204 25ZM18.3959 5.49905C16.5743 5.49905 14.7522 5.49973 12.9307 5.50108C12.8088 5.50108 12.6937 5.51124 12.5819 5.52072C12.5352 5.52478 12.4885 5.52885 12.4438 5.53155L12.219 5.54645L12.1926 5.76991C12.1892 5.79835 12.1858 5.82002 12.1831 5.83694C12.1763 5.88164 12.1689 5.92768 12.1763 5.98456C12.2941 6.93527 12.4113 7.88597 12.5284 8.83667L12.5359 8.89491C12.9652 12.3795 13.4094 15.9832 13.8678 19.5246C13.9261 19.9743 13.8319 20.2797 13.5333 20.6135C12.9293 21.2866 12.3449 21.9684 11.726 22.6896L11.6935 22.7268C11.4504 23.0099 11.2033 23.2983 10.9487 23.5929L10.562 24.0405H17.3375C19.1407 24.0405 20.9439 24.0405 22.7472 24.0405C23.6897 24.0405 24.0405 23.6823 24.0405 22.7207C24.0405 17.4215 24.0405 12.1228 24.0405 6.82354C24.0405 5.84778 23.7019 5.50176 22.7485 5.50108C21.2981 5.49973 19.847 5.49905 18.3959 5.49905ZM9.8517 23.3952L12.3429 20.4991H9.4962L9.8517 23.3952ZM2.34967 0.959507C1.28385 0.959507 0.958827 1.28047 0.95815 2.33207C0.95815 7.58126 0.95815 12.8304 0.95815 18.0803C0.95815 19.1956 1.26896 19.5009 2.40317 19.5009C3.87188 19.5009 5.34195 19.5009 6.81067 19.5009H12.8657L12.8392 19.2057C12.8338 19.1468 12.8298 19.0994 12.8264 19.0581C12.8196 18.9802 12.8155 18.9254 12.8088 18.8705L12.5697 16.9359C12.3355 15.044 12.1018 13.1521 11.8662 11.2602L11.6874 9.82327C11.3712 7.28196 11.0441 4.65466 10.7137 2.07002C10.6087 1.25068 10.2722 0.960184 9.42714 0.960184C8.30647 0.959507 7.18513 0.959507 6.06446 0.959507H2.34967Z" fill="white"/>
<path d="M20.7571 18.2142C20.6379 18.2142 20.5065 18.162 20.3779 18.0625C19.9783 17.7551 19.593 17.4409 19.1847 17.1077L19.1725 17.0976C19.0012 16.9581 18.8286 16.8172 18.6532 16.6757L18.4825 16.5376L18.3126 16.6757C18.1521 16.8064 17.9923 16.9371 17.8318 17.0678C17.475 17.3596 17.1066 17.6609 16.7389 17.9514C16.527 18.1194 16.3353 18.2081 16.1843 18.2081C16.0618 18.2081 15.9595 18.1485 15.8627 18.0212C15.7713 17.9013 15.5817 17.6521 16.1701 17.1795C16.506 16.91 16.8398 16.6351 17.135 16.3927L17.1438 16.3852C17.2657 16.285 17.3815 16.1895 17.4892 16.1015L17.6557 15.9647L17.2 15.0424C16.7768 14.1845 16.3766 13.374 15.9588 12.5587C15.8647 12.3752 15.6582 12.2939 15.449 12.233C15.1449 12.145 15.0196 11.9899 15.0284 11.7136C15.0372 11.4509 15.2262 11.2836 15.5214 11.2769C15.776 11.2714 16.0503 11.2687 16.3854 11.2687C16.5933 11.2687 16.8026 11.2694 17.0145 11.2708H17.0233C17.2454 11.2721 17.4709 11.2728 17.7011 11.2728H17.9374L17.9693 11.0385C17.9903 10.8862 17.9936 10.7304 17.997 10.5794C18.0112 9.95577 18.0559 9.80951 18.4683 9.80273H18.49C18.9037 9.80273 18.9498 9.94764 18.968 10.5699C18.9728 10.7257 18.9775 10.8862 19.0012 11.0405L19.0364 11.2701H20.4821C20.7422 11.2694 21.0022 11.2701 21.2615 11.2701C21.8215 11.2728 21.9177 11.4976 21.9387 11.6933C21.9603 11.8931 21.9353 12.086 21.4064 12.2438C21.2371 12.2946 21.0658 12.4422 20.9798 12.6122C20.5817 13.4004 20.1903 14.192 19.7759 15.0303L19.3154 15.9613L19.6994 16.2796C19.9296 16.4705 20.2099 16.7035 20.4923 16.9344C20.558 16.9885 20.6257 17.0407 20.6934 17.0928C20.7875 17.1653 20.8728 17.2303 20.9541 17.3014C21.2277 17.5391 21.2798 17.7957 21.1004 18.0239C21.0049 18.1458 20.8857 18.2101 20.7557 18.2101L20.7571 18.2142ZM18.2273 14.905L18.7507 14.8989L20.2235 12.2499H16.7409L18.2279 14.905H18.2273Z" fill="white"/>
<path d="M8.73577 13.726C8.52382 13.726 8.34506 13.5642 8.28953 13.3238L8.27667 13.2689C8.13515 12.6541 7.99024 12.0216 7.9056 11.398C7.84465 10.9497 7.61443 10.7222 7.22101 10.7222C7.16751 10.7222 7.11131 10.7263 7.04834 10.7344C7.02261 10.7378 6.99281 10.7391 6.95489 10.7391C6.92171 10.7391 6.88786 10.7378 6.85468 10.7371C6.81472 10.7358 6.77545 10.7344 6.7355 10.7344C5.35075 10.7344 5.23496 10.8278 4.9702 12.1679C4.9465 12.2891 4.92347 12.411 4.90045 12.5329C4.85441 12.7807 4.80633 13.0353 4.74877 13.2811C4.68444 13.5554 4.50365 13.726 4.2768 13.726C4.2504 13.726 4.22331 13.724 4.19623 13.7192C4.06418 13.6969 3.95178 13.6278 3.88068 13.5242C3.80281 13.4118 3.77708 13.2642 3.80755 13.1091C4.29915 10.6206 4.80701 8.10777 5.28439 5.74726C5.34736 5.43713 5.51394 5.29629 5.82475 5.29155C6.04888 5.28749 6.27843 5.28613 6.50663 5.28613C6.73482 5.28613 6.9725 5.28816 7.21017 5.29223C7.50608 5.29697 7.6774 5.43239 7.73293 5.70664C8.1216 7.61482 8.5096 9.55753 8.88542 11.4359L9.23144 13.1653C9.23144 13.1694 9.23482 13.229 9.23618 13.2493C9.21857 13.5168 9.08517 13.6657 8.8177 13.7192C8.79062 13.7246 8.76285 13.7274 8.73577 13.7274V13.726ZM6.17889 6.23277L5.45164 9.74713H7.57718L6.8479 6.22533L6.17889 6.23277Z" fill="white"/>
</g>
<defs>
<clipPath id="clip0_868_1718">
<rect width="25.0027" height="25" fill="white"/>
</clipPath>
</defs>
</svg>
