<svg width="25" height="25" viewBox="0 0 25 25" fill="none" xmlns="http://www.w3.org/2000/svg">
<g clip-path="url(#clip0_868_1693)">
<path d="M9.38054 10.4208C7.93646 10.4208 6.53732 9.79879 5.54204 8.71483C4.54975 7.63446 4.07099 6.24491 4.19443 4.80262C4.40894 2.29435 6.2449 0.381094 8.76336 0.0413451C8.79512 0.0371507 8.82628 0.026365 8.85624 0.0155793C8.87481 0.00898806 8.88859 0.00419443 8.90178 0H9.87968C10.0211 0.035353 10.1655 0.0665117 10.3057 0.0970711C10.6137 0.164182 10.9283 0.232491 11.2219 0.341546C12.3256 0.752001 13.2256 1.48663 13.8254 2.46513C14.4234 3.44183 14.6823 4.5953 14.5738 5.8015C14.3737 8.02334 12.5719 9.93181 10.2907 10.3393C9.98933 10.3932 9.68314 10.4202 9.38054 10.4202V10.4208ZM9.38653 1.03842C8.27621 1.03842 7.23119 1.47344 6.44324 2.2626C5.65529 3.05235 5.22146 4.09976 5.22206 5.21248C5.22386 7.50443 7.09038 9.37155 9.38294 9.37455C10.504 9.37455 11.5551 8.93953 12.343 8.15038C13.1292 7.36242 13.5612 6.31621 13.5594 5.20349C13.5552 2.91333 11.6887 1.04501 9.39852 1.03842H9.38713H9.38653Z" fill="white"/>
<path d="M0.680696 21.8782C0.324169 21.8782 0.12044 21.7602 0 21.4833V16.6987C0.0341546 16.5711 0.0653133 16.4392 0.0952735 16.3122C0.160587 16.0348 0.227698 15.7501 0.330761 15.4835C1.02704 13.6805 2.72878 12.5097 4.666 12.5019C5.40662 12.4989 6.20656 12.4971 7.18386 12.4971C7.9077 12.4971 8.63094 12.4977 9.35478 12.4989L10.8774 12.5001C11.1092 12.5001 11.3999 12.5756 11.4664 12.9327C11.5119 13.1772 11.3711 13.4246 11.1452 13.4971C11.0361 13.5319 10.9169 13.5349 10.7839 13.5349C10.3063 13.5349 9.82815 13.5355 9.35058 13.5355H7.20963C6.39591 13.5355 5.58279 13.5355 4.76907 13.5373C3.13084 13.5409 1.75087 14.5068 1.25234 15.9976C1.1289 16.3667 1.05939 16.7628 1.051 17.1439C1.03183 17.9966 1.03542 18.8648 1.03842 19.7037C1.03962 20.0255 1.04082 20.3425 1.04082 20.6588C1.04082 20.6894 1.04441 20.7188 1.04861 20.7589L1.057 20.8356H8.70764C8.9629 20.8368 9.39133 20.9051 9.39013 21.3533C9.38893 21.6835 9.13966 21.8734 8.70644 21.8734H4.97699C3.78697 21.8734 2.22365 21.8734 0.686089 21.8776H0.681894L0.680696 21.8782Z" fill="white"/>
<path d="M17.9995 24.9996C17.9168 24.9996 17.8347 24.999 17.752 24.999C17.752 24.999 17.3224 25.0002 17.2379 25.0002C17.1379 25.0002 17.0378 25.0002 16.9377 24.9984C16.3661 24.9912 15.9592 24.6419 15.8759 24.087C15.846 23.8869 15.8262 23.6819 15.8076 23.4836C15.7902 23.2996 15.7723 23.1103 15.7459 22.9239C15.7333 22.8347 15.6626 22.725 15.5817 22.6693C15.4008 22.544 15.1946 22.423 14.9508 22.3008C14.907 22.2786 14.8471 22.2654 14.7914 22.2654C14.765 22.2654 14.7267 22.2684 14.6919 22.2828C14.472 22.3727 14.2521 22.4721 14.0394 22.5692L14.0316 22.5728C13.9171 22.6249 13.8027 22.6771 13.6876 22.728C13.5001 22.8107 13.3191 22.8532 13.1495 22.8532C12.781 22.8532 12.4689 22.6531 12.2465 22.2738C11.9793 21.8178 11.721 21.3702 11.479 20.9424C11.171 20.3977 11.2812 19.8728 11.7816 19.5025C11.8942 19.4192 12.0105 19.3365 12.1231 19.2568C12.3077 19.1262 12.494 18.9944 12.6696 18.8553C12.7355 18.8032 12.7894 18.6876 12.7978 18.5803C12.8158 18.3466 12.8158 18.1099 12.7978 17.8756C12.7894 17.7696 12.7355 17.6545 12.6696 17.6024C12.4946 17.4646 12.3101 17.3334 12.1309 17.2063L12.1249 17.2021C12.0183 17.1266 11.8978 17.0409 11.7816 16.9553C11.2806 16.5844 11.1704 16.0595 11.4796 15.5154C11.7384 15.06 11.9967 14.6124 12.2477 14.1845C12.4695 13.8064 12.7846 13.6069 13.1579 13.6069C13.3275 13.6069 13.5067 13.6483 13.6912 13.7297C13.7949 13.7759 13.898 13.8226 14.001 13.8694C14.2209 13.97 14.4468 14.0731 14.6739 14.1618C14.7027 14.1732 14.7386 14.1792 14.7782 14.1792C14.8405 14.1792 14.9148 14.1642 14.9765 14.1384C15.0394 14.1126 15.097 14.0719 15.1527 14.0329C15.2174 13.988 15.2827 13.9425 15.3546 13.9185C15.6578 13.8184 15.792 13.6159 15.7896 13.2624C15.7884 13.0874 15.8094 12.9094 15.8292 12.7375C15.8382 12.6614 15.8466 12.5853 15.8538 12.5092C15.9161 11.8387 16.3205 11.4672 16.9928 11.4624C17.2415 11.4606 17.4902 11.46 17.7383 11.46C17.9863 11.46 18.2356 11.4606 18.4837 11.4624C19.1566 11.4672 19.5592 11.8393 19.618 12.5098L19.6257 12.5967C19.6533 12.9106 19.6815 13.236 19.7276 13.553C19.7402 13.6417 19.8211 13.7321 19.8924 13.7867C19.9397 13.8232 19.9949 13.8484 20.0524 13.8748C20.1153 13.9035 20.18 13.9329 20.2303 13.9778C20.3819 14.1144 20.5329 14.1803 20.6905 14.1803C20.8248 14.1803 20.9668 14.1324 21.1238 14.0341C21.2975 13.9257 21.4935 13.8472 21.6834 13.7711C21.7409 13.7477 21.7985 13.725 21.8554 13.701C22.0076 13.6369 22.161 13.6045 22.3114 13.6045C22.6703 13.6045 22.9909 13.7939 23.1904 14.1246C23.4732 14.5926 23.7525 15.0756 24.0209 15.5603C24.2995 16.063 24.1803 16.5927 23.7111 16.9427C23.4049 17.171 23.1191 17.3759 22.8381 17.5688C22.7176 17.6515 22.6523 17.7336 22.6757 17.9056C22.7033 18.1099 22.7033 18.3304 22.6751 18.5617C22.6571 18.7079 22.6973 18.7912 22.8273 18.8793C23.0951 19.0615 23.3606 19.255 23.617 19.442L23.6818 19.4893C24.1851 19.856 24.3061 20.3935 24.0065 20.9268C23.7369 21.4056 23.4702 21.8675 23.2132 22.299C23.0017 22.6549 22.6835 22.8508 22.3174 22.8508C22.1574 22.8508 21.9914 22.8137 21.8242 22.7412C21.4473 22.577 21.1202 22.4284 20.8242 22.2876C20.757 22.2552 20.7061 22.2414 20.6594 22.2414C20.6019 22.2414 20.5479 22.2642 20.4946 22.3116C20.4239 22.3739 20.3298 22.4488 20.2273 22.4799C19.8385 22.598 19.6635 22.8652 19.6761 23.3206C19.6803 23.471 19.6605 23.6244 19.6413 23.7724C19.6317 23.8467 19.6216 23.924 19.615 24.0001C19.5622 24.5867 19.135 24.987 18.552 24.996C18.4507 24.9978 18.3494 24.9978 18.2476 24.9978H18.0001L17.9995 24.9996ZM14.889 21.0982C15.0143 21.0982 15.1425 21.1419 15.2803 21.2318C15.6123 21.4481 15.9694 21.6554 16.3727 21.8657C16.6123 21.9904 16.7232 22.1396 16.7442 22.3637C16.7879 22.8335 16.8317 23.293 16.8874 23.746C16.8958 23.8138 16.9533 23.9102 16.9934 23.9384L17.0096 23.9498H17.0294C17.3392 23.9594 17.64 23.9606 17.8934 23.9606C17.9642 23.9606 18.5676 23.9594 18.5676 23.9594L18.5735 23.9012C18.5879 23.764 18.6023 23.6286 18.6173 23.4944V23.4872C18.6586 23.1133 18.6964 22.7633 18.7263 22.408C18.7485 22.1468 18.8654 21.9862 19.1302 21.8556C19.47 21.6872 19.8235 21.4817 20.18 21.2444C20.328 21.1455 20.4574 21.0994 20.5869 21.0994C20.6762 21.0994 20.7666 21.1209 20.8619 21.1659C21.1903 21.3199 21.5138 21.4637 21.8566 21.6159C21.9824 21.6722 22.11 21.7285 22.2389 21.7866L22.2928 21.8106L23.1227 20.3749L22.738 20.0975C22.4456 19.8866 22.1436 19.6679 21.838 19.4527C21.6343 19.3089 21.5582 19.1256 21.5827 18.8398C21.5863 18.7954 21.5905 18.7511 21.5947 18.7061C21.6235 18.3934 21.6529 18.0746 21.6013 17.775C21.5312 17.3687 21.6493 17.1093 22.007 16.8798C22.2718 16.7102 22.5199 16.5274 22.7824 16.3339L22.8105 16.3129C22.898 16.2482 22.9861 16.1835 23.0754 16.1194L23.1233 16.0846L22.2916 14.6483L22.2377 14.6723C22.1142 14.7274 21.992 14.7819 21.8704 14.8353C21.5414 14.9809 21.2298 15.1187 20.9152 15.2709C20.7996 15.3266 20.6923 15.3542 20.5893 15.3542C20.4455 15.3542 20.3052 15.3027 20.1471 15.1918C19.8121 14.9569 19.4394 14.7628 19.1158 14.5992C18.8642 14.4716 18.7473 14.311 18.7263 14.0611C18.6952 13.695 18.655 13.3253 18.6167 12.9676C18.6023 12.8351 18.5885 12.7039 18.5747 12.5727L18.5688 12.5146H16.9072L16.8586 12.9777C16.8191 13.3558 16.7813 13.7118 16.7478 14.0767C16.725 14.3206 16.6082 14.4734 16.3427 14.6034C16.0563 14.7442 15.6848 14.9365 15.3534 15.1732C15.185 15.2937 15.0364 15.3494 14.8866 15.3494C14.7776 15.3494 14.6649 15.32 14.5427 15.2589C14.2305 15.1037 13.9231 14.9689 13.5972 14.8263C13.4779 14.7742 13.3587 14.7214 13.2382 14.6681L13.1843 14.6441L12.3556 16.0804L12.4035 16.1152C12.5102 16.1925 12.6151 16.2698 12.7193 16.3465C13.0009 16.5538 13.2646 16.7473 13.5438 16.9283C13.835 17.117 13.9321 17.3525 13.8788 17.7408C13.8314 18.086 13.8296 18.4041 13.8752 18.6852C13.9405 19.0926 13.8338 19.3437 13.5073 19.5522C13.2316 19.7284 12.9632 19.9267 12.7037 20.1185C12.6043 20.1922 12.5048 20.2659 12.4041 20.339L12.3568 20.3737L13.1843 21.8034L13.2646 21.7699C13.3191 21.7477 13.3689 21.7273 13.4174 21.7052L13.6888 21.5835C13.977 21.4547 14.3042 21.3079 14.6182 21.1629C14.7123 21.1191 14.801 21.0982 14.8902 21.0982H14.889Z" fill="white"/>
<path d="M17.7382 20.8345C17.0444 20.8339 16.3876 20.5576 15.8903 20.0573C15.3953 19.56 15.1251 18.9074 15.1287 18.2202C15.1359 16.7893 16.3085 15.625 17.7424 15.625H17.7532C18.4465 15.628 19.099 15.9024 19.5904 16.3992C20.0823 16.8959 20.3514 17.5526 20.3472 18.2465C20.3388 19.6732 19.1691 20.8345 17.7406 20.8345H17.7382ZM17.7358 16.6634C16.8856 16.6634 16.1875 17.3573 16.1797 18.21C16.1761 18.633 16.3349 19.0291 16.6273 19.3251C16.9191 19.6205 17.3122 19.7841 17.7334 19.7853C18.1589 19.7853 18.5567 19.6199 18.8546 19.3197C19.1482 19.0237 19.3087 18.6336 19.3058 18.2208C19.2998 17.3663 18.5987 16.6676 17.7442 16.6634H17.7358Z" fill="white"/>
</g>
<defs>
<clipPath id="clip0_868_1693">
<rect width="24.1695" height="25" fill="white"/>
</clipPath>
</defs>
</svg>
