<svg width="23" height="25" viewBox="0 0 23 25" fill="none" xmlns="http://www.w3.org/2000/svg">
<g clip-path="url(#clip0_868_1743)">
<path d="M11.3344 24.9995C11.0359 24.9995 10.7374 24.927 10.4213 24.7775C7.93366 23.6002 5.84869 22.0342 4.22481 20.1234C2.60395 18.2161 1.39384 15.9081 0.628209 13.2634C0.21041 11.8212 0.0055371 10.2955 0.00151012 8.59914C-0.000503373 7.67445 -0.000503373 6.73667 0.00151012 5.81197C0.00352361 5.01463 0.407732 4.42417 1.14014 4.14983C2.58834 3.6072 3.59207 2.60045 4.12262 1.15779C4.34511 0.55223 4.75586 0.185271 5.37803 0.0352663C5.41176 0.0272123 5.44397 0.0151314 5.47619 -0.000976562H17.17C17.2395 0.0267089 17.3095 0.0533877 17.3774 0.0785563C17.5707 0.151042 17.7519 0.219501 17.9065 0.310611C18.1848 0.474207 18.3907 0.737471 18.5181 1.09235C19.0562 2.58988 20.0881 3.62532 21.5846 4.16997C22.2284 4.40454 22.6608 5.01664 22.6608 5.69317C22.6608 5.93228 22.6613 6.17138 22.6618 6.41048C22.6644 7.49726 22.6674 8.62129 22.614 9.71915C22.4907 12.2652 21.7905 14.7262 20.5326 17.0337C18.6394 20.5079 15.8497 23.1149 12.242 24.7821C11.9264 24.928 11.6294 24.999 11.3339 24.999L11.3344 24.9995ZM5.85221 0.802406C5.31259 0.802406 5.04329 0.98513 4.85805 1.47642C4.24293 3.10936 3.09977 4.25705 1.45978 4.88677C0.994664 5.06547 0.804893 5.34132 0.804389 5.83915V6.414C0.802879 7.18819 0.801873 7.98855 0.806906 8.78086C0.815464 10.0947 0.955401 11.2771 1.23528 12.3966C2.58129 17.7817 5.79332 21.7055 10.7827 24.0597C10.9705 24.1483 11.1497 24.1911 11.3309 24.1911C11.5121 24.1911 11.6933 24.1483 11.8871 24.0597C14.9245 22.676 17.3759 20.5568 19.173 17.761C20.7702 15.2759 21.6576 12.5612 21.8106 9.69146C21.8585 8.79546 21.8579 7.88737 21.8579 7.00899C21.8579 6.64052 21.8579 6.25947 21.861 5.88496C21.866 5.33326 21.6808 5.06497 21.1537 4.8611C19.5525 4.24145 18.4285 3.10735 17.8128 1.49102C17.619 0.983117 17.3558 0.802909 16.8051 0.802909C15.8885 0.802909 11.3284 0.802909 11.3284 0.802909H8.59962C7.68348 0.802909 6.76784 0.802909 5.85171 0.802909L5.85221 0.802406Z" fill="white"/>
<path d="M11.3279 18.6059C10.7395 18.6059 10.147 18.6009 9.56609 18.5908C8.04339 18.5651 6.72455 17.272 6.6863 15.7674C6.64754 14.2527 6.66213 12.7235 6.68126 11.159C6.69032 10.4432 7.239 9.86535 7.98651 9.78481C8.0444 9.77877 8.09826 9.77021 8.15514 9.76115C8.15514 9.76115 8.21101 9.75259 8.23618 9.74857L8.5377 9.70427V9.39973C8.5377 9.17522 8.5377 8.95173 8.53669 8.72924C8.53569 8.25607 8.53518 7.76679 8.5382 7.28204C8.54726 5.94458 9.42817 4.8432 10.7304 4.54067C10.9302 4.49436 11.1351 4.4707 11.339 4.4707C12.0407 4.4707 12.7434 4.75612 13.2664 5.25294C13.804 5.76437 14.109 6.44342 14.1246 7.16576C14.1342 7.60923 14.1322 8.06277 14.1307 8.50121C14.1297 8.70809 14.1292 8.91297 14.1292 9.11784V9.69118L14.4216 9.74152C14.4845 9.75209 14.5449 9.76115 14.6038 9.77021C14.7116 9.78632 14.8137 9.80142 14.9039 9.82508C15.5446 9.9927 15.9796 10.5298 15.9861 11.1615V11.2265C16.0022 12.717 16.0183 14.2588 15.9801 15.7704C15.9418 17.2735 14.621 18.5646 13.0962 18.5898C12.5083 18.5999 11.9133 18.6044 11.3279 18.6044V18.6059ZM9.61643 10.5726C9.16289 10.5726 8.70935 10.5726 8.25581 10.5741C7.7162 10.5756 7.47558 10.8182 7.47508 11.3609L7.47407 12.2614C7.47256 13.3245 7.47105 14.4244 7.47659 15.5071C7.48313 16.8496 8.42847 17.7899 9.77549 17.794C10.1983 17.795 10.6212 17.7955 11.0435 17.7955C11.4155 17.7955 11.7875 17.7955 12.1595 17.795H12.8159C14.2797 17.7935 15.1908 16.8879 15.1928 15.4311C15.1948 14.3338 15.1938 13.2178 15.1933 12.1386V11.4122C15.1928 10.8097 14.9597 10.5746 14.3612 10.5741C13.9409 10.5741 13.5211 10.5736 13.1008 10.5736H9.61643V10.5726ZM11.3198 5.27711C10.2366 5.28365 9.36826 6.1419 9.3436 7.2307C9.33857 7.45923 9.33957 7.68927 9.34008 7.91126C9.34008 8.00488 9.34108 8.09851 9.34058 8.19214C9.34058 8.46748 9.34058 9.40375 9.34058 9.40375V9.75612H13.2754L13.3082 9.44C13.3097 9.42439 13.3117 9.4098 13.3132 9.3957C13.3187 9.3509 13.3253 9.30207 13.3253 9.24771C13.3253 9.05995 13.3263 8.8727 13.3268 8.68494C13.3288 8.20975 13.3308 7.71897 13.3223 7.23321C13.3031 6.13636 12.4288 5.27711 11.3314 5.27711H11.3193H11.3198Z" fill="white"/>
<path d="M11.3269 15.2972C11.0999 15.2937 10.9453 15.1276 10.9347 14.8734C10.9282 14.7208 10.9302 14.5628 10.9317 14.4098C10.9327 14.3348 10.9332 14.2608 10.9332 14.1868C10.9332 14.1133 10.9322 14.0393 10.9317 13.9653C10.9302 13.8118 10.9282 13.6527 10.9347 13.5002C10.9453 13.2515 11.1114 13.0713 11.3304 13.0713H11.339C11.5589 13.0753 11.724 13.2525 11.7306 13.4921C11.7432 13.9492 11.7432 14.4148 11.7306 14.8759C11.7235 15.1316 11.569 15.2972 11.3359 15.2972H11.3264H11.3269Z" fill="white"/>
</g>
<defs>
<clipPath id="clip0_868_1743">
<rect width="22.6633" height="25" fill="white"/>
</clipPath>
</defs>
</svg>
