<svg width="22" height="25" viewBox="0 0 22 25" fill="none" xmlns="http://www.w3.org/2000/svg">
<g clip-path="url(#clip0_868_1699)">
<path d="M12.6014 25C9.29211 25 5.98279 24.9988 2.67348 24.9963C2.42669 24.9963 2.20222 24.9727 2.00504 24.9262C0.789703 24.641 0.00345363 23.6321 0.00159341 22.356C-0.000886867 20.3445 -0.000266797 18.3206 -0.000266797 16.363V10.9845C-0.000266797 8.21345 -0.000266797 5.44298 0.000353274 2.67188C0.00159341 1.62148 0.452385 0.833995 1.34157 0.331738C1.53007 0.225706 1.74647 0.160598 1.97652 0.0923905C2.07325 0.0632472 2.17308 0.0334838 2.27229 0H15.8438C15.876 0.0217025 15.9089 0.0421648 15.9417 0.0632472C16.0403 0.125874 16.1333 0.185401 16.2053 0.255469C17.1279 1.15519 18.0487 2.05739 18.9702 2.95898C19.7217 3.695 20.4732 4.43102 21.226 5.16581C21.399 5.33447 21.4759 5.51491 21.4759 5.75053C21.474 8.8143 21.4734 11.8774 21.4734 14.9412V15.17C21.4734 17.5585 21.4734 19.947 21.4722 22.3362C21.4715 23.8783 20.3455 24.9975 18.7953 24.9981C16.7311 24.9988 14.6663 24.9994 12.602 24.9994L12.6014 25ZM2.74292 1.09628C1.69811 1.09628 1.09912 1.69217 1.09912 2.73017C1.09912 9.24339 1.09912 15.756 1.09912 22.2692C1.09912 23.3078 1.69873 23.9031 2.74355 23.9031H18.7184C19.7856 23.9031 20.3728 23.3177 20.3734 22.2549V6.19512H18.0165C17.6215 6.19574 17.2271 6.19512 16.8322 6.19512C15.8301 6.19264 15.1797 5.54405 15.1747 4.54202C15.1722 3.94799 15.1729 3.34962 15.1735 2.77109C15.1735 2.51005 15.1735 2.24962 15.1735 1.98857V1.09628H2.74292ZM16.2735 2.2924V2.99556C16.2735 3.53812 16.2729 4.08068 16.2747 4.62325C16.2753 4.91096 16.4614 5.09698 16.7485 5.0976H16.8998C17.5025 5.0976 18.1033 5.09574 18.6775 5.09264L19.4104 5.08892L16.5717 2.0977L16.2741 2.2924H16.2735Z" fill="white"/>
<path d="M9.87277 12.899C8.41126 12.899 6.94975 12.899 5.48825 12.8984C5.12861 12.8984 4.88244 12.7012 4.8626 12.3968C4.85205 12.2355 4.90042 12.088 4.99963 11.9813C5.10566 11.8678 5.26378 11.8052 5.44546 11.8046C5.94772 11.8027 6.4506 11.8027 6.95347 11.8027H13.5795C14.3373 11.8027 15.095 11.8027 15.8527 11.8046C16.0822 11.8046 16.2824 11.9075 16.3878 12.0787C16.4821 12.2312 16.4871 12.4172 16.4015 12.5884C16.2955 12.7998 16.1274 12.8984 15.8713 12.899C15.5836 12.899 15.2965 12.899 15.0088 12.899H9.87277Z" fill="white"/>
<path d="M7.53696 18.8505C6.84558 18.8505 6.15482 18.8505 5.46344 18.8486C5.25448 18.8486 5.07094 18.7655 4.95994 18.6216C4.86073 18.4927 4.82973 18.3302 4.87314 18.1628C4.93824 17.9117 5.15713 17.7554 5.44484 17.7548C5.90617 17.7535 6.3675 17.7529 6.82884 17.7529H12.0188C12.9905 17.7529 13.9621 17.7529 14.9338 17.7542C15.1632 17.7542 15.3579 17.8478 15.4683 18.0096C15.5656 18.1523 15.5818 18.3259 15.5142 18.4983C15.4236 18.7302 15.2258 18.8486 14.9276 18.8486C14.2009 18.8486 13.4741 18.8492 12.748 18.8492H7.53696V18.8505Z" fill="white"/>
<path d="M13.9057 15.8746C13.2732 15.874 12.6401 15.8734 12.0077 15.8734L7.33481 15.8746C6.7104 15.8746 6.08598 15.8746 5.46157 15.8727C5.25385 15.8727 5.07093 15.7897 4.95994 15.6458C4.86011 15.5168 4.82972 15.3531 4.87375 15.1863C4.94071 14.9315 5.16394 14.7789 5.47087 14.7789C6.10335 14.7783 6.7352 14.7783 7.36767 14.7783H12.1193C12.7176 14.7783 13.3154 14.7783 13.9138 14.7796C14.1426 14.7796 14.3422 14.8825 14.447 15.0536C14.5413 15.2068 14.5456 15.3928 14.4594 15.5639C14.3515 15.7791 14.1804 15.8746 13.9057 15.8746Z" fill="white"/>
</g>
<defs>
<clipPath id="clip0_868_1699">
<rect width="21.4749" height="25" fill="white"/>
</clipPath>
</defs>
</svg>
