<svg width="26" height="25" viewBox="0 0 26 25" fill="none" xmlns="http://www.w3.org/2000/svg">
<g clip-path="url(#clip0_868_1748)">
<path d="M25.925 12.5535C25.9232 12.3311 25.9208 12.1087 25.9208 11.8862C25.9208 11.7224 25.9041 11.558 25.873 11.3977C25.5919 9.96867 24.4218 8.98567 22.9617 8.95159C22.8349 8.9486 22.7075 8.948 22.5796 8.948C22.472 8.948 22.3637 8.9486 22.2543 8.9492C22.1646 8.9492 22.0743 8.9504 21.9829 8.9504C21.9231 6.4672 21.0429 4.35352 19.3669 2.66557C17.6323 0.919615 15.5019 0.0227213 13.036 0C13.0061 0 12.9763 0 12.9464 0C10.8566 0 8.98089 0.659516 7.37186 1.96061C5.19959 3.71732 4.05396 6.06898 3.96546 8.95099C3.87338 8.95099 3.7819 8.9504 3.69161 8.9498C3.58219 8.9492 3.47337 8.9486 3.36514 8.9486C3.21865 8.9486 3.09667 8.9498 2.98247 8.95279C1.52352 8.98926 0.355768 9.97584 0.0765349 11.4067C0.0532157 11.5257 0.0376695 11.6465 0.0221234 11.7642C0.0149482 11.8193 0.00777307 11.8737 0 11.9287V14.2684C0.00777307 14.3204 0.0155461 14.373 0.0227213 14.4256C0.0382674 14.5374 0.0544115 14.6528 0.0771328 14.7664C0.349788 16.1524 1.47808 17.1319 2.88321 17.203C3.04944 17.2114 3.07216 17.2514 3.07395 17.4057C3.07694 17.655 3.10026 17.9032 3.14331 18.143C3.68922 21.1762 6.22743 23.2983 9.31513 23.3037H10.0709L10.0757 23.3192C10.0871 23.3557 10.0966 23.3868 10.1068 23.4173C10.4171 24.3638 11.1526 24.9336 12.1242 24.9797C12.4154 24.9934 12.7018 25.0006 12.9763 25.0006C13.2997 25.0006 13.6172 24.991 13.9198 24.9713C15.075 24.8978 15.9575 23.9136 15.93 22.7309C15.9025 21.5685 14.9835 20.6285 13.8379 20.5909H13.8134C13.5192 20.5807 13.2148 20.5705 12.9153 20.5705C12.6157 20.5705 12.3574 20.5807 12.1176 20.601C11.7864 20.6291 11.4234 20.7374 11.0958 20.906C10.5965 21.1625 10.2545 21.6127 10.0781 22.2453C9.86224 22.2627 9.64937 22.2717 9.44429 22.2717C7.73899 22.2717 6.39724 21.6791 5.3419 20.4599C4.54725 19.5415 4.13229 18.4533 4.10837 17.2245C4.11196 17.2245 4.11554 17.2245 4.11853 17.2239C4.15321 17.2209 4.17833 17.2186 4.20284 17.218C4.87491 17.1982 5.02021 17.047 5.02021 16.3653C5.02021 15.6837 5.01901 15.0421 5.01782 14.3802C5.01483 12.6599 5.01244 10.8805 5.02918 9.13097C5.03695 8.34888 5.10272 7.7354 5.23546 7.20026C5.9757 4.22676 7.7952 2.27631 10.6431 1.40394C11.491 1.14384 12.3299 1.01229 13.1365 1.01229C15.0499 1.01229 16.8179 1.74117 18.3923 3.17859C20.0761 4.71646 20.9311 6.70159 20.9323 9.07895C20.9329 10.3884 20.9329 11.6973 20.9323 13.0067C20.9323 14.1763 20.9323 15.3458 20.9323 16.5154C20.9323 16.9979 21.1458 17.2138 21.6235 17.2156L21.8322 17.2168C21.9781 17.2174 22.1246 17.2186 22.2705 17.2186C22.5987 17.2186 22.851 17.2144 23.0884 17.2048C24.5988 17.1438 25.8365 15.9276 25.9059 14.4358C25.9352 13.8092 25.9292 13.1712 25.9238 12.5541L25.925 12.5535ZM22.6334 16.1728C22.5186 16.1728 22.4032 16.1716 22.286 16.1698C22.1867 16.1686 22.0863 16.1674 21.984 16.1668V9.99318C22.0157 9.99318 22.048 9.99378 22.0797 9.99378C22.1867 9.99378 22.2932 9.99139 22.3996 9.9884C22.5042 9.98601 22.6095 9.98302 22.7135 9.98302C23.046 9.98302 23.4011 10.0063 23.7467 10.1744C24.4427 10.5128 24.829 11.0629 24.8631 11.7654C24.9067 12.6623 24.9067 13.5503 24.8631 14.4041C24.8146 15.3614 24.0326 16.1178 23.0436 16.1638C22.9216 16.1692 22.7907 16.1722 22.6322 16.1722L22.6334 16.1728ZM1.09062 14.4119C1.04697 13.518 1.04638 12.63 1.08823 11.7732C1.13547 10.8189 1.91457 10.056 2.90175 9.99916C3.02373 9.99199 3.15407 9.989 3.31193 9.989C3.42673 9.989 3.54273 9.99079 3.65992 9.99259C3.75858 9.99438 3.85843 9.99557 3.95889 9.99617V16.1734C3.90507 16.1716 3.84827 16.171 3.78609 16.171C3.68922 16.171 3.59236 16.1728 3.49609 16.1752C3.40102 16.177 3.30595 16.1794 3.21148 16.1794C2.87365 16.1794 2.51309 16.1548 2.16929 15.9785C1.48705 15.6287 1.1247 15.1019 1.09122 14.4131L1.09062 14.4119ZM13.6985 21.6259C14.3772 21.6331 14.8789 22.1096 14.892 22.759C14.9058 23.4227 14.4155 23.9231 13.7267 23.9494C13.6435 23.9524 13.555 23.9542 13.4474 23.9542C13.3685 23.9542 13.2896 23.9536 13.2112 23.9524C13.1317 23.9518 13.0528 23.9506 12.9733 23.9506C12.8991 23.9506 12.8244 23.9512 12.7502 23.9518C12.6713 23.9524 12.5918 23.953 12.5129 23.953C12.4238 23.953 12.3341 23.9518 12.245 23.9494C11.555 23.9285 11.0581 23.4346 11.0629 22.7751C11.0677 22.1156 11.5729 21.6319 12.2641 21.6253C12.5057 21.6229 12.7472 21.6217 12.9888 21.6217C13.2304 21.6217 13.4624 21.6229 13.6991 21.6253L13.6985 21.6259Z" fill="white"/>
</g>
<defs>
<clipPath id="clip0_868_1748">
<rect width="25.9298" height="25" fill="white"/>
</clipPath>
</defs>
</svg>
