<svg width="22" height="25" viewBox="0 0 22 25" fill="none" xmlns="http://www.w3.org/2000/svg">
<g clip-path="url(#clip0_868_1649)">
<path d="M10.576 25.0003C10.4535 24.9645 10.3279 24.9312 10.2168 24.9023C9.93796 24.8295 9.6761 24.7617 9.43685 24.648C8.48174 24.1934 7.84876 23.4386 7.55676 22.4031C7.5373 22.3353 7.51972 22.2725 7.5015 22.2103C7.48832 22.1657 7.46446 22.1381 7.45064 22.1211C7.44625 22.1161 7.43997 22.1092 7.4318 22.0985L7.37215 22.0238H3.50083C2.54006 22.0238 1.57992 22.0238 0.619158 22.0225C0.378653 22.0225 0.172684 21.9152 0.0671887 21.7368C-0.0251202 21.5798 -0.0232364 21.3914 0.0722123 21.2194C0.111773 21.1484 0.171429 21.0806 0.224176 21.0235C1.80787 19.3249 2.81824 17.3537 3.22767 15.1647C3.37586 14.3703 3.42171 13.5691 3.45938 12.7496C3.47885 12.3288 3.47508 11.9025 3.47194 11.4899C3.46755 10.904 3.46252 10.2981 3.52343 9.71406C3.79471 7.11811 5.12408 5.14195 7.4745 3.8402C7.74703 3.68949 8.03778 3.56893 8.34547 3.44083C8.49241 3.37991 8.64312 3.31775 8.79446 3.25056L8.91251 3.19844V2.79529C8.91251 2.58493 8.91251 2.36263 8.91251 2.14097C8.91502 1.04519 9.52979 0.276578 10.5986 0.0316769C10.635 0.0235135 10.6651 0.0103266 10.689 -0.000976562H11.1983C11.2968 0.0404682 11.3967 0.0781453 11.494 0.114566C11.7364 0.206247 11.9631 0.291649 12.154 0.421007C12.6664 0.76952 12.9402 1.2926 12.9672 1.97456C12.9772 2.22448 12.9747 2.48257 12.9722 2.73187C12.971 2.84992 12.9697 2.96735 12.9697 3.0854V3.21916L13.094 3.26939C13.2002 3.3121 13.3063 3.35228 13.4112 3.39247C13.6328 3.47662 13.8426 3.55574 14.0416 3.65558C16.8341 5.05403 18.3054 7.33726 18.4134 10.4419C18.4297 10.9122 18.4297 11.3926 18.4297 11.8573C18.4297 12.4852 18.4297 13.1314 18.4693 13.7681C18.6043 15.9603 19.3553 18.0093 20.7017 19.8574C20.9843 20.2454 21.3051 20.6103 21.6147 20.9626L21.6606 21.0147C21.8872 21.2728 21.9362 21.4724 21.8282 21.7035C21.7233 21.929 21.5412 22.025 21.2197 22.025C20.1673 22.0225 19.1186 22.0219 18.0693 22.0219H14.441L14.3989 22.1651C14.3864 22.2072 14.3751 22.2486 14.3638 22.2894C14.3399 22.3754 14.3179 22.4552 14.2909 22.5312C13.7955 23.924 12.856 24.719 11.4193 24.9601C11.3709 24.9683 11.3295 24.9852 11.2994 24.9984H10.5753L10.576 25.0003ZM8.68017 22.2794C8.92947 23.2094 9.90844 23.9102 10.9565 23.9102C11.0193 23.9102 11.0827 23.9076 11.1443 23.9026C12.1151 23.8216 13.1104 23.0178 13.1926 22.2492L13.2159 22.0294H8.61298L8.68017 22.2794ZM10.9483 4.06061C10.5201 4.06061 10.0905 4.10583 9.67171 4.19562C6.67261 4.83802 4.56834 7.43648 4.55453 10.5147C4.55327 10.7734 4.5539 11.0321 4.55453 11.2915C4.55579 12.1084 4.55704 12.9518 4.50806 13.775C4.36928 16.1192 3.58937 18.3258 2.18966 20.3327C2.15136 20.3874 2.11431 20.4426 2.07224 20.5041L1.78589 20.923H20.0122L19.8904 20.6448C19.8835 20.6291 19.8784 20.6172 19.8747 20.6078C19.8646 20.5839 19.8552 20.5607 19.8382 20.5349C19.8087 20.4916 19.7786 20.4489 19.7484 20.4062L19.7089 20.3503C18.3016 18.3409 17.5167 16.128 17.3773 13.7731C17.3384 13.1157 17.3371 12.4425 17.3365 11.7907C17.3365 11.3957 17.3352 10.9869 17.3264 10.5838C17.3158 10.1097 17.285 9.72474 17.2285 9.37371C16.7431 6.3451 14.0435 4.06124 10.949 4.06124L10.9483 4.06061ZM10.9421 1.09229C10.4893 1.09229 10.1012 1.40815 10.0384 1.82699C10.0033 2.06059 10.0121 2.29293 10.0202 2.51774C10.024 2.6157 10.0271 2.70487 10.0271 2.79341V2.99184H11.8846V2.60565C11.8846 2.43987 11.8846 2.27346 11.8846 2.10706V2.08445C11.8846 2.01789 11.8846 1.94944 11.8708 1.87597C11.7917 1.44017 11.4174 1.11113 10.981 1.09354C10.9684 1.09354 10.9559 1.09291 10.9427 1.09291L10.9421 1.09229Z" fill="white"/>
<path d="M21.3372 11.0108C21.0483 11.0108 20.8235 10.7772 20.7902 10.4425C20.7733 10.2742 20.7582 10.1053 20.7431 9.93639C20.6891 9.3367 20.6332 8.71628 20.5001 8.11659C20.1309 6.45001 19.2938 4.9266 18.0134 3.58843C17.896 3.46598 17.8112 3.33349 17.7748 3.21606C17.7045 2.99062 17.81 2.74824 18.031 2.62704C18.1139 2.5812 18.2024 2.55859 18.2929 2.55859C18.4411 2.55859 18.5861 2.62264 18.7017 2.73819C19.3302 3.37242 19.8728 4.06693 20.3149 4.80289C21.2926 6.4318 21.8207 8.24092 21.8841 10.1819V10.2629C21.8841 10.3232 21.8847 10.3835 21.8841 10.4444C21.8772 10.7647 21.6549 11.0033 21.3547 11.0114H21.3384L21.3372 11.0108Z" fill="white"/>
<path d="M0.546949 11.0112C0.538785 11.0112 0.529994 11.0112 0.521831 11.0105C0.239253 10.9967 0.0163297 10.7663 0.00377068 10.4743C0.00125888 10.4146 0.00188683 10.3518 0.00251478 10.2727C0.00251478 10.225 0.00314273 10.176 0.00314273 10.1207C0.113034 7.28365 1.17616 4.80701 3.16237 2.7624C3.28921 2.63178 3.44683 2.55957 3.60696 2.55957C3.74134 2.55957 3.86567 2.61043 3.96614 2.70588C4.07101 2.80573 4.13067 2.93885 4.13318 3.07951C4.13632 3.23399 4.07101 3.38658 3.95107 3.51029C2.95765 4.53008 2.20976 5.69305 1.72813 6.96779C1.33691 8.00265 1.12341 9.10722 1.09389 10.2495C1.09327 10.2821 1.09327 10.3154 1.09327 10.3487C1.09327 10.4196 1.09327 10.4862 1.08385 10.5452C1.0424 10.8109 0.811944 11.0118 0.547577 11.0118L0.546949 11.0112Z" fill="white"/>
</g>
<defs>
<clipPath id="clip0_868_1649">
<rect width="21.8841" height="25" fill="white"/>
</clipPath>
</defs>
</svg>
