<svg width="25" height="25" viewBox="0 0 25 25" fill="none" xmlns="http://www.w3.org/2000/svg">
<g clip-path="url(#clip0_868_1738)">
<path d="M13.0857 25.0004C10.497 25.0004 8.37776 24.998 6.41674 24.9932C4.92456 24.9897 3.47521 24.4649 2.33466 23.5159C1.19648 22.5687 0.410529 21.2372 0.120779 19.7658C-0.212404 18.0708 0.148147 16.343 1.1352 14.9008C2.11392 13.4705 3.57814 12.5185 5.25774 12.2199C5.9128 12.1032 6.00145 11.7177 5.99967 11.3185C5.98836 8.69407 5.99015 6.02682 5.99193 3.44763V2.33147C5.99431 0.723864 6.7172 0.00752122 8.3379 0.00752122C8.3379 0.00752122 12.561 0.00871116 13.3588 0.00871116C14.9486 0.00871116 17.0405 0.00811619 19.1253 0.000976562H19.1318C19.4906 0.000976562 19.7345 0.100336 19.9743 0.343084C21.5646 1.95485 23.0556 3.44585 24.5329 4.90055C24.7888 5.15222 24.8971 5.41936 24.8959 5.79359C24.887 7.94262 24.8881 10.1149 24.8893 12.2151V12.2341C24.8893 12.9344 24.8899 13.6341 24.8899 14.3344V16.7488C24.8905 18.7235 24.8911 20.6988 24.8899 22.6735C24.8887 24.2811 24.1659 24.998 22.5463 24.998C21.0726 24.998 19.5989 24.9986 18.1257 24.9998H17.8395C16.2551 25.001 14.6707 25.0016 13.0863 25.0016L13.0857 25.0004ZM12.8662 19.2583C12.6282 20.9968 11.8792 22.3665 10.5083 23.5683L9.91397 24.0895H22.5166C23.6649 24.0895 23.979 23.7753 23.979 22.6276C23.979 18.6812 23.979 14.7342 23.979 10.7872V6.09227L23.8041 6.01314C23.7767 6.00064 23.7565 5.99053 23.7404 5.9822C23.6911 5.95662 23.625 5.92211 23.5346 5.92211C22.2858 5.91735 21.0363 5.91378 19.7875 5.9114C19.0598 5.90961 18.9849 5.83703 18.9837 5.12842C18.9819 4.23359 18.9825 3.33816 18.9831 2.43499V1.02016L18.7493 0.968991C18.7094 0.960661 18.6791 0.952332 18.6535 0.946382C18.5958 0.931508 18.541 0.917824 18.475 0.917824L17.0012 0.916634C15.3847 0.915444 13.7676 0.914254 12.1511 0.914254C10.7779 0.914254 9.40527 0.914849 8.03208 0.917229C7.30741 0.918419 6.90759 1.34085 6.9064 2.10717C6.90343 3.62553 6.90283 5.16947 6.90283 6.66225V6.69021C6.90283 8.25022 6.90283 9.86318 6.89866 11.4488C6.89807 11.7308 6.96292 12.1151 7.53112 12.199C8.4319 12.3323 9.30531 12.6899 10.2007 13.2932C10.4655 13.4717 10.8243 13.5835 11.1366 13.5853C13.103 13.5954 15.0521 13.5966 16.8656 13.5966H20.58C20.6389 13.5966 20.6954 13.5919 20.7501 13.5877C20.7936 13.5841 20.8388 13.5805 20.8763 13.5805C20.9007 13.5805 20.9149 13.5823 20.9215 13.5835C21.2398 13.7894 21.3219 13.8965 21.335 13.9506C21.3582 14.047 21.2785 14.2892 21.1654 14.4058C21.1416 14.4302 21.0089 14.4944 20.6859 14.4956C19.042 14.5027 17.4189 14.5039 16.0475 14.5039H11.784L13.0721 18.0928H17.5117C18.6017 18.0928 19.6917 18.0928 20.7817 18.0946C21.0095 18.0946 21.1898 18.1553 21.2886 18.2647C21.3618 18.3457 21.3921 18.4551 21.3796 18.5908C21.3689 18.7026 21.3403 18.9989 20.7359 18.9995C19.6524 19.0007 18.5684 19.0007 17.4849 19.0007H12.9019L12.8668 19.2577L12.8662 19.2583ZM6.42388 13.0058C4.94955 13.01 3.56267 13.5919 2.51969 14.6444C1.47433 15.698 0.903758 17.0932 0.911493 18.5717C0.928152 21.6138 3.41453 24.0889 6.45422 24.0889H6.47148C7.94581 24.0847 9.33209 23.5028 10.3751 22.4515C11.4204 21.3978 11.9916 20.002 11.9839 18.523C11.9678 15.4809 9.48143 13.0058 6.44113 13.0058H6.42448H6.42388ZM19.9231 4.96956H23.0747L19.9231 1.7716V4.96956Z" fill="white"/>
<path d="M15.3901 10.0072H12.4497C11.6656 10.0077 10.8814 10.0072 10.0972 10.0054C9.83126 10.0048 9.51117 9.92802 9.49986 9.56806C9.4957 9.43896 9.53199 9.33424 9.60696 9.2563C9.70215 9.15694 9.85566 9.10399 10.0502 9.1028C10.5113 9.09982 11.0081 9.09863 11.6138 9.09863C11.9601 9.09863 12.3069 9.09863 12.6532 9.09923C13.0001 9.09923 13.3469 9.09982 13.6932 9.09982H17.4314C18.5487 9.09982 19.6661 9.09982 20.7835 9.10161C21.0494 9.10161 21.3689 9.17836 21.3802 9.53891C21.3844 9.66742 21.3493 9.77095 21.2767 9.84591C21.1761 9.95003 21.0048 10.0054 20.7811 10.006C19.9892 10.0077 19.1973 10.0083 18.406 10.0083H15.3889L15.3901 10.0072Z" fill="white"/>
<path d="M6.40068 22.46C6.39473 22.46 6.39056 22.46 6.38818 22.46C6.26205 22.4255 6.07225 22.2256 6.0306 22.0822C5.92649 21.7258 5.75573 21.5497 5.47669 21.3486C5.19348 21.1445 4.95847 20.8804 4.83174 20.6239C4.72881 20.4157 4.71037 20.2009 4.78177 20.0343C4.83353 19.9141 4.92991 19.8267 5.05367 19.788C5.11376 19.7696 5.16909 19.76 5.21847 19.76C5.29522 19.76 5.52786 19.76 5.70635 20.3568L5.77001 20.5692H7.20567V18.9997H6.90818C6.81537 18.9997 6.72374 19.0003 6.63271 19.0015H6.61784C6.52502 19.0026 6.4334 19.0032 6.34237 19.0032C6.2198 19.0032 6.11866 19.0015 6.02228 18.9979C5.29641 18.9711 4.77284 18.4463 4.74904 17.7223C4.74666 17.6539 4.74369 17.5854 4.74012 17.5164C4.72703 17.2398 4.71453 16.9815 4.76511 16.7507C4.83531 16.4276 4.95788 16.1652 5.10126 16.032C5.18456 15.9546 5.27261 15.8832 5.36662 15.8077C5.67838 15.5566 6.0312 15.2722 6.15614 14.7439C6.22397 14.6998 6.38699 14.6338 6.49587 14.6338C6.50182 14.6338 6.50599 14.6338 6.50836 14.6338C6.6339 14.6683 6.8237 14.8688 6.86594 15.0116C6.9772 15.3882 7.17116 15.5584 7.41331 15.7416C7.70604 15.9629 7.94759 16.2444 8.07551 16.5139C8.16892 16.7108 8.1832 16.9054 8.11478 17.0625C8.06302 17.1809 7.96663 17.2671 7.84288 17.3058C7.78279 17.3242 7.72746 17.3338 7.67867 17.3338C7.60192 17.3338 7.36928 17.3338 7.18841 16.7293L7.12535 16.5169H5.69207V18.0941H5.98955C6.08237 18.0941 6.17459 18.0935 6.26562 18.0923H6.2799C6.3745 18.0912 6.46553 18.0906 6.55596 18.0906C6.67853 18.0906 6.78027 18.0923 6.87546 18.0953C7.59954 18.1215 8.12371 18.6463 8.14988 19.3715C8.15226 19.4429 8.15702 19.5155 8.16119 19.5881C8.17487 19.8064 8.18737 20.0123 8.14512 20.186C8.07492 20.4746 7.97853 20.8697 7.78338 21.0678C7.69533 21.157 7.59656 21.2385 7.49185 21.3254C7.19674 21.5687 6.86297 21.8442 6.74159 22.3493C6.67377 22.3934 6.51134 22.4594 6.40187 22.4594L6.40068 22.46Z" fill="white"/>
</g>
<defs>
<clipPath id="clip0_868_1738">
<rect width="24.8959" height="25" fill="white"/>
</clipPath>
</defs>
</svg>
