<svg width="25" height="25" viewBox="0 0 25 25" fill="none" xmlns="http://www.w3.org/2000/svg">
<g clip-path="url(#clip0_868_1690)">
<path d="M12.5923 25C12.0005 25 11.3882 24.9601 10.7721 24.8821C8.33957 24.5732 6.15148 23.5724 4.26831 21.9078C2.06338 19.9592 0.692158 17.519 0.192058 14.6551C0.135937 14.3325 0.0954056 14.0006 0.0561209 13.6792C0.0380375 13.5295 0.0199541 13.3816 0 13.2344V11.7787L0.0106006 11.7219C0.0224484 11.6583 0.0349197 11.5928 0.0436496 11.5254C0.0642273 11.3694 0.0823107 11.2091 0.0985234 11.0668C0.13282 10.7667 0.167739 10.4566 0.22386 10.159C0.694652 7.67945 1.83453 5.5125 3.61045 3.71805C5.48364 1.82627 7.74843 0.640162 10.3418 0.192797C10.6655 0.137267 10.9972 0.0960867 11.3177 0.0567785L11.3389 0.0542827C11.4817 0.0368124 11.6239 0.0193421 11.7661 0H13.2177L13.2583 0.00873515C13.315 0.02059 13.3674 0.0318209 13.4223 0.0399321C13.653 0.0754967 13.8899 0.106694 14.0994 0.134147C14.5603 0.194669 15.0367 0.257687 15.4863 0.365004C18.586 1.10812 21.2561 3.01799 23.0052 5.74399C24.7537 8.46935 25.3822 11.6989 24.7749 14.8385C24.2492 17.5577 22.9678 19.8606 20.9662 21.6844C18.5523 23.8838 15.7351 24.9988 12.5929 24.9988L12.5923 25ZM12.5081 14.4748C12.0835 14.4748 11.6538 14.511 11.231 14.5821C8.03402 15.1205 5.4986 17.7436 5.06585 20.9606C5.04402 21.121 5.12758 21.3213 5.25978 21.4279C7.37554 23.1319 9.80807 23.9774 12.697 24.0129H12.7101C12.7887 24.0067 12.8716 24.0004 12.9652 23.9942L12.9801 23.993C13.242 23.9749 13.6006 23.9505 13.9554 23.9069C15.8835 23.6691 17.6669 22.9591 19.2557 21.7967C20.0115 21.2439 20.014 21.1141 19.8063 20.2637L19.8013 20.2437C18.9739 16.847 15.9745 14.4748 12.5075 14.4748H12.5081ZM12.5337 4.18476C13.7297 4.18476 14.8851 4.61278 15.7856 5.39084C16.85 6.3099 17.4511 7.44422 17.5715 8.76198C17.7486 10.6968 17.0096 12.3066 15.3753 13.5463L15.0254 13.8115L15.432 13.9762C16.8007 14.5309 17.9412 15.3102 18.823 16.2917C19.7022 17.2706 20.3532 18.4854 20.7573 19.9012L20.8813 20.3367L21.1832 19.9991C24.7662 15.9897 25.4159 8.72954 20.2185 3.99259C18.0865 2.04964 15.3478 0.979585 12.5062 0.979585C8.9145 0.979585 5.57842 2.64425 3.35291 5.5462C-0.740796 10.8846 1.16295 17.2014 3.82183 19.981L4.12302 20.2961L4.24212 19.8768C4.6412 18.4705 5.29158 17.2619 6.17517 16.2861C7.05502 15.3133 8.19615 14.5378 9.56675 13.98L9.98454 13.8103L9.61913 13.5463C8.36888 12.6448 7.58942 11.3457 7.42417 9.88819C7.26392 8.47372 7.7079 7.01308 8.61207 5.98171C9.61351 4.8399 11.0427 4.18476 12.5343 4.18476H12.5337ZM12.4894 5.18057C10.252 5.18057 8.40567 7.01745 8.37387 9.27486C8.35828 10.3561 8.77295 11.3838 9.54056 12.1687C10.3231 12.9686 11.3682 13.4134 12.4832 13.4216H12.5118C14.7461 13.4216 16.5887 11.5859 16.6193 9.32976C16.6342 8.2516 16.2189 7.22459 15.4513 6.43718C14.6731 5.63916 13.6374 5.19242 12.5355 5.18057H12.49H12.4894Z" fill="white"/>
</g>
<defs>
<clipPath id="clip0_868_1690">
<rect width="25" height="25" fill="white"/>
</clipPath>
</defs>
</svg>
