<svg width="26" height="25" viewBox="0 0 26 25" fill="none" xmlns="http://www.w3.org/2000/svg">
<g clip-path="url(#clip0_868_1723)">
<path d="M10.2407 21.8743C10.066 21.8743 9.88841 21.8696 9.71664 21.8655C9.54136 21.8608 9.35966 21.8562 9.17796 21.8562C9.17796 21.8562 6.05048 21.8573 5.37918 21.8573C4.52559 21.8573 3.672 21.8573 2.81783 21.8556C1.98294 21.8544 1.27541 21.5874 0.771792 21.0838C0.268754 20.5802 0.00233699 19.8732 0.0011685 19.0395C0 17.1448 0 15.2495 0 13.3548V8.50315C0 6.60844 0 4.71372 0.0011685 2.819C0.00175275 1.98411 0.26817 1.27658 0.771792 0.772961C1.27541 0.269339 1.98236 0.00233699 2.81725 0.00233699C4.84167 0.0011685 6.86609 0 8.89051 0C10.9149 0 12.8196 0.000584249 14.7844 0.00233699C15.6082 0.00292124 16.3075 0.266417 16.8071 0.764197C17.3066 1.26198 17.5724 1.96132 17.576 2.78628C17.5824 4.29949 17.58 5.83431 17.5783 7.31771L17.5771 8.19175C17.5765 8.94543 17.2534 8.94835 17.0799 8.94952H17.0706C16.9046 8.94952 16.5559 8.94952 16.5553 8.15962C16.5541 7.32765 16.5547 6.49509 16.5553 5.66312V5.57198C16.5553 4.68217 16.5553 3.79236 16.5541 2.90255C16.5523 1.63823 15.9389 1.0236 14.6792 1.0236C12.691 1.0236 10.7017 1.02302 8.71348 1.02302C6.72529 1.02302 4.84576 1.02302 2.91131 1.0236C1.65868 1.0236 1.0236 1.65459 1.02302 2.89787C1.02185 8.25485 1.02185 13.6118 1.02302 18.9688C1.02302 20.1881 1.66219 20.8331 2.86983 20.8343C3.32437 20.8343 3.7795 20.8343 4.23405 20.8343H6.30229C7.73662 20.8343 9.27144 20.8349 10.78 20.8431C11.1025 20.8448 11.2643 20.912 11.2924 20.9441C11.4291 21.1031 11.5097 21.3923 11.4793 21.47C11.4226 21.6131 11.1562 21.8094 10.9874 21.8322C10.773 21.8608 10.5358 21.8743 10.2401 21.8743H10.2407Z" fill="white"/>
<path d="M18.9022 24.9996C18.8046 24.9996 18.7193 24.985 18.6621 24.9587C16.8246 24.1203 15.3412 22.96 14.2522 21.5111C13.2829 20.2204 12.8009 18.7779 12.8207 17.2227C12.8371 15.9315 12.8365 14.6157 12.8184 13.3111C12.8126 12.8852 12.9522 12.6877 13.3524 12.5551C14.1359 12.2957 14.9217 12.0281 15.6812 11.7699L15.6953 11.7652C16.6487 11.4404 17.635 11.105 18.6077 10.7883C18.7065 10.7562 18.8233 10.7393 18.946 10.7393C19.0687 10.7393 19.1914 10.7568 19.2936 10.7901C20.2915 11.1149 21.3023 11.4591 22.2797 11.7915L22.2885 11.7944C23.0282 12.0462 23.7929 12.3068 24.549 12.5574C24.9422 12.6877 25.0841 12.8946 25.0713 13.3187C25.0561 13.8352 25.0596 14.3587 25.0631 14.8646C25.0648 15.0896 25.066 15.3092 25.066 15.5289V15.8053L25.1081 15.8076C25.0976 16.0437 25.09 16.2797 25.083 16.5093C25.0602 17.2285 25.0368 17.9693 24.924 18.6739C24.7137 19.992 24.0331 21.2254 22.8441 22.4429C21.8304 23.4811 20.6567 24.309 19.355 24.905C19.2265 24.964 19.057 24.999 18.9016 24.999L18.9022 24.9996ZM18.9507 11.8172C18.8093 11.8172 18.6697 11.8382 18.547 11.8785C17.878 12.0976 17.2009 12.3278 16.5465 12.551L16.5383 12.5539C15.8483 12.7888 15.1355 13.0313 14.4286 13.262C13.9992 13.4023 13.8175 13.6675 13.8385 14.1232C13.8572 14.5275 13.8531 14.9418 13.849 15.3426C13.8473 15.5155 13.8455 15.6878 13.8455 15.8608C13.8455 15.9975 13.8467 16.1348 13.8479 16.2721C13.8502 16.5636 13.8525 16.8622 13.8438 17.1531C13.804 18.5285 14.2457 19.8226 15.1572 20.9998C16.0026 22.0918 17.1156 22.9997 18.5592 23.775C18.6615 23.8299 18.797 23.8603 18.9408 23.8603C19.119 23.8603 19.286 23.8142 19.3994 23.7335C19.5776 23.6073 19.7575 23.4823 19.9375 23.3567L19.9603 23.3409C20.6707 22.8472 21.4051 22.3366 22.0583 21.7418C23.2233 20.6814 23.8654 19.4668 23.967 18.1329C24.0523 17.0129 24.0424 15.8736 24.0331 14.7717C24.0307 14.4685 24.0278 14.1653 24.0272 13.8627C24.0266 13.5682 23.6808 13.352 23.5131 13.2936C21.9596 12.7508 20.5965 12.2875 19.3462 11.8785C19.2265 11.8394 19.0892 11.8184 18.9501 11.8184L18.9507 11.8172Z" fill="white"/>
<path d="M8.77133 9.56208H5.9979C5.30498 9.56267 4.61206 9.56208 3.91856 9.56091C3.21045 9.55916 3.20928 9.18466 3.20869 9.06138C3.20869 8.92058 3.24901 8.81015 3.33372 8.72485C3.45291 8.60508 3.65214 8.5414 3.90921 8.5414C5.41073 8.53965 6.91283 8.53906 8.41435 8.53906H13.7158C14.0938 8.53906 14.2779 8.65241 14.3503 8.92992C14.4181 9.18992 14.3421 9.37512 14.1248 9.48029C13.9863 9.54748 13.7842 9.55682 13.6235 9.55799C12.6659 9.56267 11.7101 9.56325 11.0744 9.56325L8.77191 9.56208H8.77133Z" fill="white"/>
<path d="M6.61018 13.8447C5.63274 13.8447 4.72598 13.8435 3.83968 13.8406C3.62117 13.84 3.44063 13.7775 3.33196 13.6642C3.24725 13.5765 3.20518 13.4562 3.20927 13.3159C3.2192 13.0051 3.44823 12.8258 3.83909 12.8228C4.17971 12.8205 4.55012 12.8193 5.00467 12.8193C5.22727 12.8193 5.44928 12.8193 5.67188 12.8193H5.83956C6.11825 12.8199 6.39693 12.8205 6.67503 12.8205H6.69139C6.96541 12.8205 7.23942 12.8205 7.51343 12.8199C7.78861 12.8199 8.06146 12.8193 8.3343 12.8193C8.70413 12.8193 9.07396 12.8193 9.44437 12.8223C9.85218 12.8246 10.1063 13.0197 10.1069 13.3311C10.1069 13.6449 9.8551 13.84 9.44788 13.8406C8.50198 13.8429 7.55608 13.8441 6.61077 13.8441L6.61018 13.8447Z" fill="white"/>
<path d="M6.12409 5.30953C5.35522 5.30953 4.5735 5.30602 3.80112 5.2996C3.61124 5.29784 3.44823 5.23708 3.3419 5.12899C3.25251 5.03727 3.20577 4.91574 3.20811 4.77786C3.21278 4.46938 3.4383 4.29001 3.82683 4.28592C4.09792 4.283 4.39004 4.28125 4.74585 4.28125C4.97429 4.28125 5.20332 4.28125 5.43176 4.28242C5.66254 4.283 5.89156 4.28359 6.12117 4.28359C6.31806 4.28359 6.51554 4.28359 6.71243 4.28242H6.81117C7.04136 4.28183 7.27039 4.28125 7.5 4.28125C7.85113 4.28125 8.14209 4.28242 8.41551 4.28592C8.80462 4.2906 9.03014 4.46996 9.03482 4.77845C9.03716 4.91691 8.991 5.03844 8.90161 5.12958C8.79586 5.23767 8.63227 5.29843 8.44122 5.30018C7.67235 5.30661 6.89238 5.31011 6.12351 5.31011L6.12409 5.30953Z" fill="white"/>
<path d="M18.6854 20.2631C18.5563 20.2631 18.4178 20.1924 18.2741 20.0539C17.6332 19.434 16.9648 18.7657 16.2298 18.0108C15.9821 17.7561 15.9623 17.4821 16.1749 17.2589C16.2725 17.1566 16.3917 17.1029 16.5202 17.1029C16.6674 17.1029 16.8217 17.1747 16.9543 17.3056C17.2686 17.6159 17.5748 17.9366 17.899 18.2766C18.0492 18.4344 18.1999 18.5921 18.3565 18.7546L18.5943 19.0011L18.7999 18.7271C19.0372 18.411 19.2691 18.0996 19.4981 17.7923C20.132 16.9416 20.7291 16.14 21.3543 15.3513C21.4968 15.1714 21.7621 15.0142 21.959 14.9932C22.0454 14.9961 22.264 15.1527 22.292 15.2321C22.3516 15.3998 22.316 15.6995 22.2207 15.8368C21.7072 16.5771 21.1515 17.3103 20.6146 18.0196L20.6105 18.0254C20.4154 18.2831 20.2203 18.5401 20.0269 18.799C19.9375 18.9181 19.8493 19.0379 19.7605 19.1577C19.5542 19.4364 19.3451 19.7197 19.13 19.9885C19.029 20.1147 18.8695 20.2648 18.6854 20.2648V20.2631Z" fill="white"/>
</g>
<defs>
<clipPath id="clip0_868_1723">
<rect width="25.1081" height="25" fill="white"/>
</clipPath>
</defs>
</svg>
