<svg width="23" height="25" viewBox="0 0 23 25" fill="none" xmlns="http://www.w3.org/2000/svg">
<g clip-path="url(#clip0_868_1731)">
<path d="M19.2725 19.8548C19.955 20.9974 19.253 22.1605 17.9004 21.944C17.6882 22.6791 17.2016 23.0449 16.4282 22.9724C15.9086 24.0376 15.5816 24.213 14.5424 23.9949C14.0429 25.0308 13.4053 25.4611 11.7782 24.3326C11.3263 24.725 10.7569 24.9577 10.2443 24.5794C9.79726 24.2492 9.40647 24.0035 8.82246 23.9851C8.32883 23.9694 8.21571 23.3204 7.8823 23.1126C7.5451 22.9021 7.00276 22.9481 6.77922 22.5232C6.60277 22.1881 6.38411 22.0572 6.02634 21.9743C5.24098 21.7925 4.90215 20.8989 5.30755 20.1844C5.41472 19.995 5.53975 19.8158 5.63934 19.5604C4.72137 20.0464 4.01449 19.5999 3.3114 19.1414C2.86108 18.8475 2.7393 18.4313 3.01155 17.9658C4.02153 16.2398 5.04071 14.5197 6.06801 12.8039C6.35055 12.3324 6.76028 12.2264 7.23712 12.4916C7.87256 12.8456 8.61786 13.1427 8.64601 14.019C8.6617 14.4975 8.93125 14.6122 9.27982 14.6355C9.52771 14.6523 9.80267 14.5954 10.0322 14.4948C10.8267 14.1462 11.6002 13.9773 12.4088 14.4699C12.5393 14.5494 12.7893 14.4953 12.9598 14.4347C13.8567 14.1159 14.7248 14.0791 15.5968 14.5397C15.8193 14.6571 16.1169 14.6333 16.4644 14.6874C16.1651 13.3576 17.049 12.9008 17.9128 12.4472C18.315 12.2361 18.7317 12.3568 18.9721 12.7573C20.0167 14.5002 21.0483 16.2511 22.0789 18.0026C22.2726 18.3317 22.2775 18.7111 21.9841 18.9433C21.4023 19.4039 20.8047 19.8748 19.9653 19.7336C19.7682 19.7005 19.549 19.8023 19.2719 19.8548H19.2725ZM12.2367 23.7329C12.5252 23.9007 12.7758 24.1156 13.0626 24.1892C13.2467 24.2368 13.5866 24.1361 13.6683 23.9938C13.749 23.8541 13.6488 23.5321 13.5233 23.3729C13.3814 23.1938 13.087 23.1402 12.9252 22.9697C12.7974 22.8349 12.7693 22.6049 12.6973 22.4176C12.8976 22.3965 13.1341 22.2969 13.2916 22.3695C13.7181 22.5649 14.1094 22.8355 14.5175 23.0715C14.8488 23.2625 15.1914 23.5759 15.5356 23.1148C15.7505 22.8268 15.586 22.5551 15.0415 22.232C14.6361 21.9911 14.2301 21.7519 13.8258 21.5094C13.5768 21.36 13.2348 21.222 13.4637 20.8529C13.6694 20.5216 13.9438 20.7241 14.1836 20.8659C14.8553 21.2631 15.5286 21.6572 16.197 22.0593C16.5148 22.2504 16.8395 22.3927 17.076 21.983C17.299 21.596 17.0198 21.3887 16.721 21.2128C16.0347 20.8085 15.3494 20.4025 14.6637 19.9971C14.4185 19.8521 14.1376 19.6967 14.3465 19.3595C14.5376 19.0516 14.7968 19.214 15.0263 19.3498C15.9914 19.9214 16.9559 20.494 17.9204 21.0672C18.2111 21.2399 18.5163 21.3351 18.7334 20.9963C18.9688 20.6293 18.7388 20.3966 18.4259 20.212C16.9981 19.3693 15.5724 18.5222 14.1452 17.6784C14.0239 17.607 13.8973 17.5442 13.7517 17.4662C13.4523 18.066 13.0139 18.4459 12.3623 18.5282C11.8789 18.5893 11.4226 18.2954 11.4259 17.8267C11.4324 16.8844 11.1823 15.9031 11.7533 14.9559C11.4107 14.9348 11.0687 14.9121 10.7796 15.0252C9.97425 15.3391 9.18618 15.6298 8.35698 15.0717C7.56729 16.407 6.81386 17.6811 6.02471 19.0153C6.8752 18.9237 7.51406 19.0665 7.94129 19.444C8.90635 18.9309 9.39998 19.0608 9.9618 19.9668C10.0073 20.0404 10.0852 20.1173 10.1642 20.1444C11.335 20.5406 11.4053 20.6288 11.4335 21.7979C12.3514 22.2596 12.5382 22.6915 12.2356 23.7329H12.2367ZM19.0863 19.1463C19.0846 19.1192 19.0884 19.1003 19.0814 19.0884C18.729 18.4854 18.3783 17.8819 18.0216 17.2817C17.8809 17.0446 17.7434 16.7935 18.0606 16.6132C18.3751 16.4346 18.5261 16.682 18.6646 16.9174C19.0024 17.4911 19.3358 18.0681 19.6881 18.6326C19.9436 19.0418 20.2722 19.1317 20.6862 18.9157C20.9547 18.7755 21.2058 18.6029 21.4813 18.434C20.408 16.624 19.3596 14.8558 18.3014 13.0718C18.0016 13.2493 17.7445 13.3879 17.502 13.5486C17.1323 13.7927 17.0539 14.1267 17.2525 14.5202C17.3331 14.6793 17.4349 14.8276 17.5199 14.9846C17.6546 15.233 17.9123 15.5107 17.5356 15.7364C17.1545 15.9648 17.0463 15.5827 16.8763 15.3656C16.8574 15.3413 16.8298 15.3229 16.806 15.3023L16.7881 15.4187C16.2707 15.3499 15.6899 15.4073 15.2499 15.1854C14.3465 14.7297 13.5352 15.0241 12.7141 15.3018C12.4965 15.3754 12.234 15.672 12.2096 15.8906C12.1409 16.5077 12.1858 17.1377 12.1858 17.7829C12.7065 17.7488 12.9739 17.4955 13.0643 17.0424C13.1898 16.413 13.3398 16.3458 13.9108 16.6825C15.337 17.5252 16.7664 18.3615 18.1829 19.2199C18.5131 19.4196 18.7902 19.5203 19.0868 19.1474L19.0863 19.1463ZM6.74566 13.1075C5.70429 14.865 4.65642 16.6338 3.59286 18.4281C3.76714 18.5406 3.91166 18.6408 4.06267 18.7312C4.85398 19.2037 5.08293 19.1468 5.54679 18.3653C6.18492 17.2898 6.82252 16.2143 7.46012 15.1383C8.1578 13.9611 8.1053 13.7787 6.88206 13.1405C6.855 13.1265 6.8209 13.1254 6.74566 13.1075ZM10.7542 21.3633C10.6427 21.2274 10.5447 20.9952 10.4062 20.9676C10.2216 20.9308 9.93149 20.9898 9.81728 21.1208C9.45789 21.5354 9.16074 22.0036 8.83707 22.4496C8.63789 22.7234 8.59892 22.9984 8.89336 23.216C9.19322 23.4374 9.44219 23.301 9.63759 23.0314C9.94177 22.6114 10.246 22.1914 10.5436 21.767C10.6162 21.6631 10.6627 21.5413 10.7542 21.3638V21.3633ZM9.33935 20.317C9.21649 20.1877 9.1077 19.9744 8.96372 19.9474C8.79106 19.9149 8.51881 19.982 8.41164 20.1092C8.0463 20.5433 7.72912 21.0185 7.40383 21.4856C7.22088 21.7481 7.21872 22.0258 7.49909 22.212C7.76972 22.3911 8.02681 22.3099 8.21733 22.0436C8.52964 21.6079 8.84627 21.1744 9.15208 20.7338C9.22353 20.631 9.25763 20.5027 9.33935 20.317ZM5.75138 20.7728C5.93974 20.9876 6.03662 21.1928 6.18547 21.2415C6.33539 21.2907 6.59249 21.2437 6.70345 21.1359C6.93131 20.9151 7.13428 20.6445 7.26419 20.3565C7.33238 20.2055 7.27826 19.9392 7.17921 19.7931C7.1083 19.6892 6.78518 19.6101 6.72131 19.6719C6.38465 19.9977 6.09508 20.3717 5.75138 20.7728ZM10.6741 24.0057C11.1969 24.0214 11.7869 23.2003 11.585 22.8615C11.4946 22.7094 11.1017 22.5448 11.066 22.5838C10.7899 22.8907 10.5377 23.2306 10.3537 23.5987C10.3158 23.6744 10.594 23.9082 10.6735 24.0057H10.6741Z" fill="white"/>
<path d="M17.1978 4.91081C16.4146 4.91081 15.718 4.91622 15.0214 4.90972C13.7928 4.89836 13.0491 4.15846 13.0361 2.93306C13.0285 2.23593 13.035 1.53825 13.035 0.786989C12.8315 0.772375 12.6616 0.749101 12.4916 0.749101C9.04274 0.746936 5.59387 0.745854 2.145 0.749101C1.1453 0.749643 0.755057 1.14259 0.754516 2.13688C0.753433 8.45061 0.753433 14.7643 0.754516 21.0781C0.754516 22.0269 1.17507 22.4507 2.11739 22.4539C3.23996 22.4572 4.36252 22.4561 5.48508 22.4539C5.753 22.4539 6.05881 22.4377 6.06693 22.8009C6.07613 23.202 5.74759 23.1798 5.46668 23.1798C4.31164 23.1798 3.1566 23.1879 2.00157 23.1771C0.784826 23.1657 0.00974981 22.4128 0.0075848 21.1944C-0.00215778 14.799 -0.00215778 8.40406 0.00596103 2.00914C0.0075848 0.772375 0.79944 0.00650027 2.0335 0.00541776C5.61281 0.00162898 9.19213 0.00758278 12.7709 5.22004e-06C13.2916 -0.00107729 13.717 0.16617 14.0824 0.533682C15.1941 1.65408 16.3112 2.76906 17.4289 3.88296C17.7829 4.23532 17.9469 4.65046 17.9448 5.15275C17.9366 7.10559 17.9415 9.0579 17.941 11.0107C17.941 11.2873 17.9805 11.6202 17.5805 11.6299C17.1745 11.6402 17.2 11.3046 17.1994 11.0281C17.1967 9.20566 17.1978 7.38326 17.1978 5.56031C17.1978 5.36763 17.1978 5.17494 17.1978 4.91081ZM13.7657 1.4457C13.7657 1.97883 13.7376 2.5596 13.7738 3.13549C13.809 3.69244 14.2182 4.12382 14.7703 4.16496C15.3597 4.20934 15.9551 4.1747 16.5142 4.1747C15.5995 3.26648 14.6869 2.36042 13.7657 1.44515V1.4457Z" fill="white"/>
<path d="M8.95667 8.9899C10.8435 8.9899 12.7298 8.9899 14.6166 8.99098C14.7622 8.99098 14.9337 8.95959 15.0469 9.02454C15.1649 9.0922 15.2829 9.25349 15.2942 9.38339C15.3029 9.48298 15.1665 9.63886 15.0566 9.69299C14.9359 9.75307 14.7714 9.73467 14.6263 9.73467C10.8532 9.73629 7.08014 9.73575 3.30706 9.73575C3.27458 9.73575 3.24211 9.73575 3.20963 9.73575C2.93684 9.73575 2.63969 9.71735 2.63752 9.36499C2.63536 9.01642 2.92006 8.98774 3.20043 8.98828C4.85937 8.99098 6.51832 8.9899 8.17726 8.9899C8.43761 8.9899 8.69795 8.9899 8.95775 8.9899H8.95667Z" fill="white"/>
<path d="M8.95451 6.73627C10.8402 6.73627 12.726 6.73627 14.6122 6.73627C14.7421 6.73627 14.9002 6.69568 14.9955 6.75467C15.1259 6.83532 15.272 6.98417 15.2904 7.12056C15.3034 7.21636 15.134 7.37928 15.0106 7.43828C14.8899 7.49619 14.7243 7.46588 14.5781 7.46588C10.8392 7.46697 7.09963 7.46642 3.36065 7.46642C3.32817 7.46642 3.2957 7.46642 3.26322 7.46642C2.98664 7.46101 2.64403 7.49673 2.63862 7.10703C2.6332 6.72003 2.96337 6.73519 3.24861 6.73519C5.15058 6.73681 7.05309 6.73627 8.95505 6.73627H8.95451Z" fill="white"/>
<path d="M5.92944 4.91073C5.0039 4.91073 4.07889 4.90856 3.15335 4.91235C2.88543 4.91343 2.62996 4.86418 2.63537 4.54484C2.64024 4.22766 2.89842 4.18599 3.16417 4.18653C5.0472 4.18978 6.93076 4.18923 8.81379 4.18653C9.08117 4.18653 9.33502 4.23362 9.33123 4.55458C9.32744 4.87771 9.06601 4.91235 8.80296 4.91127C7.84494 4.90802 6.88746 4.91019 5.92944 4.91019V4.91073Z" fill="white"/>
</g>
<defs>
<clipPath id="clip0_868_1731">
<rect width="22.2163" height="25" fill="white"/>
</clipPath>
</defs>
</svg>
