<svg width="16" height="15" viewBox="0 0 16 15" fill="none" xmlns="http://www.w3.org/2000/svg">
<g clip-path="url(#clip0_596_1836)">
<path d="M7.71882 14.99C6.99882 14.99 6.27882 14.99 5.54882 14.9C4.6577 14.8804 3.77989 14.6796 2.96882 14.31C2.28753 13.9454 1.7 13.4279 1.25235 12.7981C0.80471 12.1683 0.509131 11.4433 0.388818 10.68C0.388818 10.47 0.388818 10.26 0.328818 10.06C0.275485 8.32666 0.275485 6.59666 0.328818 4.87C0.373709 3.60424 0.89729 2.40268 1.79381 1.50802C2.69033 0.613353 3.89297 0.092263 5.15882 0.0499958C6.29882 -0.0100042 7.38882 -0.0100041 8.54882 -0.0100041C9.30882 -0.0100041 12.6288 -0.290004 12.2288 1.16C12.1686 1.35489 12.0363 1.51944 11.8588 1.62C11.6746 1.71854 11.4589 1.74011 11.2588 1.68C9.14198 1.41485 7.0023 1.38466 4.87882 1.59C4.09718 1.67511 3.3692 2.0285 2.81882 2.59C2.24668 3.13676 1.89151 3.87195 1.81882 4.66C1.72549 6.56 1.72549 8.46 1.81882 10.36C1.8815 11.1404 2.21798 11.8736 2.76882 12.43C3.32178 12.9936 4.05364 13.3471 4.83882 13.43C6.74882 13.51 8.64882 13.51 10.5588 13.43C11.3262 13.3476 12.0424 13.0051 12.5881 12.4593C13.1339 11.9135 13.4765 11.1974 13.5588 10.43C13.6488 9.16 13.6188 7.88 13.6488 6.61V6.09C13.6237 5.9848 13.6237 5.87519 13.6488 5.77C13.6822 5.66959 13.7368 5.57752 13.8088 5.5C13.8795 5.41732 13.9686 5.35226 14.0688 5.31C14.167 5.26907 14.2725 5.24865 14.3788 5.25C14.485 5.25046 14.5901 5.27081 14.6888 5.31C14.7842 5.35126 14.8694 5.41266 14.9388 5.49C15.0108 5.56752 15.0654 5.65959 15.0988 5.76C15.1231 5.86191 15.1231 5.96808 15.0988 6.07C15.0988 7.16 15.0988 8.25 15.0988 9.34C15.1002 9.84618 15.0567 10.3515 14.9688 10.85C14.8303 11.5491 14.5439 12.2106 14.1288 12.79C13.7157 13.3652 13.188 13.8487 12.5788 14.21C11.394 14.7739 10.09 15.0416 8.77882 14.99H7.71882Z" fill="#EB4643"/>
<path d="M8.9387 7.5L10.6187 5.82C10.7739 5.66352 10.8605 5.45182 10.8595 5.23147C10.8586 5.01111 10.7702 4.80015 10.6137 4.645C10.4572 4.48985 10.2455 4.40321 10.0252 4.40415C9.80481 4.40509 9.59385 4.49352 9.4387 4.65L7.7587 6.33L6.0787 4.65C5.91983 4.51484 5.7159 4.44445 5.50749 4.45284C5.29908 4.46123 5.10146 4.54778 4.95397 4.69527C4.80648 4.84276 4.71993 5.04038 4.71154 5.24879C4.70315 5.4572 4.77354 5.66114 4.9087 5.82L6.5887 7.5L4.9087 9.18C4.75222 9.33515 4.66379 9.54611 4.66285 9.76647C4.66191 9.98682 4.74855 10.1985 4.9037 10.355C5.05885 10.5115 5.26981 10.5999 5.49016 10.6009C5.71052 10.6018 5.92222 10.5152 6.0787 10.36L7.7587 8.68L9.4387 10.36C9.59518 10.5165 9.80741 10.6044 10.0287 10.6044C10.25 10.6044 10.4622 10.5165 10.6187 10.36C10.7752 10.2035 10.8631 9.99129 10.8631 9.77C10.8631 9.54871 10.7752 9.33648 10.6187 9.18L8.9387 7.5Z" fill="#EB4643"/>
</g>
<defs>
<clipPath id="clip0_596_1836">
<rect width="15" height="15" fill="white" transform="translate(0.258789)"/>
</clipPath>
</defs>
</svg>
