<svg width="21" height="15" viewBox="0 0 21 15" fill="none" xmlns="http://www.w3.org/2000/svg">
<path d="M6.03268 7.1532C6.10254 7.03127 6.16449 6.92648 6.22315 6.82367C7.41912 4.70897 8.61553 2.59384 9.81237 0.478268C10.0813 0.0037472 10.5723 -0.14454 10.9717 0.141491C11.1063 0.247568 11.2172 0.380707 11.2972 0.532311C12.5055 2.66019 13.7096 4.79114 14.9095 6.92516C14.953 7.00227 15.0005 7.0774 15.0545 7.16703L17.5662 5.9491C18.2457 5.61957 18.9265 5.294 19.6027 4.96051C19.9322 4.79773 20.2512 4.77005 20.5504 5.00797C20.8496 5.24589 20.8799 5.56816 20.7995 5.92339C20.1651 8.70242 19.5339 11.4847 18.906 14.2703C18.7874 14.7923 18.5258 15.0006 17.9834 15.0006H3.08868C2.53309 15.0006 2.27408 14.8029 2.15414 14.2578C1.53902 11.4608 0.925215 8.6631 0.312731 5.86474C0.238917 5.52599 0.306798 5.22348 0.595465 5.00401C0.872269 4.79377 1.1695 4.79773 1.47662 4.94668C2.98586 5.67823 4.49181 6.40714 6.03268 7.1532Z" fill="black"/>
</svg>
